SplineFontDB: 3.0
FontName: ElaineSans-ExtraBold
FullName: Elaine Sans ExtraBold
FamilyName: Elaine Sans ExtraBold
Weight: Bold
Copyright: Copyright (c) 2015 by Wei Huang. All rights reserved.
Version: 1.030;PS 001.030;hotconv 1.0.70;makeotf.lib2.5.58329
ItalicAngle: 0
UnderlinePosition: -250
UnderlineWidth: 50
Ascent: 760
Descent: 240
InvalidEm: 0
sfntRevision: 0x000107ae
LayerCount: 2
Layer: 0 1 "Back" 1
Layer: 1 1 "Fore" 0
XUID: [1021 288 1899785369 5380]
StyleMap: 0x0040
FSType: 4
OS2Version: 3
OS2_WeightWidthSlopeOnly: 0
OS2_UseTypoMetrics: 0
CreationTime: 1436215496
ModificationTime: 1543786706
PfmFamily: 81
TTFWeight: 800
TTFWidth: 5
LineGap: 0
VLineGap: 0
Panose: 0 0 9 0 0 0 0 0 0 0
OS2TypoAscent: 760
OS2TypoAOffset: 0
OS2TypoDescent: -240
OS2TypoDOffset: 0
OS2TypoLinegap: 173
OS2WinAscent: 930
OS2WinAOffset: 0
OS2WinDescent: 243
OS2WinDOffset: 0
HheadAscent: 930
HheadAOffset: 0
HheadDescent: -243
HheadDOffset: 0
OS2SubXSize: 650
OS2SubYSize: 600
OS2SubXOff: 0
OS2SubYOff: 75
OS2SupXSize: 650
OS2SupYSize: 600
OS2SupXOff: 0
OS2SupYOff: 350
OS2StrikeYSize: 50
OS2StrikeYPos: 300
OS2CapHeight: 660
OS2XHeight: 500
OS2Vendor: 'UKWN'
OS2CodePages: 20000093.00000000
OS2UnicodeRanges: 00000007.00000001.00000000.00000000
Lookup: 1 0 0 "'aalt' Access All Alternates lookup 0" { "'aalt' Access All Alternates lookup 0 subtable"  } ['aalt' ('DFLT' <'dflt' > 'grek' <'dflt' > 'latn' <'CAT ' 'MOL ' 'NLD ' 'ROM ' 'TRK ' 'dflt' > ) ]
Lookup: 3 0 0 "'aalt' Access All Alternates lookup 1" { "'aalt' Access All Alternates lookup 1 subtable"  } ['aalt' ('DFLT' <'dflt' > 'grek' <'dflt' > 'latn' <'CAT ' 'MOL ' 'NLD ' 'ROM ' 'TRK ' 'dflt' > ) ]
Lookup: 1 0 0 "'locl' Localized Forms in Latin lookup 2" { "'locl' Localized Forms in Latin lookup 2 subtable"  } ['locl' ('latn' <'TRK ' > ) ]
Lookup: 1 0 0 "'locl' Localized Forms in Latin lookup 3" { "'locl' Localized Forms in Latin lookup 3 subtable"  } ['locl' ('latn' <'TAT ' > ) ]

StartChar: .notdef
Encoding: 65536 -1 0
Width: 500
Flags: W
LayerCount: 2
Fore
SplineSet
50 0 m 1,0,-1
 50 660 l 1,1,-1
 450 660 l 1,2,-1
 450 0 l 1,3,-1
 50 0 l 1,0,-1
130 80 m 1,4,-1
 370 80 l 1,5,-1
 370 580 l 1,6,-1
 130 580 l 1,7,-1
 130 80 l 1,4,-1
EndSplineSet
EndChar

StartChar: exclam
Encoding: 33 33 4
Width: 312
GlyphClass: 2
Flags: W
LayerCount: 2
Fore
SplineSet
261 660 m 1,0,-1
 261 473 l 1,1,-1
 239 218 l 1,2,-1
 72 218 l 1,3,-1
 50 473 l 1,4,-1
 50 660 l 1,5,-1
 261 660 l 1,0,-1
156 173 m 0,6,7
 206 173 206 173 234.5 149.5 c 128,-1,8
 263 126 263 126 263 83 c 128,-1,9
 263 40 263 40 234.5 16 c 128,-1,10
 206 -8 206 -8 156 -8 c 0,11,12
 105 -8 105 -8 76.5 16 c 128,-1,13
 48 40 48 40 48 83 c 128,-1,14
 48 126 48 126 76.5 149.5 c 128,-1,15
 105 173 105 173 156 173 c 0,6,7
EndSplineSet
Substitution2: "'smcp' Lowercase to Small Capitals lookup 12 subtable" exclam.sc
Substitution2: "'c2sc' Capitals to Small Capitals lookup 11 subtable" exclam.sc
Substitution2: "'aalt' Access All Alternates lookup 0 subtable" exclam.sc
EndChar

StartChar: quotedbl
Encoding: 34 34 5
Width: 463
GlyphClass: 2
Flags: W
LayerCount: 2
Fore
SplineSet
426 674 m 1,0,-1
 395 386 l 1,1,-1
 264 386 l 1,2,-1
 264 674 l 1,3,-1
 426 674 l 1,0,-1
218 674 m 1,4,-1
 187 386 l 1,5,-1
 56 386 l 1,6,-1
 56 674 l 1,7,-1
 218 674 l 1,4,-1
EndSplineSet
Substitution2: "'smcp' Lowercase to Small Capitals lookup 12 subtable" quotedbl.sc
Substitution2: "'c2sc' Capitals to Small Capitals lookup 11 subtable" quotedbl.sc
Substitution2: "'aalt' Access All Alternates lookup 0 subtable" quotedbl.sc
EndChar

StartChar: numbersign
Encoding: 35 35 6
Width: 604
GlyphClass: 2
Flags: W
LayerCount: 2
Fore
SplineSet
591 394 m 1,0,-1
 487 394 l 1,1,-1
 467 267 l 1,2,-1
 563 267 l 1,3,-1
 563 150 l 1,4,-1
 449 150 l 1,5,-1
 425 0 l 1,6,-1
 316 0 l 1,7,-1
 340 150 l 1,8,-1
 213 150 l 1,9,-1
 190 0 l 1,10,-1
 81 0 l 1,11,-1
 104 150 l 1,12,-1
 12 150 l 1,13,-1
 12 267 l 1,14,-1
 123 267 l 1,15,-1
 142 394 l 1,16,-1
 40 394 l 1,17,-1
 40 511 l 1,18,-1
 161 511 l 1,19,-1
 184 660 l 1,20,-1
 293 660 l 1,21,-1
 270 511 l 1,22,-1
 396 511 l 1,23,-1
 419 660 l 1,24,-1
 528 660 l 1,25,-1
 505 511 l 1,26,-1
 591 511 l 1,27,-1
 591 394 l 1,0,-1
358 267 m 1,28,-1
 378 394 l 1,29,-1
 252 394 l 1,30,-1
 232 267 l 1,31,-1
 358 267 l 1,28,-1
EndSplineSet
Substitution2: "'tnum' Tabular Numbers lookup 26 subtable" numbersign.tf
Substitution2: "'aalt' Access All Alternates lookup 0 subtable" numbersign.tf
EndChar

StartChar: dollar
Encoding: 36 36 7
Width: 604
GlyphClass: 2
Flags: W
LayerCount: 2
Fore
SplineSet
341 397 m 1,0,1
 381 389 381 389 406.5 382 c 128,-1,2
 432 375 432 375 467.5 359 c 128,-1,3
 503 343 503 343 523.5 323.5 c 128,-1,4
 544 304 544 304 559 270.5 c 128,-1,5
 574 237 574 237 574 194 c 0,6,7
 574 110 574 110 509 59 c 128,-1,8
 444 8 444 8 341 1 c 1,9,-1
 341 -84 l 1,10,-1
 281 -84 l 1,11,-1
 281 1 l 1,12,13
 188 4 188 4 127 31 c 128,-1,14
 66 58 66 58 19 110 c 1,15,-1
 116 230 l 1,16,17
 136 189 136 189 182 164 c 128,-1,18
 228 139 228 139 281 134 c 1,19,-1
 281 256 l 1,20,21
 239 265 239 265 214.5 271 c 128,-1,22
 190 277 190 277 153.5 292.5 c 128,-1,23
 117 308 117 308 97 327 c 128,-1,24
 77 346 77 346 61.5 379 c 128,-1,25
 46 412 46 412 46 454 c 0,26,27
 46 540 46 540 108 596 c 128,-1,28
 170 652 170 652 281 659 c 1,29,-1
 281 744 l 1,30,-1
 341 744 l 1,31,-1
 341 659 l 1,32,33
 426 656 426 656 476 629 c 128,-1,34
 526 602 526 602 584 546 c 1,35,-1
 490 433 l 1,36,37
 446 518 446 518 341 526 c 1,38,-1
 341 397 l 1,0,1
206 466 m 0,39,40
 206 430 206 430 281 411 c 1,41,-1
 281 525 l 1,42,43
 206 515 206 515 206 466 c 0,39,40
341 134 m 1,44,45
 414 141 414 141 414 186 c 0,46,47
 414 208 414 208 395.5 220.5 c 128,-1,48
 377 233 377 233 341 243 c 1,49,-1
 341 134 l 1,44,45
EndSplineSet
Substitution2: "'tnum' Tabular Numbers lookup 26 subtable" dollar.tf
Substitution2: "'aalt' Access All Alternates lookup 0 subtable" dollar.tf
EndChar

StartChar: percent
Encoding: 37 37 8
Width: 967
GlyphClass: 2
Flags: W
LayerCount: 2
Fore
SplineSet
223 670 m 0,0,1
 311 670 311 670 364.5 618 c 128,-1,2
 418 566 418 566 418 480 c 128,-1,3
 418 394 418 394 364.5 342 c 128,-1,4
 311 290 311 290 223 290 c 0,5,6
 134 290 134 290 80.5 342 c 128,-1,7
 27 394 27 394 27 480 c 128,-1,8
 27 566 27 566 80.5 618 c 128,-1,9
 134 670 134 670 223 670 c 0,0,1
173 0 m 1,10,-1
 646 661 l 1,11,-1
 796 661 l 1,12,-1
 322 0 l 1,13,-1
 173 0 l 1,10,-1
223 538 m 0,14,15
 173 538 173 538 173 480 c 128,-1,16
 173 422 173 422 223 422 c 0,17,18
 272 422 272 422 272 480 c 128,-1,19
 272 538 272 538 223 538 c 0,14,15
744 370 m 128,-1,21
 832 370 832 370 886 318 c 128,-1,22
 940 266 940 266 940 180 c 128,-1,23
 940 94 940 94 886 42 c 128,-1,24
 832 -10 832 -10 744 -10 c 128,-1,25
 656 -10 656 -10 602 42 c 128,-1,26
 548 94 548 94 548 180 c 128,-1,27
 548 266 548 266 602 318 c 128,-1,20
 656 370 656 370 744 370 c 128,-1,21
744 238 m 128,-1,29
 694 238 694 238 694 180 c 128,-1,30
 694 122 694 122 744 122 c 128,-1,31
 794 122 794 122 794 180 c 128,-1,28
 794 238 794 238 744 238 c 128,-1,29
EndSplineSet
EndChar

StartChar: ampersand
Encoding: 38 38 9
Width: 655
GlyphClass: 2
Flags: W
LayerCount: 2
Fore
SplineSet
647 131 m 1,0,-1
 634 -10 l 1,1,2
 572 -10 572 -10 532 1 c 128,-1,3
 492 12 492 12 444 47 c 1,4,5
 373 -10 373 -10 257 -10 c 0,6,7
 149 -10 149 -10 83.5 36.5 c 128,-1,8
 18 83 18 83 17 172 c 0,9,10
 16 223 16 223 45 270.5 c 128,-1,11
 74 318 74 318 142 343 c 1,12,13
 105 387 105 387 92 420 c 128,-1,14
 79 453 79 453 79 494 c 0,15,16
 79 566 79 566 135 618 c 128,-1,17
 191 670 191 670 296 670 c 0,18,19
 403 670 403 670 456 622.5 c 128,-1,20
 509 575 509 575 509 506 c 0,21,22
 509 381 509 381 365 326 c 1,23,24
 376 314 376 314 403 287 c 0,25,26
 449 239 449 239 464 224 c 1,27,28
 482 274 482 274 481 334 c 1,29,-1
 612 332 l 1,30,31
 609 221 609 221 549 149 c 1,32,33
 592 121 592 121 647 131 c 1,0,-1
301 543 m 0,34,35
 277 543 277 543 263 528 c 128,-1,36
 249 513 249 513 249 486 c 0,37,38
 249 453 249 453 297 399 c 1,39,40
 352 442 352 442 352 495 c 0,41,42
 352 518 352 518 338 530.5 c 128,-1,43
 324 543 324 543 301 543 c 0,34,35
281 118 m 0,44,45
 314 118 314 118 351 128 c 1,46,47
 338 140 338 140 310 168 c 0,48,49
 275 202 275 202 220 257 c 1,50,51
 188 226 188 226 188 187 c 0,52,53
 188 156 188 156 213 137 c 128,-1,54
 238 118 238 118 281 118 c 0,44,45
EndSplineSet
Substitution2: "'smcp' Lowercase to Small Capitals lookup 12 subtable" ampersand.sc
Substitution2: "'c2sc' Capitals to Small Capitals lookup 11 subtable" ampersand.sc
Substitution2: "'aalt' Access All Alternates lookup 0 subtable" ampersand.sc
EndChar

StartChar: quotesingle
Encoding: 39 39 10
Width: 255
GlyphClass: 2
Flags: W
LayerCount: 2
Fore
SplineSet
218 674 m 1,0,-1
 187 386 l 1,1,-1
 56 386 l 1,2,-1
 56 674 l 1,3,-1
 218 674 l 1,0,-1
EndSplineSet
Substitution2: "'smcp' Lowercase to Small Capitals lookup 12 subtable" quotesingle.sc
Substitution2: "'c2sc' Capitals to Small Capitals lookup 11 subtable" quotesingle.sc
Substitution2: "'aalt' Access All Alternates lookup 0 subtable" quotesingle.sc
EndChar

StartChar: parenleft
Encoding: 40 40 11
Width: 405
GlyphClass: 2
Flags: W
LayerCount: 2
Fore
SplineSet
310 731 m 1,0,-1
 402 641 l 1,1,2
 321 568 321 568 284.5 482.5 c 128,-1,3
 248 397 248 397 248 270 c 0,4,5
 248 142 248 142 284.5 56.5 c 128,-1,6
 321 -29 321 -29 402 -102 c 1,7,-1
 310 -192 l 1,8,9
 69 -44 69 -44 69 270 c 128,-1,10
 69 584 69 584 310 731 c 1,0,-1
EndSplineSet
Substitution2: "'case' Case-Sensitive Forms lookup 29 subtable" parenleft.case
Substitution2: "'sups' Superscript lookup 15 subtable" uni207D
Substitution2: "'subs' Subscript lookup 14 subtable" uni208D
Substitution2: "'sinf' Scientific Inferiors lookup 13 subtable" uni208D
AlternateSubs2: "'aalt' Access All Alternates lookup 1 subtable" uni208D uni207D parenleft.case
EndChar

StartChar: parenright
Encoding: 41 41 12
Width: 405
GlyphClass: 2
Flags: W
LayerCount: 2
Fore
SplineSet
95 731 m 1,0,1
 336 585 336 585 336 270 c 128,-1,2
 336 -45 336 -45 95 -192 c 1,3,-1
 3 -102 l 1,4,5
 85 -30 85 -30 121 56 c 128,-1,6
 157 142 157 142 157 270 c 128,-1,7
 157 398 157 398 121 483.5 c 128,-1,8
 85 569 85 569 3 641 c 1,9,-1
 95 731 l 1,0,1
EndSplineSet
Substitution2: "'case' Case-Sensitive Forms lookup 29 subtable" parenright.case
Substitution2: "'sups' Superscript lookup 15 subtable" uni207E
Substitution2: "'subs' Subscript lookup 14 subtable" uni208E
Substitution2: "'sinf' Scientific Inferiors lookup 13 subtable" uni208E
AlternateSubs2: "'aalt' Access All Alternates lookup 1 subtable" uni208E uni207E parenright.case
EndChar

StartChar: asterisk
Encoding: 42 42 13
Width: 594
GlyphClass: 2
Flags: W
LayerCount: 2
Fore
SplineSet
392 445 m 1,0,-1
 416 424 l 1,1,-1
 503 312 l 1,2,-1
 389 229 l 1,3,-1
 309 347 l 1,4,-1
 297 376 l 1,5,-1
 284 347 l 1,6,-1
 204 229 l 1,7,-1
 90 312 l 1,8,-1
 178 424 l 1,9,-1
 201 445 l 1,10,-1
 170 448 l 1,11,-1
 33 487 l 1,12,-1
 77 622 l 1,13,-1
 211 573 l 1,14,-1
 238 557 l 1,15,-1
 231 588 l 1,16,-1
 226 730 l 1,17,-1
 367 730 l 1,18,-1
 362 588 l 1,19,-1
 355 557 l 1,20,-1
 382 573 l 1,21,-1
 517 622 l 1,22,-1
 560 487 l 1,23,-1
 423 448 l 1,24,-1
 392 445 l 1,0,-1
EndSplineSet
EndChar

StartChar: plus
Encoding: 43 43 14
Width: 604
GlyphClass: 2
Flags: W
LayerCount: 2
Fore
SplineSet
556 397 m 1,0,-1
 556 259 l 1,1,-1
 381 259 l 1,2,-1
 381 57 l 1,3,-1
 224 57 l 1,4,-1
 224 259 l 1,5,-1
 48 259 l 1,6,-1
 48 397 l 1,7,-1
 224 397 l 1,8,-1
 224 598 l 1,9,-1
 381 598 l 1,10,-1
 381 397 l 1,11,-1
 556 397 l 1,0,-1
EndSplineSet
Substitution2: "'sups' Superscript lookup 15 subtable" uni207A
Substitution2: "'subs' Subscript lookup 14 subtable" uni208A
Substitution2: "'sinf' Scientific Inferiors lookup 13 subtable" uni208A
AlternateSubs2: "'aalt' Access All Alternates lookup 1 subtable" uni208A uni207A
EndChar

StartChar: comma
Encoding: 44 44 15
Width: 305
GlyphClass: 2
Flags: W
LayerCount: 2
Fore
SplineSet
151 190 m 0,0,1
 210 190 210 190 240.5 151 c 128,-1,2
 271 112 271 112 271 51 c 0,3,4
 271 -19 271 -19 232.5 -75.5 c 128,-1,5
 194 -132 194 -132 121 -162 c 1,6,-1
 35 -105 l 1,7,8
 142 -61 142 -61 168 4 c 1,9,-1
 163 8 l 1,10,11
 151 -5 151 -5 132 -5 c 0,12,13
 95 -5 95 -5 67 19 c 128,-1,14
 39 43 39 43 39 87 c 0,15,16
 39 138 39 138 69 164 c 128,-1,17
 99 190 99 190 151 190 c 0,0,1
EndSplineSet
Substitution2: "'tnum' Tabular Numbers lookup 26 subtable" comma.tf
Substitution2: "'sups' Superscript lookup 15 subtable" commasuperior
Substitution2: "'subs' Subscript lookup 14 subtable" commainferior
Substitution2: "'sinf' Scientific Inferiors lookup 13 subtable" commainferior
AlternateSubs2: "'aalt' Access All Alternates lookup 1 subtable" commainferior commasuperior comma.tf
EndChar

StartChar: hyphen
Encoding: 45 45 16
Width: 534
GlyphClass: 2
Flags: W
LayerCount: 2
Fore
SplineSet
457 349 m 1,0,-1
 457 191 l 1,1,-1
 78 191 l 1,2,-1
 78 349 l 1,3,-1
 457 349 l 1,0,-1
EndSplineSet
Substitution2: "'case' Case-Sensitive Forms lookup 29 subtable" hyphen.case
Substitution2: "'sups' Superscript lookup 15 subtable" hyphensuperior
Substitution2: "'subs' Subscript lookup 14 subtable" hypheninferior
Substitution2: "'sinf' Scientific Inferiors lookup 13 subtable" hypheninferior
AlternateSubs2: "'aalt' Access All Alternates lookup 1 subtable" hypheninferior hyphensuperior hyphen.case
EndChar

StartChar: period
Encoding: 46 46 17
Width: 302
GlyphClass: 2
Flags: W
LayerCount: 2
Fore
SplineSet
151 190 m 128,-1,1
 204 190 204 190 233.5 164 c 128,-1,2
 263 138 263 138 263 91 c 128,-1,3
 263 44 263 44 233.5 18 c 128,-1,4
 204 -8 204 -8 151 -8 c 128,-1,5
 98 -8 98 -8 68.5 18 c 128,-1,6
 39 44 39 44 39 91 c 128,-1,7
 39 138 39 138 68.5 164 c 128,-1,0
 98 190 98 190 151 190 c 128,-1,1
EndSplineSet
Substitution2: "'tnum' Tabular Numbers lookup 26 subtable" period.tf
Substitution2: "'sups' Superscript lookup 15 subtable" periodsuperior
Substitution2: "'subs' Subscript lookup 14 subtable" periodinferior
Substitution2: "'sinf' Scientific Inferiors lookup 13 subtable" periodinferior
AlternateSubs2: "'aalt' Access All Alternates lookup 1 subtable" periodinferior periodsuperior period.tf
EndChar

StartChar: slash
Encoding: 47 47 18
Width: 479
GlyphClass: 2
Flags: W
LayerCount: 2
Fore
SplineSet
468 706 m 1,0,-1
 197 -70 l 1,1,-1
 10 -70 l 1,2,-1
 281 706 l 1,3,-1
 468 706 l 1,0,-1
EndSplineSet
Substitution2: "'frac' Diagonal Fractions lookup 18 subtable" fraction
Substitution2: "'aalt' Access All Alternates lookup 0 subtable" fraction
EndChar

StartChar: zero
Encoding: 48 48 19
Width: 604
GlyphClass: 2
Flags: W
LayerCount: 2
Fore
SplineSet
302 -10 m 128,-1,1
 30 -10 30 -10 30 330 c 128,-1,2
 30 670 30 670 302 670 c 128,-1,3
 574 670 574 670 574 330 c 128,-1,0
 574 -10 574 -10 302 -10 c 128,-1,1
302 146 m 128,-1,5
 344 146 344 146 360 186 c 128,-1,6
 376 226 376 226 376 330 c 128,-1,7
 376 434 376 434 360 474 c 128,-1,8
 344 514 344 514 302 514 c 128,-1,9
 260 514 260 514 244 474 c 128,-1,10
 228 434 228 434 228 330 c 128,-1,11
 228 226 228 226 244 186 c 128,-1,4
 260 146 260 146 302 146 c 128,-1,5
EndSplineSet
Substitution2: "'zero' Slashed Zero lookup 28 subtable" zero.zero
Substitution2: "'onum' Oldstyle Figures lookup 27 subtable" zero.osf
Substitution2: "'tnum' Tabular Numbers lookup 26 subtable" zero.tf
Substitution2: "'frac' Diagonal Fractions lookup 19 subtable" zero.numr
Substitution2: "'dnom' Denominators lookup 17 subtable" zero.dnom
Substitution2: "'numr' Numerators lookup 16 subtable" zero.numr
Substitution2: "'sups' Superscript lookup 15 subtable" uni2070
Substitution2: "'subs' Subscript lookup 14 subtable" uni2080
Substitution2: "'sinf' Scientific Inferiors lookup 13 subtable" uni2080
Substitution2: "'smcp' Lowercase to Small Capitals lookup 12 subtable" zero.sc
Substitution2: "'c2sc' Capitals to Small Capitals lookup 11 subtable" zero.sc
AlternateSubs2: "'aalt' Access All Alternates lookup 1 subtable" zero.sc uni2080 uni2070 zero.numr zero.dnom zero.tf zero.osf zero.zero
EndChar

StartChar: one
Encoding: 49 49 20
Width: 604
GlyphClass: 2
Flags: W
LayerCount: 2
Fore
SplineSet
424 151 m 1,0,-1
 573 151 l 1,1,-1
 573 0 l 1,2,-1
 67 0 l 1,3,-1
 67 151 l 1,4,-1
 239 151 l 1,5,-1
 239 476 l 1,6,7
 161 405 161 405 77 396 c 1,8,-1
 62 552 l 1,9,10
 120 558 120 558 179.5 590.5 c 128,-1,11
 239 623 239 623 264 660 c 1,12,-1
 424 660 l 1,13,-1
 424 151 l 1,0,-1
EndSplineSet
Substitution2: "'onum' Oldstyle Figures lookup 27 subtable" one.osf
Substitution2: "'tnum' Tabular Numbers lookup 26 subtable" one.tf
Substitution2: "'nalt' Alternate Annotation Forms lookup 23 subtable" uni2780
Substitution2: "'frac' Diagonal Fractions lookup 19 subtable" one.numr
Substitution2: "'dnom' Denominators lookup 17 subtable" one.dnom
Substitution2: "'numr' Numerators lookup 16 subtable" one.numr
Substitution2: "'sups' Superscript lookup 15 subtable" uni00B9
Substitution2: "'subs' Subscript lookup 14 subtable" uni2081
Substitution2: "'sinf' Scientific Inferiors lookup 13 subtable" uni2081
Substitution2: "'smcp' Lowercase to Small Capitals lookup 12 subtable" one.sc
Substitution2: "'c2sc' Capitals to Small Capitals lookup 11 subtable" one.sc
AlternateSubs2: "'aalt' Access All Alternates lookup 1 subtable" one.sc uni2081 uni00B9 one.numr one.dnom uni2780 one.tf one.osf
EndChar

StartChar: two
Encoding: 50 50 21
Width: 604
GlyphClass: 2
Flags: W
LayerCount: 2
Fore
SplineSet
49 0 m 1,0,-1
 49 126 l 1,1,2
 203 214 203 214 278 294 c 128,-1,3
 353 374 353 374 353 440 c 0,4,5
 353 473 353 473 335.5 493.5 c 128,-1,6
 318 514 318 514 283 514 c 0,7,8
 200 514 200 514 202 388 c 1,9,-1
 27 435 l 1,10,11
 26 548 26 548 101.5 609 c 128,-1,12
 177 670 177 670 297 670 c 0,13,14
 365 670 365 670 416.5 650.5 c 128,-1,15
 468 631 468 631 497 598.5 c 128,-1,16
 526 566 526 566 540.5 530 c 128,-1,17
 555 494 555 494 555 456 c 0,18,19
 555 364 555 364 486.5 290 c 128,-1,20
 418 216 418 216 288 148 c 1,21,-1
 288 146 l 1,22,23
 351 151 351 151 434 151 c 2,24,-1
 561 151 l 1,25,-1
 561 0 l 1,26,-1
 49 0 l 1,0,-1
EndSplineSet
Substitution2: "'onum' Oldstyle Figures lookup 27 subtable" two.osf
Substitution2: "'tnum' Tabular Numbers lookup 26 subtable" two.tf
Substitution2: "'nalt' Alternate Annotation Forms lookup 23 subtable" uni2781
Substitution2: "'frac' Diagonal Fractions lookup 19 subtable" two.numr
Substitution2: "'dnom' Denominators lookup 17 subtable" two.dnom
Substitution2: "'numr' Numerators lookup 16 subtable" two.numr
Substitution2: "'sups' Superscript lookup 15 subtable" uni00B2
Substitution2: "'subs' Subscript lookup 14 subtable" uni2082
Substitution2: "'sinf' Scientific Inferiors lookup 13 subtable" uni2082
Substitution2: "'smcp' Lowercase to Small Capitals lookup 12 subtable" two.sc
Substitution2: "'c2sc' Capitals to Small Capitals lookup 11 subtable" two.sc
AlternateSubs2: "'aalt' Access All Alternates lookup 1 subtable" two.sc uni2082 uni00B2 two.numr two.dnom uni2781 two.tf two.osf
EndChar

StartChar: three
Encoding: 51 51 22
Width: 604
GlyphClass: 2
Flags: W
LayerCount: 2
Fore
SplineSet
309 670 m 0,0,1
 424 670 424 670 487 620 c 128,-1,2
 550 570 550 570 550 480 c 0,3,4
 550 439 550 439 535 408 c 128,-1,5
 520 377 520 377 498 362 c 128,-1,6
 476 347 476 347 457.5 340 c 128,-1,7
 439 333 439 333 426 333 c 1,8,-1
 426 329 l 1,9,10
 443 329 443 329 462.5 323.5 c 128,-1,11
 482 318 482 318 506.5 304 c 128,-1,12
 531 290 531 290 547 258 c 128,-1,13
 563 226 563 226 563 181 c 0,14,15
 563 95 563 95 489.5 42.5 c 128,-1,16
 416 -10 416 -10 303 -10 c 0,17,18
 189 -10 189 -10 123 29 c 128,-1,19
 57 68 57 68 31 156 c 1,20,-1
 212 233 l 1,21,22
 213 182 213 182 234.5 162.5 c 128,-1,23
 256 143 256 143 295 143 c 0,24,25
 327 143 327 143 347.5 161 c 128,-1,26
 368 179 368 179 367 210 c 0,27,28
 366 267 366 267 291 267 c 2,29,-1
 251 267 l 1,30,-1
 251 388 l 1,31,-1
 282 388 l 2,32,33
 353 388 353 388 354 452 c 0,34,35
 354 482 354 482 337 499.5 c 128,-1,36
 320 517 320 517 293 517 c 0,37,38
 217 517 217 517 218 431 c 1,39,-1
 43 488 l 1,40,41
 68 670 68 670 309 670 c 0,0,1
EndSplineSet
Substitution2: "'onum' Oldstyle Figures lookup 27 subtable" three.osf
Substitution2: "'tnum' Tabular Numbers lookup 26 subtable" three.tf
Substitution2: "'nalt' Alternate Annotation Forms lookup 23 subtable" uni2782
Substitution2: "'frac' Diagonal Fractions lookup 19 subtable" three.numr
Substitution2: "'dnom' Denominators lookup 17 subtable" three.dnom
Substitution2: "'numr' Numerators lookup 16 subtable" three.numr
Substitution2: "'sups' Superscript lookup 15 subtable" uni00B3
Substitution2: "'subs' Subscript lookup 14 subtable" uni2083
Substitution2: "'sinf' Scientific Inferiors lookup 13 subtable" uni2083
Substitution2: "'smcp' Lowercase to Small Capitals lookup 12 subtable" three.sc
Substitution2: "'c2sc' Capitals to Small Capitals lookup 11 subtable" three.sc
AlternateSubs2: "'aalt' Access All Alternates lookup 1 subtable" three.sc uni2083 uni00B3 three.numr three.dnom uni2782 three.tf three.osf
EndChar

StartChar: four
Encoding: 52 52 23
Width: 604
GlyphClass: 2
Flags: W
LayerCount: 2
Fore
SplineSet
313 0 m 1,0,-1
 313 133 l 1,1,-1
 26 133 l 1,2,-1
 26 224 l 1,3,-1
 255 660 l 1,4,-1
 491 660 l 1,5,-1
 491 270 l 1,6,-1
 590 270 l 1,7,-1
 590 133 l 1,8,-1
 491 133 l 1,9,-1
 491 0 l 1,10,-1
 313 0 l 1,0,-1
194 270 m 1,11,-1
 321 270 l 1,12,-1
 321 360 l 2,13,14
 321 446 321 446 324 528 c 1,15,-1
 321 528 l 1,16,17
 310 492 310 492 289 452 c 2,18,-1
 194 270 l 1,11,-1
EndSplineSet
Substitution2: "'onum' Oldstyle Figures lookup 27 subtable" four.osf
Substitution2: "'tnum' Tabular Numbers lookup 26 subtable" four.tf
Substitution2: "'nalt' Alternate Annotation Forms lookup 23 subtable" uni2783
Substitution2: "'frac' Diagonal Fractions lookup 19 subtable" four.numr
Substitution2: "'dnom' Denominators lookup 17 subtable" four.dnom
Substitution2: "'numr' Numerators lookup 16 subtable" four.numr
Substitution2: "'sups' Superscript lookup 15 subtable" uni2074
Substitution2: "'subs' Subscript lookup 14 subtable" uni2084
Substitution2: "'sinf' Scientific Inferiors lookup 13 subtable" uni2084
Substitution2: "'smcp' Lowercase to Small Capitals lookup 12 subtable" four.sc
Substitution2: "'c2sc' Capitals to Small Capitals lookup 11 subtable" four.sc
AlternateSubs2: "'aalt' Access All Alternates lookup 1 subtable" four.sc uni2084 uni2074 four.numr four.dnom uni2783 four.tf four.osf
EndChar

StartChar: five
Encoding: 53 53 24
Width: 604
GlyphClass: 2
Flags: W
LayerCount: 2
Fore
SplineSet
358 427 m 0,0,1
 455 427 455 427 510 372.5 c 128,-1,2
 565 318 565 318 565 231 c 0,3,4
 565 111 565 111 488 50.5 c 128,-1,5
 411 -10 411 -10 297 -10 c 0,6,7
 205 -10 205 -10 140 18 c 128,-1,8
 75 46 75 46 29 115 c 1,9,-1
 206 217 l 1,10,11
 213 177 213 177 233 158 c 128,-1,12
 253 139 253 139 299 139 c 0,13,14
 339 139 339 139 361.5 158.5 c 128,-1,15
 384 178 384 178 384 217 c 0,16,17
 384 293 384 293 298 293 c 0,18,19
 236 293 236 293 208 262 c 1,20,-1
 56 288 l 1,21,-1
 99 660 l 1,22,-1
 526 660 l 1,23,-1
 526 507 l 1,24,-1
 245 507 l 1,25,-1
 232 413 l 2,26,27
 230 394 230 394 226 383 c 1,28,-1
 227 383 l 1,29,30
 266 427 266 427 358 427 c 0,0,1
EndSplineSet
Substitution2: "'onum' Oldstyle Figures lookup 27 subtable" five.osf
Substitution2: "'tnum' Tabular Numbers lookup 26 subtable" five.tf
Substitution2: "'nalt' Alternate Annotation Forms lookup 23 subtable" uni2784
Substitution2: "'frac' Diagonal Fractions lookup 19 subtable" five.numr
Substitution2: "'dnom' Denominators lookup 17 subtable" five.dnom
Substitution2: "'numr' Numerators lookup 16 subtable" five.numr
Substitution2: "'sups' Superscript lookup 15 subtable" uni2075
Substitution2: "'subs' Subscript lookup 14 subtable" uni2085
Substitution2: "'sinf' Scientific Inferiors lookup 13 subtable" uni2085
Substitution2: "'smcp' Lowercase to Small Capitals lookup 12 subtable" five.sc
Substitution2: "'c2sc' Capitals to Small Capitals lookup 11 subtable" five.sc
AlternateSubs2: "'aalt' Access All Alternates lookup 1 subtable" five.sc uni2085 uni2075 five.numr five.dnom uni2784 five.tf five.osf
EndChar

StartChar: six
Encoding: 54 54 25
Width: 604
GlyphClass: 2
Flags: W
LayerCount: 2
Fore
SplineSet
333 670 m 0,0,1
 516 670 516 670 572 521 c 1,2,-1
 406 444 l 1,3,4
 392 512 392 512 322 512 c 0,5,6
 278 512 278 512 251.5 470 c 128,-1,7
 225 428 225 428 225 351 c 2,8,-1
 225 334 l 1,9,-1
 227 334 l 1,10,11
 242 369 242 369 282.5 388.5 c 128,-1,12
 323 408 323 408 380 408 c 0,13,14
 469 408 469 408 524 353 c 128,-1,15
 579 298 579 298 579 206 c 0,16,17
 579 107 579 107 512 48.5 c 128,-1,18
 445 -10 445 -10 329 -10 c 0,19,20
 190 -10 190 -10 116.5 76.5 c 128,-1,21
 43 163 43 163 43 330 c 0,22,23
 43 501 43 501 122.5 585.5 c 128,-1,24
 202 670 202 670 333 670 c 0,0,1
325 279 m 128,-1,26
 291 279 291 279 272 260 c 128,-1,27
 253 241 253 241 253 208 c 0,28,29
 253 174 253 174 272 155.5 c 128,-1,30
 291 137 291 137 325 137 c 128,-1,31
 359 137 359 137 378 155.5 c 128,-1,32
 397 174 397 174 397 208 c 128,-1,33
 397 242 397 242 378 260.5 c 128,-1,25
 359 279 359 279 325 279 c 128,-1,26
EndSplineSet
Substitution2: "'onum' Oldstyle Figures lookup 27 subtable" six.osf
Substitution2: "'tnum' Tabular Numbers lookup 26 subtable" six.tf
Substitution2: "'nalt' Alternate Annotation Forms lookup 23 subtable" uni2785
Substitution2: "'frac' Diagonal Fractions lookup 19 subtable" six.numr
Substitution2: "'dnom' Denominators lookup 17 subtable" six.dnom
Substitution2: "'numr' Numerators lookup 16 subtable" six.numr
Substitution2: "'sups' Superscript lookup 15 subtable" uni2076
Substitution2: "'subs' Subscript lookup 14 subtable" uni2086
Substitution2: "'sinf' Scientific Inferiors lookup 13 subtable" uni2086
Substitution2: "'smcp' Lowercase to Small Capitals lookup 12 subtable" six.sc
Substitution2: "'c2sc' Capitals to Small Capitals lookup 11 subtable" six.sc
AlternateSubs2: "'aalt' Access All Alternates lookup 1 subtable" six.sc uni2086 uni2076 six.numr six.dnom uni2785 six.tf six.osf
EndChar

StartChar: seven
Encoding: 55 55 26
Width: 604
GlyphClass: 2
Flags: W
LayerCount: 2
Fore
SplineSet
32 660 m 1,0,-1
 571 660 l 1,1,-1
 571 521 l 1,2,3
 456 399 456 399 415.5 290.5 c 128,-1,4
 375 182 375 182 375 0 c 1,5,-1
 172 0 l 1,6,7
 172 157 172 157 223.5 276 c 128,-1,8
 275 395 275 395 385 504 c 1,9,-1
 32 504 l 1,10,-1
 32 660 l 1,0,-1
EndSplineSet
Substitution2: "'onum' Oldstyle Figures lookup 27 subtable" seven.osf
Substitution2: "'tnum' Tabular Numbers lookup 26 subtable" seven.tf
Substitution2: "'nalt' Alternate Annotation Forms lookup 23 subtable" uni2786
Substitution2: "'frac' Diagonal Fractions lookup 19 subtable" seven.numr
Substitution2: "'dnom' Denominators lookup 17 subtable" seven.dnom
Substitution2: "'numr' Numerators lookup 16 subtable" seven.numr
Substitution2: "'sups' Superscript lookup 15 subtable" uni2077
Substitution2: "'subs' Subscript lookup 14 subtable" uni2087
Substitution2: "'sinf' Scientific Inferiors lookup 13 subtable" uni2087
Substitution2: "'smcp' Lowercase to Small Capitals lookup 12 subtable" seven.sc
Substitution2: "'c2sc' Capitals to Small Capitals lookup 11 subtable" seven.sc
AlternateSubs2: "'aalt' Access All Alternates lookup 1 subtable" seven.sc uni2087 uni2077 seven.numr seven.dnom uni2786 seven.tf seven.osf
EndChar

StartChar: eight
Encoding: 56 56 27
Width: 604
GlyphClass: 2
Flags: W
LayerCount: 2
Fore
SplineSet
302 667 m 128,-1,1
 418 667 418 667 484.5 616.5 c 128,-1,2
 551 566 551 566 551 478 c 0,3,4
 551 376 551 376 447 334 c 1,5,-1
 447 333 l 1,6,7
 566 292 566 292 566 182 c 0,8,9
 566 91 566 91 496 40.5 c 128,-1,10
 426 -10 426 -10 302 -10 c 128,-1,11
 178 -10 178 -10 108 40.5 c 128,-1,12
 38 91 38 91 38 182 c 0,13,14
 38 293 38 293 157 333 c 1,15,-1
 157 334 l 1,16,17
 109 353 109 353 81 390.5 c 128,-1,18
 53 428 53 428 53 478 c 0,19,20
 53 566 53 566 119.5 616.5 c 128,-1,0
 186 667 186 667 302 667 c 128,-1,1
302 526 m 128,-1,22
 268 526 268 526 249.5 509 c 128,-1,23
 231 492 231 492 231 461 c 128,-1,24
 231 430 231 430 250 413 c 128,-1,25
 269 396 269 396 302 396 c 128,-1,26
 335 396 335 396 354 413 c 128,-1,27
 373 430 373 430 373 461 c 128,-1,28
 373 492 373 492 354.5 509 c 128,-1,21
 336 526 336 526 302 526 c 128,-1,22
303 131 m 128,-1,30
 340 131 340 131 360 149 c 128,-1,31
 380 167 380 167 380 199 c 128,-1,32
 380 231 380 231 360 249 c 128,-1,33
 340 267 340 267 303 267 c 128,-1,34
 266 267 266 267 246 249 c 128,-1,35
 226 231 226 231 226 199 c 128,-1,36
 226 167 226 167 246 149 c 128,-1,29
 266 131 266 131 303 131 c 128,-1,30
EndSplineSet
Substitution2: "'onum' Oldstyle Figures lookup 27 subtable" eight.osf
Substitution2: "'tnum' Tabular Numbers lookup 26 subtable" eight.tf
Substitution2: "'nalt' Alternate Annotation Forms lookup 23 subtable" uni2787
Substitution2: "'frac' Diagonal Fractions lookup 19 subtable" eight.numr
Substitution2: "'dnom' Denominators lookup 17 subtable" eight.dnom
Substitution2: "'numr' Numerators lookup 16 subtable" eight.numr
Substitution2: "'sups' Superscript lookup 15 subtable" uni2078
Substitution2: "'subs' Subscript lookup 14 subtable" uni2088
Substitution2: "'sinf' Scientific Inferiors lookup 13 subtable" uni2088
Substitution2: "'smcp' Lowercase to Small Capitals lookup 12 subtable" eight.sc
Substitution2: "'c2sc' Capitals to Small Capitals lookup 11 subtable" eight.sc
AlternateSubs2: "'aalt' Access All Alternates lookup 1 subtable" eight.sc uni2088 uni2078 eight.numr eight.dnom uni2787 eight.tf eight.osf
EndChar

StartChar: nine
Encoding: 57 57 28
Width: 604
GlyphClass: 2
Flags: W
LayerCount: 2
Fore
SplineSet
291 670 m 0,0,1
 424 670 424 670 495.5 584 c 128,-1,2
 567 498 567 498 567 325 c 0,3,4
 567 149 567 149 496 69.5 c 128,-1,5
 425 -10 425 -10 286 -10 c 0,6,7
 96 -10 96 -10 37 132 c 1,8,-1
 221 200 l 1,9,10
 228 168 228 168 244.5 154 c 128,-1,11
 261 140 261 140 295 140 c 0,12,13
 387 140 387 140 387 289 c 2,14,-1
 387 308 l 1,15,-1
 384 308 l 1,16,17
 355 237 355 237 242 234 c 0,18,19
 149 231 149 231 89.5 287 c 128,-1,20
 30 343 30 343 30 443 c 0,21,22
 30 548 30 548 99 609 c 128,-1,23
 168 670 168 670 291 670 c 0,0,1
287 515 m 0,24,25
 252 515 252 515 233 496.5 c 128,-1,26
 214 478 214 478 214 444 c 128,-1,27
 214 410 214 410 233 391.5 c 128,-1,28
 252 373 252 373 287 373 c 0,29,30
 321 373 321 373 340 391.5 c 128,-1,31
 359 410 359 410 359 444 c 0,32,33
 359 477 359 477 340 496 c 128,-1,34
 321 515 321 515 287 515 c 0,24,25
EndSplineSet
Substitution2: "'onum' Oldstyle Figures lookup 27 subtable" nine.osf
Substitution2: "'tnum' Tabular Numbers lookup 26 subtable" nine.tf
Substitution2: "'nalt' Alternate Annotation Forms lookup 23 subtable" uni2788
Substitution2: "'frac' Diagonal Fractions lookup 19 subtable" nine.numr
Substitution2: "'dnom' Denominators lookup 17 subtable" nine.dnom
Substitution2: "'numr' Numerators lookup 16 subtable" nine.numr
Substitution2: "'sups' Superscript lookup 15 subtable" uni2079
Substitution2: "'subs' Subscript lookup 14 subtable" uni2089
Substitution2: "'sinf' Scientific Inferiors lookup 13 subtable" uni2089
Substitution2: "'smcp' Lowercase to Small Capitals lookup 12 subtable" nine.sc
Substitution2: "'c2sc' Capitals to Small Capitals lookup 11 subtable" nine.sc
AlternateSubs2: "'aalt' Access All Alternates lookup 1 subtable" nine.sc uni2089 uni2079 nine.numr nine.dnom uni2788 nine.tf nine.osf
EndChar

StartChar: colon
Encoding: 58 58 29
Width: 302
GlyphClass: 2
Flags: W
LayerCount: 2
Fore
SplineSet
151 510 m 128,-1,1
 204 510 204 510 233.5 484 c 128,-1,2
 263 458 263 458 263 411 c 128,-1,3
 263 364 263 364 233.5 338 c 128,-1,4
 204 312 204 312 151 312 c 128,-1,5
 98 312 98 312 68.5 338 c 128,-1,6
 39 364 39 364 39 411 c 128,-1,7
 39 458 39 458 68.5 484 c 128,-1,0
 98 510 98 510 151 510 c 128,-1,1
151 190 m 128,-1,9
 204 190 204 190 233.5 164 c 128,-1,10
 263 138 263 138 263 91 c 128,-1,11
 263 44 263 44 233.5 18 c 128,-1,12
 204 -8 204 -8 151 -8 c 128,-1,13
 98 -8 98 -8 68.5 18 c 128,-1,14
 39 44 39 44 39 91 c 128,-1,15
 39 138 39 138 68.5 164 c 128,-1,8
 98 190 98 190 151 190 c 128,-1,9
EndSplineSet
Substitution2: "'tnum' Tabular Numbers lookup 26 subtable" colon.tf
Substitution2: "'sups' Superscript lookup 15 subtable" colonsuperior
Substitution2: "'subs' Subscript lookup 14 subtable" coloninferior
Substitution2: "'sinf' Scientific Inferiors lookup 13 subtable" coloninferior
AlternateSubs2: "'aalt' Access All Alternates lookup 1 subtable" coloninferior colonsuperior colon.tf
EndChar

StartChar: semicolon
Encoding: 59 59 30
Width: 302
GlyphClass: 2
Flags: W
LayerCount: 2
Fore
SplineSet
153 312 m 128,-1,1
 100 312 100 312 70.5 338 c 128,-1,2
 41 364 41 364 41 411 c 128,-1,3
 41 458 41 458 70.5 484 c 128,-1,4
 100 510 100 510 153 510 c 128,-1,5
 206 510 206 510 235.5 483.5 c 128,-1,6
 265 457 265 457 265 411 c 0,7,8
 265 364 265 364 235.5 338 c 128,-1,0
 206 312 206 312 153 312 c 128,-1,1
150 190 m 0,9,10
 209 190 209 190 239 151 c 128,-1,11
 269 112 269 112 269 51 c 0,12,13
 269 -19 269 -19 230.5 -75.5 c 128,-1,14
 192 -132 192 -132 120 -162 c 1,15,-1
 33 -105 l 1,16,17
 139 -62 139 -62 167 4 c 1,18,-1
 162 8 l 1,19,20
 150 -5 150 -5 131 -5 c 0,21,22
 93 -5 93 -5 65 19 c 128,-1,23
 37 43 37 43 37 87 c 0,24,25
 37 138 37 138 67.5 164 c 128,-1,26
 98 190 98 190 150 190 c 0,9,10
EndSplineSet
Substitution2: "'tnum' Tabular Numbers lookup 26 subtable" semicolon.tf
Substitution2: "'aalt' Access All Alternates lookup 0 subtable" semicolon.tf
EndChar

StartChar: less
Encoding: 60 60 31
Width: 604
GlyphClass: 2
Flags: W
LayerCount: 2
Fore
SplineSet
555 594 m 1,0,-1
 555 405 l 1,1,-1
 207 295 l 1,2,-1
 555 186 l 1,3,-1
 555 -3 l 1,4,-1
 60 212 l 1,5,-1
 60 379 l 1,6,-1
 555 594 l 1,0,-1
EndSplineSet
EndChar

StartChar: equal
Encoding: 61 61 32
Width: 604
GlyphClass: 2
Flags: W
LayerCount: 2
Fore
SplineSet
539 498 m 1,0,-1
 539 366 l 1,1,-1
 65 366 l 1,2,-1
 65 498 l 1,3,-1
 539 498 l 1,0,-1
539 276 m 1,4,-1
 539 144 l 1,5,-1
 65 144 l 1,6,-1
 65 276 l 1,7,-1
 539 276 l 1,4,-1
EndSplineSet
Substitution2: "'sups' Superscript lookup 15 subtable" uni207C
Substitution2: "'subs' Subscript lookup 14 subtable" uni208C
Substitution2: "'sinf' Scientific Inferiors lookup 13 subtable" uni208C
AlternateSubs2: "'aalt' Access All Alternates lookup 1 subtable" uni208C uni207C
EndChar

StartChar: greater
Encoding: 62 62 33
Width: 604
GlyphClass: 2
Flags: W
LayerCount: 2
Fore
SplineSet
49 594 m 1,0,-1
 544 379 l 1,1,-1
 544 212 l 1,2,-1
 49 -3 l 1,3,-1
 49 186 l 1,4,-1
 396 296 l 1,5,-1
 49 405 l 1,6,-1
 49 594 l 1,0,-1
EndSplineSet
EndChar

StartChar: question
Encoding: 63 63 34
Width: 631
GlyphClass: 2
Flags: W
LayerCount: 2
Fore
SplineSet
320 670 m 0,0,1
 446 670 446 670 518.5 625 c 128,-1,2
 591 580 591 580 591 485 c 0,3,4
 591 314 591 314 400 295 c 1,5,-1
 386 216 l 1,6,-1
 219 216 l 1,7,-1
 206 369 l 1,8,9
 372 378 372 378 372 453 c 0,10,11
 372 510 372 510 307 510 c 0,12,13
 231 510 231 510 227 422 c 1,14,-1
 30 492 l 1,15,16
 39 573 39 573 109 621.5 c 128,-1,17
 179 670 179 670 320 670 c 0,0,1
304 174 m 128,-1,19
 355 174 355 174 383 150 c 128,-1,20
 411 126 411 126 411 83 c 128,-1,21
 411 40 411 40 383 16 c 128,-1,22
 355 -8 355 -8 304 -8 c 128,-1,23
 253 -8 253 -8 224.5 16 c 128,-1,24
 196 40 196 40 196 83 c 128,-1,25
 196 126 196 126 224.5 150 c 128,-1,18
 253 174 253 174 304 174 c 128,-1,19
EndSplineSet
Substitution2: "'smcp' Lowercase to Small Capitals lookup 12 subtable" question.sc
Substitution2: "'c2sc' Capitals to Small Capitals lookup 11 subtable" question.sc
Substitution2: "'aalt' Access All Alternates lookup 0 subtable" question.sc
EndChar

StartChar: at
Encoding: 64 64 35
Width: 932
GlyphClass: 2
Flags: W
LayerCount: 2
Fore
SplineSet
488 660 m 0,0,1
 670 660 670 660 778.5 556 c 128,-1,2
 887 452 887 452 887 260 c 0,3,4
 887 192 887 192 868 140.5 c 128,-1,5
 849 89 849 89 817.5 60 c 128,-1,6
 786 31 786 31 748.5 16.5 c 128,-1,7
 711 2 711 2 669 2 c 0,8,9
 562 2 562 2 521 85 c 1,10,11
 469 3 469 3 376 3 c 0,12,13
 302 3 302 3 259.5 54.5 c 128,-1,14
 217 106 217 106 217 187 c 0,15,16
 217 324 217 324 282 396 c 128,-1,17
 347 468 347 468 448 468 c 0,18,19
 492 468 492 468 516 445 c 128,-1,20
 540 422 540 422 546 394 c 1,21,-1
 567 457 l 1,22,-1
 714 457 l 1,23,-1
 668 180 l 2,24,25
 661 136 661 136 671.5 117 c 128,-1,26
 682 98 682 98 715 98 c 0,27,28
 754 98 754 98 779 140 c 128,-1,29
 804 182 804 182 804 260 c 0,30,31
 804 418 804 418 719.5 498.5 c 128,-1,32
 635 579 635 579 488 579 c 0,33,34
 329 579 329 579 232 484 c 128,-1,35
 135 389 135 389 135 223 c 0,36,37
 135 145 135 145 161 82 c 128,-1,38
 187 19 187 19 231 -20 c 128,-1,39
 275 -59 275 -59 331 -79.5 c 128,-1,40
 387 -100 387 -100 448 -100 c 0,41,42
 523 -100 523 -100 566.5 -87 c 128,-1,43
 610 -74 610 -74 645 -47 c 1,44,-1
 690 -111 l 1,45,46
 641 -146 641 -146 587.5 -163 c 128,-1,47
 534 -180 534 -180 444 -180 c 0,48,49
 268 -180 268 -180 155.5 -72.5 c 128,-1,50
 43 35 43 35 43 223 c 0,51,52
 43 419 43 419 168.5 539.5 c 128,-1,53
 294 660 294 660 488 660 c 0,0,1
471 340 m 0,54,55
 438 340 438 340 413.5 305 c 128,-1,56
 389 270 389 270 389 213 c 0,57,58
 389 139 389 139 439 139 c 0,59,60
 460 139 460 139 476 152 c 128,-1,61
 492 165 492 165 496 189 c 2,62,-1
 509 281 l 2,63,64
 517 340 517 340 471 340 c 0,54,55
EndSplineSet
Substitution2: "'case' Case-Sensitive Forms lookup 29 subtable" at.case
Substitution2: "'aalt' Access All Alternates lookup 0 subtable" at.case
EndChar

StartChar: A
Encoding: 65 65 36
Width: 684
GlyphClass: 2
Flags: W
LayerCount: 2
Fore
SplineSet
477 0 m 1,0,-1
 440 137 l 1,1,-1
 239 137 l 1,2,-1
 201 0 l 1,3,-1
 -3 0 l 1,4,-1
 219 660 l 1,5,-1
 464 660 l 1,6,-1
 687 0 l 1,7,-1
 477 0 l 1,0,-1
275 269 m 1,8,-1
 405 269 l 1,9,-1
 369 400 l 1,10,-1
 341 508 l 1,11,-1
 339 508 l 1,12,-1
 312 401 l 1,13,-1
 275 269 l 1,8,-1
EndSplineSet
Substitution2: "Single Substitution lookup 56 subtable" A.swsh
Substitution2: "Single Substitution lookup 55 subtable" ordfeminine
Substitution2: "'swsh' Swash lookup 32 subtable" A.swsh
Substitution2: "'c2sc' Capitals to Small Capitals lookup 11 subtable" a.sc
AlternateSubs2: "'aalt' Access All Alternates lookup 1 subtable" a.sc ordfeminine A.swsh
EndChar

StartChar: B
Encoding: 66 66 37
Width: 694
GlyphClass: 2
Flags: W
LayerCount: 2
Fore
SplineSet
61 0 m 1,0,-1
 61 660 l 1,1,-1
 412 660 l 2,2,3
 655 659 655 659 655 483 c 0,4,5
 655 423 655 423 619 383 c 128,-1,6
 583 343 583 343 513 333 c 1,7,-1
 513 332 l 1,8,9
 592 322 592 322 632 281 c 128,-1,10
 672 240 672 240 672 176 c 0,11,12
 672 0 672 0 433 0 c 2,13,-1
 61 0 l 1,0,-1
257 398 m 1,14,-1
 369 398 l 2,15,16
 446 398 446 398 446 457 c 128,-1,17
 446 516 446 516 369 516 c 2,18,-1
 257 516 l 1,19,-1
 257 398 l 1,14,-1
257 138 m 1,20,-1
 386 138 l 2,21,22
 463 138 463 138 463 198 c 0,23,24
 463 257 463 257 386 257 c 2,25,-1
 257 257 l 1,26,-1
 257 138 l 1,20,-1
EndSplineSet
Substitution2: "'c2sc' Capitals to Small Capitals lookup 11 subtable" b.sc
Substitution2: "'aalt' Access All Alternates lookup 0 subtable" b.sc
EndChar

StartChar: C
Encoding: 67 67 38
Width: 679
GlyphClass: 2
Flags: W
LayerCount: 2
Fore
SplineSet
664 196 m 1,0,1
 611 -10 611 -10 367 -10 c 0,2,3
 212 -10 212 -10 124 80 c 128,-1,4
 36 170 36 170 36 330 c 128,-1,5
 36 490 36 490 124 580 c 128,-1,6
 212 670 212 670 366 670 c 0,7,8
 478 670 478 670 557 622.5 c 128,-1,9
 636 575 636 575 658 479 c 1,10,-1
 481 408 l 1,11,12
 470 469 470 469 445 491.5 c 128,-1,13
 420 514 420 514 372 514 c 0,14,15
 246 514 246 514 246 330 c 128,-1,16
 246 146 246 146 370 146 c 0,17,18
 420 146 420 146 446.5 169.5 c 128,-1,19
 473 193 473 193 482 245 c 1,20,-1
 664 196 l 1,0,1
EndSplineSet
Substitution2: "'c2sc' Capitals to Small Capitals lookup 11 subtable" c.sc
Substitution2: "'aalt' Access All Alternates lookup 0 subtable" c.sc
EndChar

StartChar: D
Encoding: 68 68 39
Width: 717
GlyphClass: 2
Flags: W
LayerCount: 2
Fore
SplineSet
364 660 m 2,0,1
 518 660 518 660 599.5 574.5 c 128,-1,2
 681 489 681 489 681 330 c 128,-1,3
 681 171 681 171 599.5 85.5 c 128,-1,4
 518 0 518 0 364 0 c 2,5,-1
 61 0 l 1,6,-1
 61 660 l 1,7,-1
 364 660 l 2,0,1
339 149 m 2,8,9
 411 149 411 149 441 192.5 c 128,-1,10
 471 236 471 236 471 330 c 128,-1,11
 471 424 471 424 441 467.5 c 128,-1,12
 411 511 411 511 339 511 c 2,13,-1
 265 511 l 1,14,-1
 265 149 l 1,15,-1
 339 149 l 2,8,9
EndSplineSet
Substitution2: "'c2sc' Capitals to Small Capitals lookup 11 subtable" d.sc
Substitution2: "'aalt' Access All Alternates lookup 0 subtable" d.sc
EndChar

StartChar: E
Encoding: 69 69 40
Width: 628
GlyphClass: 2
Flags: W
AnchorPoint: "Anchor-0" 331 0 basechar 0
LayerCount: 2
Fore
SplineSet
265 153 m 1,0,-1
 606 153 l 1,1,-1
 606 0 l 1,2,-1
 61 0 l 1,3,-1
 61 660 l 1,4,-1
 593 660 l 1,5,-1
 593 507 l 1,6,-1
 265 507 l 1,7,-1
 265 400 l 1,8,-1
 527 400 l 1,9,-1
 527 258 l 1,10,-1
 265 258 l 1,11,-1
 265 153 l 1,0,-1
EndSplineSet
Substitution2: "Single Substitution lookup 57 subtable" E.swsh.001
Substitution2: "Single Substitution lookup 56 subtable" E.swsh
AlternateSubs2: "'swsh' Swash lookup 33 subtable" E.swsh E.swsh.001
Substitution2: "'c2sc' Capitals to Small Capitals lookup 11 subtable" e.sc
AlternateSubs2: "'aalt' Access All Alternates lookup 1 subtable" e.sc E.swsh E.swsh.001
EndChar

StartChar: F
Encoding: 70 70 41
Width: 613
GlyphClass: 2
Flags: W
LayerCount: 2
Fore
SplineSet
592 507 m 1,0,-1
 265 507 l 1,1,-1
 265 392 l 1,2,-1
 527 392 l 1,3,-1
 527 239 l 1,4,-1
 265 239 l 1,5,-1
 265 0 l 1,6,-1
 61 0 l 1,7,-1
 61 660 l 1,8,-1
 592 660 l 1,9,-1
 592 507 l 1,0,-1
EndSplineSet
Substitution2: "Single Substitution lookup 56 subtable" F.swsh
Substitution2: "'swsh' Swash lookup 34 subtable" F.swsh
Substitution2: "'c2sc' Capitals to Small Capitals lookup 11 subtable" f.sc
AlternateSubs2: "'aalt' Access All Alternates lookup 1 subtable" f.sc F.swsh
EndChar

StartChar: G
Encoding: 71 71 42
Width: 722
GlyphClass: 2
Flags: W
AnchorPoint: "Anchor-0" 384 0 basechar 0
LayerCount: 2
Fore
SplineSet
363 234 m 1,0,-1
 363 365 l 1,1,-1
 671 365 l 1,2,-1
 671 0 l 1,3,-1
 533 0 l 1,4,-1
 526 76 l 1,5,6
 473 -10 473 -10 343 -10 c 0,7,8
 207 -10 207 -10 121.5 78.5 c 128,-1,9
 36 167 36 167 36 328 c 128,-1,10
 36 489 36 489 125.5 579.5 c 128,-1,11
 215 670 215 670 372 670 c 0,12,13
 490 670 490 670 561 629 c 128,-1,14
 632 588 632 588 672 495 c 1,15,-1
 482 424 l 1,16,17
 463 514 463 514 379 514 c 0,18,19
 246 514 246 514 246 330 c 0,20,21
 246 232 246 232 280 187 c 128,-1,22
 314 142 314 142 385 142 c 0,23,24
 437 142 437 142 468 164 c 128,-1,25
 499 186 499 186 499 229 c 2,26,-1
 499 234 l 1,27,-1
 363 234 l 1,0,-1
EndSplineSet
Substitution2: "'ss04' Style Set 4 lookup 50 subtable" G.ss04
Substitution2: "'salt' Stylistic Alternatives lookup 42 subtable" G.ss04
Substitution2: "'c2sc' Capitals to Small Capitals lookup 11 subtable" g.sc
AlternateSubs2: "'aalt' Access All Alternates lookup 1 subtable" g.sc G.ss04
EndChar

StartChar: H
Encoding: 72 72 43
Width: 745
GlyphClass: 2
Flags: W
LayerCount: 2
Fore
SplineSet
479 660 m 1,0,-1
 684 660 l 1,1,-1
 684 0 l 1,2,-1
 479 0 l 1,3,-1
 479 256 l 1,4,-1
 265 256 l 1,5,-1
 265 0 l 1,6,-1
 61 0 l 1,7,-1
 61 660 l 1,8,-1
 265 660 l 1,9,-1
 265 409 l 1,10,-1
 479 409 l 1,11,-1
 479 660 l 1,0,-1
EndSplineSet
Substitution2: "'sups' Superscript lookup 15 subtable" Hsuperior
Substitution2: "'subs' Subscript lookup 14 subtable" Hinferior
Substitution2: "'sinf' Scientific Inferiors lookup 13 subtable" Hinferior
Substitution2: "'c2sc' Capitals to Small Capitals lookup 11 subtable" h.sc
AlternateSubs2: "'aalt' Access All Alternates lookup 1 subtable" h.sc Hinferior Hsuperior
EndChar

StartChar: I
Encoding: 73 73 44
Width: 326
GlyphClass: 2
Flags: W
LayerCount: 2
Fore
SplineSet
265 660 m 1,0,-1
 265 0 l 1,1,-1
 61 0 l 1,2,-1
 61 660 l 1,3,-1
 265 660 l 1,0,-1
EndSplineSet
Substitution2: "'c2sc' Capitals to Small Capitals lookup 11 subtable" i.sc
Substitution2: "'aalt' Access All Alternates lookup 0 subtable" i.sc
EndChar

StartChar: J
Encoding: 74 74 45
Width: 640
GlyphClass: 2
Flags: W
LayerCount: 2
Fore
SplineSet
593 660 m 1,0,-1
 593 263 l 2,1,2
 593 133 593 133 515 61.5 c 128,-1,3
 437 -10 437 -10 295 -10 c 0,4,5
 140 -10 140 -10 74.5 68.5 c 128,-1,6
 9 147 9 147 32 277 c 1,7,-1
 236 311 l 1,8,9
 224 221 224 221 241 183.5 c 128,-1,10
 258 146 258 146 307 146 c 0,11,12
 350 146 350 146 369 178 c 128,-1,13
 388 210 388 210 388 281 c 2,14,-1
 388 660 l 1,15,-1
 593 660 l 1,0,-1
EndSplineSet
Substitution2: "'c2sc' Capitals to Small Capitals lookup 11 subtable" j.sc
Substitution2: "'aalt' Access All Alternates lookup 0 subtable" j.sc
EndChar

StartChar: K
Encoding: 75 75 46
Width: 706
GlyphClass: 2
Flags: W
AnchorPoint: "Anchor-0" 359 0 basechar 0
LayerCount: 2
Fore
SplineSet
473 0 m 1,0,-1
 332 264 l 1,1,-1
 265 178 l 1,2,-1
 265 0 l 1,3,-1
 61 0 l 1,4,-1
 61 660 l 1,5,-1
 265 660 l 1,6,-1
 265 391 l 1,7,-1
 467 660 l 1,8,-1
 688 660 l 1,9,-1
 477 395 l 1,10,-1
 704 0 l 1,11,-1
 473 0 l 1,0,-1
EndSplineSet
Substitution2: "'c2sc' Capitals to Small Capitals lookup 11 subtable" k.sc
Substitution2: "'aalt' Access All Alternates lookup 0 subtable" k.sc
EndChar

StartChar: L
Encoding: 76 76 47
Width: 604
GlyphClass: 2
Flags: W
AnchorPoint: "Anchor-0" 326 0 basechar 0
LayerCount: 2
Fore
SplineSet
265 153 m 1,0,-1
 579 153 l 1,1,-1
 579 0 l 1,2,-1
 61 0 l 1,3,-1
 61 660 l 1,4,-1
 265 660 l 1,5,-1
 265 153 l 1,0,-1
EndSplineSet
Substitution2: "Single Substitution lookup 57 subtable" L.swsh
Substitution2: "'swsh' Swash lookup 34 subtable" L.swsh
Substitution2: "'c2sc' Capitals to Small Capitals lookup 11 subtable" l.sc
AlternateSubs2: "'aalt' Access All Alternates lookup 1 subtable" l.sc L.swsh
Position2: "Single Positioning lookup 6 subtable" dx=0 dy=0 dh=-152 dv=0
EndChar

StartChar: M
Encoding: 77 77 48
Width: 930
GlyphClass: 2
Flags: W
LayerCount: 2
Fore
SplineSet
870 660 m 1,0,-1
 870 0 l 1,1,-1
 690 0 l 1,2,-1
 690 264 l 1,3,-1
 694 477 l 1,4,-1
 692 477 l 1,5,-1
 547 0 l 1,6,-1
 383 0 l 1,7,-1
 240 477 l 1,8,-1
 237 477 l 1,9,-1
 241 264 l 1,10,-1
 241 0 l 1,11,-1
 61 0 l 1,12,-1
 61 660 l 1,13,-1
 349 660 l 1,14,-1
 438 347 l 1,15,-1
 471 216 l 1,16,-1
 473 216 l 1,17,-1
 506 347 l 1,18,-1
 595 660 l 1,19,-1
 870 660 l 1,0,-1
EndSplineSet
Substitution2: "Single Substitution lookup 56 subtable" M.swsh
AlternateSubs2: "'swsh' Swash lookup 35 subtable" M.swsh M.swsh.001
Substitution2: "'c2sc' Capitals to Small Capitals lookup 11 subtable" m.sc
AlternateSubs2: "'aalt' Access All Alternates lookup 1 subtable" m.sc M.swsh M.swsh.001
EndChar

StartChar: N
Encoding: 78 78 49
Width: 744
GlyphClass: 2
Flags: W
AnchorPoint: "Anchor-0" 378 0 basechar 0
LayerCount: 2
Fore
SplineSet
683 660 m 1,0,-1
 683 0 l 1,1,-1
 459 0 l 1,2,-1
 279 327 l 1,3,-1
 237 417 l 1,4,-1
 235 417 l 1,5,-1
 239 286 l 1,6,-1
 239 0 l 1,7,-1
 61 0 l 1,8,-1
 61 660 l 1,9,-1
 284 660 l 1,10,-1
 464 333 l 1,11,-1
 507 243 l 1,12,-1
 508 243 l 1,13,-1
 504 374 l 1,14,-1
 504 660 l 1,15,-1
 683 660 l 1,0,-1
EndSplineSet
Substitution2: "Single Substitution lookup 57 subtable" N.swsh
Substitution2: "'swsh' Swash lookup 36 subtable" N.swsh
Substitution2: "'c2sc' Capitals to Small Capitals lookup 11 subtable" n.sc
AlternateSubs2: "'aalt' Access All Alternates lookup 1 subtable" n.sc N.swsh
EndChar

StartChar: O
Encoding: 79 79 50
Width: 733
GlyphClass: 2
Flags: W
LayerCount: 2
Fore
SplineSet
367 670 m 128,-1,1
 522 670 522 670 609 580.5 c 128,-1,2
 696 491 696 491 696 330 c 128,-1,3
 696 169 696 169 609 79.5 c 128,-1,4
 522 -10 522 -10 367 -10 c 128,-1,5
 212 -10 212 -10 124 80 c 128,-1,6
 36 170 36 170 36 330 c 128,-1,7
 36 490 36 490 124 580 c 128,-1,0
 212 670 212 670 367 670 c 128,-1,1
367 514 m 0,8,9
 246 514 246 514 246 330 c 128,-1,10
 246 146 246 146 367 146 c 0,11,12
 487 146 487 146 487 330 c 128,-1,13
 487 514 487 514 367 514 c 0,8,9
EndSplineSet
Substitution2: "Single Substitution lookup 55 subtable" ordmasculine
Substitution2: "'nalt' Alternate Annotation Forms lookup 23 subtable" indexring
Substitution2: "'sups' Superscript lookup 15 subtable" Osuperior
Substitution2: "'subs' Subscript lookup 14 subtable" Oinferior
Substitution2: "'sinf' Scientific Inferiors lookup 13 subtable" Oinferior
Substitution2: "'c2sc' Capitals to Small Capitals lookup 11 subtable" o.sc
AlternateSubs2: "'aalt' Access All Alternates lookup 1 subtable" o.sc Oinferior Osuperior ordmasculine indexring
EndChar

StartChar: P
Encoding: 80 80 51
Width: 688
GlyphClass: 2
Flags: W
LayerCount: 2
Fore
SplineSet
389 660 m 2,0,1
 520 660 520 660 588 603 c 128,-1,2
 656 546 656 546 656 435 c 0,3,4
 656 330 656 330 587.5 274.5 c 128,-1,5
 519 219 519 219 389 219 c 2,6,-1
 265 219 l 1,7,-1
 265 0 l 1,8,-1
 61 0 l 1,9,-1
 61 660 l 1,10,-1
 389 660 l 2,0,1
356 363 m 2,11,12
 451 363 451 363 451 437 c 128,-1,13
 451 511 451 511 356 511 c 2,14,-1
 265 511 l 1,15,-1
 265 363 l 1,16,-1
 356 363 l 2,11,12
EndSplineSet
Substitution2: "'c2sc' Capitals to Small Capitals lookup 11 subtable" p.sc
Substitution2: "'aalt' Access All Alternates lookup 0 subtable" p.sc
EndChar

StartChar: Q
Encoding: 81 81 52
Width: 733
GlyphClass: 2
Flags: W
LayerCount: 2
Fore
SplineSet
518 -54 m 0,0,1
 599 -54 599 -54 643 -15 c 1,2,-1
 690 -158 l 1,3,4
 633 -207 633 -207 511 -207 c 0,5,6
 397 -207 397 -207 343.5 -151 c 128,-1,7
 290 -95 290 -95 302 -6 c 1,8,9
 176 13 176 13 106 100.5 c 128,-1,10
 36 188 36 188 36 330 c 0,11,12
 36 490 36 490 124 580 c 128,-1,13
 212 670 212 670 367 670 c 128,-1,14
 522 670 522 670 609 580.5 c 128,-1,15
 696 491 696 491 696 330 c 0,16,17
 696 186 696 186 625 98.5 c 128,-1,18
 554 11 554 11 427 -6 c 1,19,20
 433 -54 433 -54 518 -54 c 0,0,1
246 330 m 128,-1,22
 246 146 246 146 367 146 c 0,23,24
 487 146 487 146 487 330 c 128,-1,25
 487 514 487 514 367 514 c 0,26,21
 246 514 246 514 246 330 c 128,-1,22
EndSplineSet
Substitution2: "'c2sc' Capitals to Small Capitals lookup 11 subtable" q.sc
Substitution2: "'aalt' Access All Alternates lookup 0 subtable" q.sc
EndChar

StartChar: R
Encoding: 82 82 53
Width: 696
GlyphClass: 2
Flags: W
AnchorPoint: "Anchor-0" 363 0 basechar 0
LayerCount: 2
Fore
SplineSet
61 0 m 5,0,-1
 61 660 l 5,1,-1
 399 660 l 6,2,3
 525 660 525 660 591 606.5 c 132,-1,4
 657 553 657 553 657 452 c 4,5,6
 657 320 657 320 531 283 c 5,7,-1
 531 281 l 5,8,9
 613 260 613 260 628 173 c 4,10,11
 636 119 636 119 639.5 97.5 c 132,-1,12
 643 76 643 76 650 49.5 c 132,-1,13
 657 23 657 23 667 5 c 5,14,-1
 667 0 l 5,15,-1
 454 0 l 5,16,17
 447 17 447 17 443.5 38.5 c 132,-1,18
 440 60 440 60 436 93.5 c 132,-1,19
 432 127 432 127 427 154 c 4,20,21
 420 195 420 195 397.5 212 c 132,-1,22
 375 229 375 229 330 229 c 6,23,-1
 261 229 l 5,24,-1
 261 0 l 5,25,-1
 61 0 l 5,0,-1
261 368 m 5,26,-1
 360 368 l 6,27,28
 410 368 410 368 431 384.5 c 132,-1,29
 452 401 452 401 452 439 c 132,-1,30
 452 477 452 477 430.5 494 c 132,-1,31
 409 511 409 511 360 511 c 6,32,-1
 261 511 l 5,33,-1
 261 368 l 5,26,-1
EndSplineSet
Substitution2: "Single Substitution lookup 57 subtable" R.swsh.001
Substitution2: "Single Substitution lookup 56 subtable" R.swsh
Substitution2: "'ss03' Style Set 3 lookup 49 subtable" R.ss03
Substitution2: "'salt' Stylistic Alternatives lookup 42 subtable" R.ss03
AlternateSubs2: "'swsh' Swash lookup 37 subtable" R.swsh R.swsh.001
Substitution2: "'c2sc' Capitals to Small Capitals lookup 11 subtable" r.sc
AlternateSubs2: "'aalt' Access All Alternates lookup 1 subtable" r.sc R.swsh R.swsh.001 R.ss03
EndChar

StartChar: S
Encoding: 83 83 54
Width: 645
GlyphClass: 2
Flags: W
AnchorPoint: "Anchor-0" 342 0 basechar 0
LayerCount: 2
Fore
SplineSet
334 670 m 0,0,1
 429 670 429 670 497.5 644.5 c 128,-1,2
 566 619 566 619 629 558 c 1,3,-1
 529 429 l 1,4,5
 453 516 453 516 339 516 c 0,6,7
 296 516 296 516 272 502 c 128,-1,8
 248 488 248 488 248 465 c 0,9,10
 248 446 248 446 272.5 433.5 c 128,-1,11
 297 421 297 421 361 410 c 0,12,13
 499 387 499 387 559.5 338 c 128,-1,14
 620 289 620 289 620 198 c 0,15,16
 620 100 620 100 539 45 c 128,-1,17
 458 -10 458 -10 332 -10 c 0,18,19
 218 -10 218 -10 148 14.5 c 128,-1,20
 78 39 78 39 18 92 c 1,21,-1
 114 234 l 1,22,23
 188 143 188 143 319 143 c 0,24,25
 410 143 410 143 410 188 c 0,26,27
 410 206 410 206 385 217.5 c 128,-1,28
 360 229 360 229 295 241 c 0,29,30
 156 265 156 265 96.5 313 c 128,-1,31
 37 361 37 361 37 449 c 0,32,33
 37 548 37 548 115.5 609 c 128,-1,34
 194 670 194 670 334 670 c 0,0,1
EndSplineSet
Substitution2: "Single Substitution lookup 57 subtable" S.swsh
Substitution2: "Single Substitution lookup 56 subtable" S.swsh
Substitution2: "'swsh' Swash lookup 38 subtable" S.swsh
Substitution2: "'c2sc' Capitals to Small Capitals lookup 11 subtable" s.sc
AlternateSubs2: "'aalt' Access All Alternates lookup 1 subtable" s.sc S.swsh
EndChar

StartChar: T
Encoding: 84 84 55
Width: 671
GlyphClass: 2
Flags: W
AnchorPoint: "Anchor-0" 325 0 basechar 0
LayerCount: 2
Fore
SplineSet
648 660 m 1,0,-1
 648 507 l 1,1,-1
 438 507 l 1,2,-1
 438 0 l 1,3,-1
 234 0 l 1,4,-1
 234 507 l 1,5,-1
 22 507 l 1,6,-1
 22 660 l 1,7,-1
 648 660 l 1,0,-1
EndSplineSet
Substitution2: "Single Substitution lookup 56 subtable" T.swsh
Substitution2: "'swsh' Swash lookup 38 subtable" T.swsh
Substitution2: "'c2sc' Capitals to Small Capitals lookup 11 subtable" t.sc
AlternateSubs2: "'aalt' Access All Alternates lookup 1 subtable" t.sc T.swsh
EndChar

StartChar: U
Encoding: 85 85 56
Width: 710
GlyphClass: 2
Flags: W
LayerCount: 2
Fore
SplineSet
663 660 m 1,0,-1
 663 277 l 2,1,2
 663 -10 663 -10 355 -10 c 128,-1,3
 47 -10 47 -10 47 277 c 2,4,-1
 47 660 l 1,5,-1
 253 660 l 1,6,-1
 253 266 l 2,7,8
 253 146 253 146 355 146 c 0,9,10
 458 146 458 146 458 266 c 2,11,-1
 458 660 l 1,12,-1
 663 660 l 1,0,-1
EndSplineSet
Substitution2: "'c2sc' Capitals to Small Capitals lookup 11 subtable" u.sc
Substitution2: "'aalt' Access All Alternates lookup 0 subtable" u.sc
EndChar

StartChar: V
Encoding: 86 86 57
Width: 696
GlyphClass: 2
Flags: W
LayerCount: 2
Fore
SplineSet
697 660 m 1,0,-1
 469 0 l 1,1,-1
 227 0 l 1,2,-1
 -1 660 l 1,3,-1
 212 660 l 1,4,-1
 318 281 l 1,5,-1
 352 152 l 1,6,-1
 384 279 l 1,7,-1
 491 660 l 1,8,-1
 697 660 l 1,0,-1
EndSplineSet
Substitution2: "'c2sc' Capitals to Small Capitals lookup 11 subtable" v.sc
Substitution2: "'aalt' Access All Alternates lookup 0 subtable" v.sc
EndChar

StartChar: W
Encoding: 87 87 58
Width: 1010
GlyphClass: 2
Flags: W
LayerCount: 2
Fore
SplineSet
479 282 m 1,0,-1
 415 0 l 1,1,-1
 189 0 l 1,2,-1
 0 660 l 1,3,-1
 220 660 l 1,4,-1
 313 161 l 1,5,-1
 417 660 l 1,6,-1
 597 660 l 1,7,-1
 706 163 l 1,8,-1
 797 660 l 1,9,-1
 1009 660 l 1,10,-1
 820 0 l 1,11,-1
 600 0 l 1,12,-1
 536 282 l 1,13,-1
 509 447 l 1,14,-1
 506 447 l 1,15,-1
 479 282 l 1,0,-1
EndSplineSet
Substitution2: "Single Substitution lookup 56 subtable" W.swsh
Substitution2: "'swsh' Swash lookup 38 subtable" W.swsh
Substitution2: "'c2sc' Capitals to Small Capitals lookup 11 subtable" w.sc
AlternateSubs2: "'aalt' Access All Alternates lookup 1 subtable" w.sc W.swsh
EndChar

StartChar: X
Encoding: 88 88 59
Width: 685
GlyphClass: 2
Flags: W
LayerCount: 2
Fore
SplineSet
686 0 m 1,0,-1
 440 0 l 1,1,-1
 336 193 l 1,2,-1
 238 0 l 1,3,-1
 6 0 l 1,4,-1
 228 330 l 1,5,-1
 17 660 l 1,6,-1
 258 660 l 1,7,-1
 352 472 l 1,8,-1
 447 660 l 1,9,-1
 669 660 l 1,10,-1
 459 335 l 1,11,-1
 686 0 l 1,0,-1
EndSplineSet
Substitution2: "'c2sc' Capitals to Small Capitals lookup 11 subtable" x.sc
Substitution2: "'aalt' Access All Alternates lookup 0 subtable" x.sc
EndChar

StartChar: Y
Encoding: 89 89 60
Width: 687
GlyphClass: 2
Flags: W
LayerCount: 2
Fore
SplineSet
677 660 m 1,0,-1
 446 234 l 1,1,-1
 446 0 l 1,2,-1
 241 0 l 1,3,-1
 241 234 l 1,4,-1
 9 660 l 1,5,-1
 216 660 l 1,6,-1
 296 495 l 1,7,-1
 345 380 l 1,8,-1
 393 495 l 1,9,-1
 474 660 l 1,10,-1
 677 660 l 1,0,-1
EndSplineSet
Substitution2: "'c2sc' Capitals to Small Capitals lookup 11 subtable" y.sc
Substitution2: "'aalt' Access All Alternates lookup 0 subtable" y.sc
EndChar

StartChar: Z
Encoding: 90 90 61
Width: 636
GlyphClass: 2
Flags: W
LayerCount: 2
Fore
SplineSet
252 149 m 1,0,-1
 613 149 l 1,1,-1
 613 0 l 1,2,-1
 31 0 l 1,3,-1
 31 143 l 1,4,-1
 382 511 l 1,5,-1
 36 511 l 1,6,-1
 36 660 l 1,7,-1
 602 660 l 1,8,-1
 602 517 l 1,9,-1
 252 149 l 1,0,-1
EndSplineSet
Substitution2: "'c2sc' Capitals to Small Capitals lookup 11 subtable" z.sc
Substitution2: "'aalt' Access All Alternates lookup 0 subtable" z.sc
EndChar

StartChar: bracketleft
Encoding: 91 91 62
Width: 407
GlyphClass: 2
Flags: W
LayerCount: 2
Fore
SplineSet
383 571 m 1,0,-1
 257 571 l 1,1,-1
 257 -32 l 1,2,-1
 383 -32 l 1,3,-1
 383 -168 l 1,4,-1
 85 -168 l 1,5,-1
 85 706 l 1,6,-1
 383 706 l 1,7,-1
 383 571 l 1,0,-1
EndSplineSet
Substitution2: "'case' Case-Sensitive Forms lookup 29 subtable" bracketleft.case
Substitution2: "'sups' Superscript lookup 15 subtable" bracketleftsuperior
Substitution2: "'subs' Subscript lookup 14 subtable" bracketleftinferior
Substitution2: "'sinf' Scientific Inferiors lookup 13 subtable" bracketleftinferior
AlternateSubs2: "'aalt' Access All Alternates lookup 1 subtable" bracketleftinferior bracketleftsuperior bracketleft.case
EndChar

StartChar: backslash
Encoding: 92 92 63
Width: 479
GlyphClass: 2
Flags: W
LayerCount: 2
Fore
SplineSet
10 706 m 1,0,-1
 198 706 l 1,1,-1
 469 -70 l 1,2,-1
 281 -70 l 1,3,-1
 10 706 l 1,0,-1
EndSplineSet
EndChar

StartChar: bracketright
Encoding: 93 93 64
Width: 407
GlyphClass: 2
Flags: W
LayerCount: 2
Fore
SplineSet
322 706 m 1,0,-1
 322 -168 l 1,1,-1
 23 -168 l 1,2,-1
 23 -32 l 1,3,-1
 149 -32 l 1,4,-1
 149 571 l 1,5,-1
 23 571 l 1,6,-1
 23 706 l 1,7,-1
 322 706 l 1,0,-1
EndSplineSet
Substitution2: "'case' Case-Sensitive Forms lookup 29 subtable" bracketright.case
Substitution2: "'sups' Superscript lookup 15 subtable" bracketrightsuperior
Substitution2: "'subs' Subscript lookup 14 subtable" bracketrightinferior
Substitution2: "'sinf' Scientific Inferiors lookup 13 subtable" bracketrightinferior
AlternateSubs2: "'aalt' Access All Alternates lookup 1 subtable" bracketrightinferior bracketrightsuperior bracketright.case
EndChar

StartChar: asciicircum
Encoding: 94 94 65
Width: 631
GlyphClass: 2
Flags: W
LayerCount: 2
Fore
SplineSet
607 355 m 1,0,-1
 432 355 l 1,1,-1
 315 596 l 1,2,-1
 198 355 l 1,3,-1
 24 355 l 1,4,-1
 231 722 l 1,5,-1
 399 722 l 1,6,-1
 607 355 l 1,0,-1
EndSplineSet
EndChar

StartChar: underscore
Encoding: 95 95 66
Width: 539
GlyphClass: 2
Flags: W
LayerCount: 2
Fore
SplineSet
539 -55 m 1,0,-1
 539 -211 l 1,1,-1
 0 -211 l 1,2,-1
 0 -55 l 1,3,-1
 539 -55 l 1,0,-1
EndSplineSet
EndChar

StartChar: grave
Encoding: 96 96 67
Width: 500
GlyphClass: 2
Flags: W
LayerCount: 2
Fore
SplineSet
262 734 m 1,0,-1
 325 559 l 1,1,-1
 181 559 l 1,2,-1
 79 734 l 1,3,-1
 262 734 l 1,0,-1
EndSplineSet
EndChar

StartChar: a
Encoding: 97 97 68
Width: 585
GlyphClass: 2
Flags: W
LayerCount: 2
Fore
SplineSet
559 111 m 0,0,1
 576 111 576 111 587 115 c 1,2,-1
 571 8 l 1,3,4
 538 -10 538 -10 500 -10 c 0,5,6
 381 -10 381 -10 356 71 c 1,7,8
 310 -10 310 -10 178 -10 c 0,9,10
 102 -10 102 -10 62.5 21.5 c 128,-1,11
 23 53 23 53 23 112 c 0,12,13
 23 175 23 175 68 214 c 128,-1,14
 113 253 113 253 218 274 c 2,15,-1
 324 296 l 1,16,-1
 324 315 l 2,17,18
 324 344 324 344 309 360 c 128,-1,19
 294 376 294 376 267 376 c 0,20,21
 203 376 203 376 195 307 c 1,22,-1
 29 342 l 1,23,24
 40 422 40 422 101.5 466 c 128,-1,25
 163 510 163 510 274 510 c 0,26,27
 524 510 524 510 524 311 c 2,28,-1
 524 151 l 2,29,30
 524 111 524 111 559 111 c 0,0,1
259 108 m 0,31,32
 285 108 285 108 304.5 123.5 c 128,-1,33
 324 139 324 139 324 167 c 2,34,-1
 324 213 l 1,35,-1
 269 199 l 2,36,37
 217 186 217 186 217 147 c 128,-1,38
 217 108 217 108 259 108 c 0,31,32
EndSplineSet
Substitution2: "Single Substitution lookup 55 subtable" ordfeminine
Substitution2: "'smcp' Lowercase to Small Capitals lookup 12 subtable" a.sc
AlternateSubs2: "'aalt' Access All Alternates lookup 1 subtable" a.sc ordfeminine
EndChar

StartChar: b
Encoding: 98 98 69
Width: 628
GlyphClass: 2
Flags: W
LayerCount: 2
Fore
SplineSet
397 510 m 0,0,1
 491 510 491 510 543 441 c 128,-1,2
 595 372 595 372 595 248 c 0,3,4
 595 125 595 125 543.5 57.5 c 128,-1,5
 492 -10 492 -10 398 -10 c 0,6,7
 338 -10 338 -10 295 22.5 c 128,-1,8
 252 55 252 55 232 111 c 1,9,-1
 226 0 l 1,10,-1
 49 0 l 1,11,-1
 49 706 l 1,12,-1
 251 706 l 1,13,-1
 251 416 l 1,14,15
 294 510 294 510 397 510 c 0,0,1
320 134 m 0,16,17
 392 134 392 134 392 250 c 0,18,19
 392 365 392 365 320 365 c 0,20,21
 254 365 254 365 251 261 c 2,22,-1
 251 239 l 2,23,24
 254 134 254 134 320 134 c 0,16,17
EndSplineSet
Substitution2: "'smcp' Lowercase to Small Capitals lookup 12 subtable" b.sc
Substitution2: "'aalt' Access All Alternates lookup 0 subtable" b.sc
EndChar

StartChar: c
Encoding: 99 99 70
Width: 574
GlyphClass: 2
Flags: W
LayerCount: 2
Fore
SplineSet
298 510 m 0,0,1
 425 510 425 510 484.5 463.5 c 128,-1,2
 544 417 544 417 552 347 c 1,3,-1
 365 290 l 1,4,5
 362 371 362 371 308 371 c 0,6,7
 268 371 268 371 249.5 342.5 c 128,-1,8
 231 314 231 314 231 248 c 128,-1,9
 231 182 231 182 250.5 155.5 c 128,-1,10
 270 129 270 129 307 129 c 0,11,12
 361 129 361 129 370 202 c 1,13,-1
 551 145 l 1,14,15
 546 78 546 78 482 34 c 128,-1,16
 418 -10 418 -10 308 -10 c 0,17,18
 172 -10 172 -10 100 57.5 c 128,-1,19
 28 125 28 125 28 250 c 0,20,21
 28 374 28 374 99 442 c 128,-1,22
 170 510 170 510 298 510 c 0,0,1
EndSplineSet
Substitution2: "'smcp' Lowercase to Small Capitals lookup 12 subtable" c.sc
Substitution2: "'aalt' Access All Alternates lookup 0 subtable" c.sc
EndChar

StartChar: d
Encoding: 100 100 71
Width: 628
GlyphClass: 2
Flags: W
LayerCount: 2
Fore
SplineSet
376 706 m 1,0,-1
 578 706 l 1,1,-1
 578 0 l 1,2,-1
 397 0 l 1,3,-1
 390 97 l 1,4,5
 368 48 368 48 327 19 c 128,-1,6
 286 -10 286 -10 230 -10 c 0,7,8
 136 -10 136 -10 84 58 c 128,-1,9
 32 126 32 126 32 248 c 0,10,11
 32 372 32 372 84.5 441 c 128,-1,12
 137 510 137 510 231 510 c 0,13,14
 333 510 333 510 376 415 c 1,15,-1
 376 706 l 1,0,-1
307 134 m 0,16,17
 376 134 376 134 376 246 c 2,18,-1
 376 254 l 2,19,20
 376 365 376 365 307 365 c 0,21,22
 236 365 236 365 236 250 c 0,23,24
 236 134 236 134 307 134 c 0,16,17
EndSplineSet
Substitution2: "'smcp' Lowercase to Small Capitals lookup 12 subtable" d.sc
Substitution2: "'aalt' Access All Alternates lookup 0 subtable" d.sc
EndChar

StartChar: e
Encoding: 101 101 72
Width: 583
GlyphClass: 2
Flags: W
AnchorPoint: "Anchor-0" 296 0 basechar 0
LayerCount: 2
Fore
SplineSet
556 262 m 0,0,1
 556 226 556 226 551 204 c 1,2,-1
 222 204 l 1,3,4
 228 162 228 162 249 145 c 128,-1,5
 270 128 270 128 308 128 c 0,6,7
 369 128 369 128 383 176 c 1,8,-1
 546 129 l 1,9,10
 527 61 527 61 463.5 25.5 c 128,-1,11
 400 -10 400 -10 308 -10 c 0,12,13
 172 -10 172 -10 100 57.5 c 128,-1,14
 28 125 28 125 28 250 c 0,15,16
 28 374 28 374 98.5 442 c 128,-1,17
 169 510 169 510 297 510 c 0,18,19
 422 510 422 510 489 443.5 c 128,-1,20
 556 377 556 377 556 262 c 0,0,1
298 373 m 0,21,22
 265 373 265 373 246.5 354 c 128,-1,23
 228 335 228 335 222 292 c 1,24,-1
 367 292 l 1,25,26
 356 373 356 373 298 373 c 0,21,22
EndSplineSet
Substitution2: "'smcp' Lowercase to Small Capitals lookup 12 subtable" e.sc
Substitution2: "'aalt' Access All Alternates lookup 0 subtable" e.sc
EndChar

StartChar: f
Encoding: 102 102 73
Width: 423
GlyphClass: 2
Flags: W
LayerCount: 2
Fore
SplineSet
271 521 m 2,0,-1
 271 500 l 1,1,-1
 417 500 l 1,2,-1
 417 361 l 1,3,-1
 284 361 l 1,4,-1
 284 0 l 1,5,-1
 82 0 l 1,6,-1
 82 361 l 1,7,-1
 8 361 l 1,8,-1
 8 500 l 1,9,-1
 82 500 l 1,10,-1
 82 532 l 2,11,12
 82 630 82 630 143 676.5 c 128,-1,13
 204 723 204 723 298 723 c 0,14,15
 384 723 384 723 423 692 c 1,16,-1
 407 571 l 1,17,18
 387 587 387 587 350 587 c 0,19,20
 271 587 271 587 271 521 c 2,0,-1
EndSplineSet
Substitution2: "'smcp' Lowercase to Small Capitals lookup 12 subtable" f.sc
Substitution2: "'aalt' Access All Alternates lookup 0 subtable" f.sc
EndChar

StartChar: g
Encoding: 103 103 74
Width: 628
GlyphClass: 2
Flags: W
LayerCount: 2
Fore
SplineSet
397 500 m 1,0,-1
 578 500 l 1,1,-1
 578 40 l 2,2,3
 578 -215 578 -215 289 -215 c 0,4,5
 184 -215 184 -215 121.5 -181 c 128,-1,6
 59 -147 59 -147 46 -61 c 1,7,-1
 240 -14 l 1,8,9
 241 -95 241 -95 307 -95 c 0,10,11
 376 -95 376 -95 376 -8 c 2,12,-1
 376 94 l 1,13,14
 325 19 325 19 230 19 c 0,15,16
 136 19 136 19 84 82.5 c 128,-1,17
 32 146 32 146 32 262 c 0,18,19
 32 380 32 380 84.5 445 c 128,-1,20
 137 510 137 510 231 510 c 0,21,22
 295 510 295 510 335.5 475.5 c 128,-1,23
 376 441 376 441 392 381 c 1,24,-1
 397 500 l 1,0,-1
307 163 m 0,25,26
 376 163 376 163 376 260 c 2,27,-1
 376 268 l 2,28,29
 376 365 376 365 307 365 c 0,30,31
 236 365 236 365 236 264 c 128,-1,32
 236 163 236 163 307 163 c 0,25,26
EndSplineSet
Substitution2: "'ss01' Style Set 1 lookup 47 subtable" g.ss01
Substitution2: "'salt' Stylistic Alternatives lookup 42 subtable" g.ss01
Substitution2: "'smcp' Lowercase to Small Capitals lookup 12 subtable" g.sc
AlternateSubs2: "'aalt' Access All Alternates lookup 1 subtable" g.sc g.ss01
EndChar

StartChar: h
Encoding: 104 104 75
Width: 620
GlyphClass: 2
Flags: W
LayerCount: 2
Fore
SplineSet
408 510 m 0,0,1
 485 510 485 510 528.5 465 c 128,-1,2
 572 420 572 420 572 338 c 2,3,-1
 572 0 l 1,4,-1
 370 0 l 1,5,-1
 370 284 l 2,6,7
 370 359 370 359 319 359 c 0,8,9
 251 359 251 359 251 263 c 2,10,-1
 251 0 l 1,11,-1
 49 0 l 1,12,-1
 49 706 l 1,13,-1
 251 706 l 1,14,-1
 251 403 l 1,15,16
 295 510 295 510 408 510 c 0,0,1
EndSplineSet
Substitution2: "'smcp' Lowercase to Small Capitals lookup 12 subtable" h.sc
Substitution2: "'aalt' Access All Alternates lookup 0 subtable" h.sc
EndChar

StartChar: i
Encoding: 105 105 76
Width: 300
GlyphClass: 2
Flags: W
LayerCount: 2
Fore
SplineSet
150 544 m 128,-1,1
 89 544 89 544 63 565 c 128,-1,2
 37 586 37 586 37 633 c 0,3,4
 37 681 37 681 63 702 c 128,-1,5
 89 723 89 723 150 723 c 128,-1,6
 211 723 211 723 237 702 c 128,-1,7
 263 681 263 681 263 633 c 0,8,9
 263 586 263 586 237 565 c 128,-1,0
 211 544 211 544 150 544 c 128,-1,1
251 500 m 1,10,-1
 251 0 l 1,11,-1
 49 0 l 1,12,-1
 49 500 l 1,13,-1
 251 500 l 1,10,-1
EndSplineSet
Substitution2: "'smcp' Lowercase to Small Capitals lookup 12 subtable" i.sc
Substitution2: "'locl' Localized Forms in Latin lookup 6 subtable" i.loclTRK
Substitution2: "'locl' Localized Forms in Latin lookup 5 subtable" i.loclTRK
Substitution2: "'locl' Localized Forms in Latin lookup 4 subtable" i.loclTRK
Substitution2: "'locl' Localized Forms in Latin lookup 3 subtable" i.loclTRK
Substitution2: "'locl' Localized Forms in Latin lookup 2 subtable" i.loclTRK
Substitution2: "'aalt' Access All Alternates lookup 0 subtable" i.sc
EndChar

StartChar: j
Encoding: 106 106 77
Width: 299
GlyphClass: 2
Flags: W
LayerCount: 2
Fore
SplineSet
149 723 m 0,0,1
 210 723 210 723 236.5 702 c 128,-1,2
 263 681 263 681 263 633 c 0,3,4
 263 586 263 586 236.5 565 c 128,-1,5
 210 544 210 544 149 544 c 0,6,7
 89 544 89 544 63 565 c 128,-1,8
 37 586 37 586 37 633 c 128,-1,9
 37 680 37 680 63 701.5 c 128,-1,10
 89 723 89 723 149 723 c 0,0,1
251 500 m 1,11,-1
 251 -20 l 2,12,13
 251 -123 251 -123 200 -169 c 128,-1,14
 149 -215 149 -215 43 -215 c 0,15,16
 -44 -215 -44 -215 -99 -184 c 1,17,-1
 -73 -61 l 1,18,19
 -53 -78 -53 -78 -17 -78 c 0,20,21
 49 -78 49 -78 49 -2 c 2,22,-1
 49 500 l 1,23,-1
 251 500 l 1,11,-1
EndSplineSet
Substitution2: "'smcp' Lowercase to Small Capitals lookup 12 subtable" j.sc
Substitution2: "'aalt' Access All Alternates lookup 0 subtable" j.sc
EndChar

StartChar: k
Encoding: 107 107 78
Width: 641
GlyphClass: 2
Flags: W
AnchorPoint: "Anchor-0" 333 0 basechar 0
LayerCount: 2
Fore
SplineSet
427 0 m 1,0,-1
 323 189 l 1,1,-1
 251 105 l 1,2,-1
 251 0 l 1,3,-1
 49 0 l 1,4,-1
 49 706 l 1,5,-1
 251 706 l 1,6,-1
 251 307 l 1,7,-1
 418 500 l 1,8,-1
 638 500 l 1,9,-1
 457 304 l 1,10,-1
 649 0 l 1,11,-1
 427 0 l 1,0,-1
EndSplineSet
Substitution2: "'smcp' Lowercase to Small Capitals lookup 12 subtable" k.sc
Substitution2: "'aalt' Access All Alternates lookup 0 subtable" k.sc
EndChar

StartChar: l
Encoding: 108 108 79
Width: 334
GlyphClass: 2
Flags: W
AnchorPoint: "Anchor-0" 181 0 basechar 0
LayerCount: 2
Fore
SplineSet
250 706 m 1,0,-1
 250 187 l 2,1,2
 250 155 250 155 260 141 c 128,-1,3
 270 127 270 127 294 127 c 0,4,5
 316 127 316 127 337 134 c 1,6,-1
 326 19 l 1,7,8
 285 -10 285 -10 211 -10 c 0,9,10
 124 -10 124 -10 86 29 c 128,-1,11
 48 68 48 68 48 157 c 2,12,-1
 48 706 l 1,13,-1
 250 706 l 1,0,-1
EndSplineSet
Substitution2: "'ss02' Style Set 2 lookup 48 subtable" l.ss02
Substitution2: "'salt' Stylistic Alternatives lookup 42 subtable" l.ss02
Substitution2: "'smcp' Lowercase to Small Capitals lookup 12 subtable" l.sc
AlternateSubs2: "'aalt' Access All Alternates lookup 1 subtable" l.sc l.ss02
Position2: "Single Positioning lookup 6 subtable" dx=0 dy=0 dh=-40 dv=0
EndChar

StartChar: m
Encoding: 109 109 80
Width: 937
GlyphClass: 2
Flags: W
LayerCount: 2
Fore
SplineSet
726 510 m 0,0,1
 801 510 801 510 845 465 c 128,-1,2
 889 420 889 420 889 338 c 2,3,-1
 889 0 l 1,4,-1
 687 0 l 1,5,-1
 687 288 l 2,6,7
 687 359 687 359 637 359 c 0,8,9
 570 359 570 359 570 264 c 2,10,-1
 570 0 l 1,11,-1
 368 0 l 1,12,-1
 368 288 l 2,13,14
 368 359 368 359 318 359 c 0,15,16
 287 359 287 359 269 335 c 128,-1,17
 251 311 251 311 251 263 c 2,18,-1
 251 0 l 1,19,-1
 49 0 l 1,20,-1
 49 500 l 1,21,-1
 231 500 l 1,22,-1
 236 397 l 1,23,24
 282 510 282 510 407 510 c 0,25,26
 525 510 525 510 560 409 c 1,27,28
 607 510 607 510 726 510 c 0,0,1
EndSplineSet
Substitution2: "'smcp' Lowercase to Small Capitals lookup 12 subtable" m.sc
Substitution2: "'aalt' Access All Alternates lookup 0 subtable" m.sc
EndChar

StartChar: n
Encoding: 110 110 81
Width: 620
GlyphClass: 2
Flags: W
AnchorPoint: "Anchor-0" 310 0 basechar 0
LayerCount: 2
Fore
SplineSet
408 510 m 0,0,1
 485 510 485 510 528.5 465 c 128,-1,2
 572 420 572 420 572 338 c 2,3,-1
 572 0 l 1,4,-1
 370 0 l 1,5,-1
 370 284 l 2,6,7
 370 359 370 359 319 359 c 0,8,9
 251 359 251 359 251 263 c 2,10,-1
 251 0 l 1,11,-1
 49 0 l 1,12,-1
 49 500 l 1,13,-1
 231 500 l 1,14,-1
 236 397 l 1,15,16
 282 510 282 510 408 510 c 0,0,1
EndSplineSet
Substitution2: "Single Substitution lookup 57 subtable" n.swsh
Substitution2: "'swsh' Swash lookup 38 subtable" n.swsh
Substitution2: "'smcp' Lowercase to Small Capitals lookup 12 subtable" n.sc
AlternateSubs2: "'aalt' Access All Alternates lookup 1 subtable" n.sc n.swsh
EndChar

StartChar: o
Encoding: 111 111 82
Width: 600
GlyphClass: 2
Flags: W
LayerCount: 2
Fore
SplineSet
300 510 m 128,-1,1
 429 510 429 510 500.5 441.5 c 128,-1,2
 572 373 572 373 572 250 c 128,-1,3
 572 127 572 127 500.5 58.5 c 128,-1,4
 429 -10 429 -10 300 -10 c 128,-1,5
 171 -10 171 -10 99.5 58.5 c 128,-1,6
 28 127 28 127 28 250 c 128,-1,7
 28 373 28 373 99.5 441.5 c 128,-1,0
 171 510 171 510 300 510 c 128,-1,1
300 371 m 128,-1,9
 262 371 262 371 246.5 344.5 c 128,-1,10
 231 318 231 318 231 250 c 128,-1,11
 231 182 231 182 246.5 155.5 c 128,-1,12
 262 129 262 129 300 129 c 128,-1,13
 338 129 338 129 353.5 155.5 c 128,-1,14
 369 182 369 182 369 250 c 128,-1,15
 369 318 369 318 353.5 344.5 c 128,-1,8
 338 371 338 371 300 371 c 128,-1,9
EndSplineSet
Substitution2: "Single Substitution lookup 55 subtable" ordmasculine
Substitution2: "'smcp' Lowercase to Small Capitals lookup 12 subtable" o.sc
AlternateSubs2: "'aalt' Access All Alternates lookup 1 subtable" o.sc ordmasculine
EndChar

StartChar: p
Encoding: 112 112 83
Width: 628
GlyphClass: 2
Flags: W
LayerCount: 2
Fore
SplineSet
398 510 m 0,0,1
 492 510 492 510 543.5 442.5 c 128,-1,2
 595 375 595 375 595 252 c 0,3,4
 595 128 595 128 543 59 c 128,-1,5
 491 -10 491 -10 397 -10 c 0,6,7
 294 -10 294 -10 251 84 c 1,8,-1
 251 -210 l 1,9,-1
 49 -210 l 1,10,-1
 49 500 l 1,11,-1
 226 500 l 1,12,-1
 232 389 l 1,13,14
 252 445 252 445 295 477.5 c 128,-1,15
 338 510 338 510 398 510 c 0,0,1
320 135 m 0,16,17
 392 135 392 135 392 250 c 0,18,19
 392 366 392 366 320 366 c 0,20,21
 254 366 254 366 251 261 c 2,22,-1
 251 239 l 2,23,24
 254 135 254 135 320 135 c 0,16,17
EndSplineSet
Substitution2: "'smcp' Lowercase to Small Capitals lookup 12 subtable" p.sc
Substitution2: "'aalt' Access All Alternates lookup 0 subtable" p.sc
EndChar

StartChar: q
Encoding: 113 113 84
Width: 628
GlyphClass: 2
Flags: W
LayerCount: 2
Fore
SplineSet
401 500 m 1,0,-1
 579 500 l 1,1,-1
 579 -210 l 1,2,-1
 377 -210 l 1,3,-1
 377 85 l 1,4,5
 334 -10 334 -10 231 -10 c 0,6,7
 137 -10 137 -10 84.5 59 c 128,-1,8
 32 128 32 128 32 252 c 0,9,10
 32 374 32 374 84 442 c 128,-1,11
 136 510 136 510 230 510 c 0,12,13
 290 510 290 510 332.5 477.5 c 128,-1,14
 375 445 375 445 396 389 c 1,15,-1
 401 500 l 1,0,-1
308 135 m 0,16,17
 372 135 372 135 377 231 c 1,18,-1
 377 269 l 1,19,20
 371 366 371 366 308 366 c 0,21,22
 236 366 236 366 236 250 c 0,23,24
 236 135 236 135 308 135 c 0,16,17
EndSplineSet
Substitution2: "'smcp' Lowercase to Small Capitals lookup 12 subtable" q.sc
Substitution2: "'aalt' Access All Alternates lookup 0 subtable" q.sc
EndChar

StartChar: r
Encoding: 114 114 85
Width: 437
GlyphClass: 2
Flags: W
AnchorPoint: "Anchor-0" 144 0 basechar 0
LayerCount: 2
Fore
SplineSet
385 510 m 0,0,1
 420 510 420 510 438 498 c 1,2,-1
 419 331 l 1,3,4
 399 346 399 346 356 346 c 0,5,6
 309 346 309 346 280 320.5 c 128,-1,7
 251 295 251 295 251 246 c 2,8,-1
 251 0 l 1,9,-1
 49 0 l 1,10,-1
 49 500 l 1,11,-1
 230 500 l 1,12,-1
 236 383 l 1,13,14
 273 510 273 510 385 510 c 0,0,1
EndSplineSet
Substitution2: "Single Substitution lookup 57 subtable" r.swsh
Substitution2: "'swsh' Swash lookup 38 subtable" r.swsh
Substitution2: "'smcp' Lowercase to Small Capitals lookup 12 subtable" r.sc
AlternateSubs2: "'aalt' Access All Alternates lookup 1 subtable" r.sc r.swsh
EndChar

StartChar: s
Encoding: 115 115 86
Width: 535
GlyphClass: 2
Flags: W
AnchorPoint: "Anchor-0" 274 0 basechar 0
LayerCount: 2
Fore
SplineSet
269 -10 m 0,0,1
 92 -10 92 -10 14 71 c 1,2,-1
 109 181 l 1,3,4
 162 117 162 117 257 117 c 0,5,6
 315 117 315 117 315 141 c 0,7,8
 315 162 315 162 233 179 c 0,9,10
 123 200 123 200 74.5 239 c 128,-1,11
 26 278 26 278 26 340 c 0,12,13
 26 408 26 408 92 459 c 128,-1,14
 158 510 158 510 283 510 c 0,15,16
 446 510 446 510 518 427 c 1,17,-1
 423 324 l 1,18,19
 382 383 382 383 291 383 c 0,20,21
 228 383 228 383 228 356 c 0,22,23
 228 336 228 336 304 324 c 0,24,25
 417 307 417 307 467.5 268.5 c 128,-1,26
 518 230 518 230 518 162 c 0,27,28
 518 87 518 87 455 38.5 c 128,-1,29
 392 -10 392 -10 269 -10 c 0,0,1
EndSplineSet
Substitution2: "'hist' Historical Forms lookup 44 subtable" longs
Substitution2: "'smcp' Lowercase to Small Capitals lookup 12 subtable" s.sc
AlternateSubs2: "'aalt' Access All Alternates lookup 1 subtable" s.sc longs
EndChar

StartChar: t
Encoding: 116 116 87
Width: 440
GlyphClass: 2
Flags: W
AnchorPoint: "Anchor-0" 252 0 basechar 0
LayerCount: 2
Fore
SplineSet
420 144 m 1,0,-1
 433 26 l 1,1,2
 379 -10 379 -10 288 -10 c 0,3,4
 188 -10 188 -10 138 30 c 128,-1,5
 88 70 88 70 88 160 c 2,6,-1
 88 361 l 1,7,-1
 7 361 l 1,8,-1
 7 500 l 1,9,-1
 88 500 l 1,10,-1
 88 609 l 1,11,-1
 290 665 l 1,12,-1
 290 500 l 1,13,-1
 427 500 l 1,14,-1
 427 361 l 1,15,-1
 290 361 l 1,16,-1
 290 192 l 2,17,18
 290 157 290 157 305.5 142 c 128,-1,19
 321 127 321 127 353 127 c 0,20,21
 391 127 391 127 420 144 c 1,0,-1
EndSplineSet
Substitution2: "Single Substitution lookup 57 subtable" t.swsh
Substitution2: "'swsh' Swash lookup 38 subtable" t.swsh
Substitution2: "'smcp' Lowercase to Small Capitals lookup 12 subtable" t.sc
AlternateSubs2: "'aalt' Access All Alternates lookup 1 subtable" t.sc t.swsh
EndChar

StartChar: u
Encoding: 117 117 88
Width: 620
GlyphClass: 2
Flags: W
LayerCount: 2
Fore
SplineSet
369 500 m 1,0,-1
 571 500 l 1,1,-1
 571 0 l 1,2,-1
 389 0 l 1,3,-1
 384 99 l 1,4,5
 339 -10 339 -10 213 -10 c 0,6,7
 47 -10 47 -10 47 164 c 2,8,-1
 47 500 l 1,9,-1
 249 500 l 1,10,-1
 249 214 l 2,11,12
 249 174 249 174 261.5 157.5 c 128,-1,13
 274 141 274 141 301 141 c 0,14,15
 369 141 369 141 369 237 c 2,16,-1
 369 500 l 1,0,-1
EndSplineSet
Substitution2: "'smcp' Lowercase to Small Capitals lookup 12 subtable" u.sc
Substitution2: "'aalt' Access All Alternates lookup 0 subtable" u.sc
EndChar

StartChar: v
Encoding: 118 118 89
Width: 575
GlyphClass: 2
Flags: W
LayerCount: 2
Fore
SplineSet
372 500 m 1,0,-1
 581 500 l 1,1,-1
 411 0 l 1,2,-1
 164 0 l 1,3,-1
 -6 500 l 1,4,-1
 205 500 l 1,5,-1
 288 125 l 1,6,-1
 372 500 l 1,0,-1
EndSplineSet
Substitution2: "'smcp' Lowercase to Small Capitals lookup 12 subtable" v.sc
Substitution2: "'aalt' Access All Alternates lookup 0 subtable" v.sc
EndChar

StartChar: w
Encoding: 119 119 90
Width: 926
GlyphClass: 2
Flags: W
LayerCount: 2
Fore
SplineSet
716 500 m 1,0,-1
 926 500 l 1,1,-1
 783 0 l 1,2,-1
 536 0 l 1,3,-1
 462 284 l 1,4,-1
 390 0 l 1,5,-1
 143 0 l 1,6,-1
 0 500 l 1,7,-1
 210 500 l 1,8,-1
 279 139 l 1,9,-1
 364 500 l 1,10,-1
 562 500 l 1,11,-1
 647 139 l 1,12,-1
 716 500 l 1,0,-1
EndSplineSet
Substitution2: "'smcp' Lowercase to Small Capitals lookup 12 subtable" w.sc
Substitution2: "'aalt' Access All Alternates lookup 0 subtable" w.sc
EndChar

StartChar: x
Encoding: 120 120 91
Width: 609
GlyphClass: 2
Flags: W
LayerCount: 2
Fore
SplineSet
612 0 m 1,0,-1
 387 0 l 1,1,-1
 302 164 l 1,2,-1
 218 0 l 1,3,-1
 -4 0 l 1,4,-1
 173 254 l 1,5,-1
 2 500 l 1,6,-1
 227 500 l 1,7,-1
 306 344 l 1,8,-1
 387 500 l 1,9,-1
 608 500 l 1,10,-1
 437 251 l 1,11,-1
 612 0 l 1,0,-1
EndSplineSet
Substitution2: "'smcp' Lowercase to Small Capitals lookup 12 subtable" x.sc
Substitution2: "'aalt' Access All Alternates lookup 0 subtable" x.sc
EndChar

StartChar: y
Encoding: 121 121 92
Width: 583
GlyphClass: 2
Flags: W
LayerCount: 2
Fore
SplineSet
588 500 m 1,0,-1
 425 30 l 2,1,2
 379 -105 379 -105 316.5 -160 c 128,-1,3
 254 -215 254 -215 145 -215 c 0,4,5
 55 -215 55 -215 -1 -180 c 1,6,-1
 38 -50 l 1,7,8
 67 -71 67 -71 126 -71 c 0,9,10
 157 -71 157 -71 174 -63 c 128,-1,11
 191 -55 191 -55 199 -34 c 2,12,-1
 206 -15 l 1,13,-1
 145 127 l 1,14,-1
 -1 500 l 1,15,-1
 221 500 l 1,16,-1
 281 229 l 1,17,-1
 302 118 l 1,18,-1
 326 232 l 1,19,-1
 389 500 l 1,20,-1
 588 500 l 1,0,-1
EndSplineSet
Substitution2: "Single Substitution lookup 57 subtable" y.swsh
Substitution2: "'swsh' Swash lookup 38 subtable" y.swsh
Substitution2: "'smcp' Lowercase to Small Capitals lookup 12 subtable" y.sc
AlternateSubs2: "'aalt' Access All Alternates lookup 1 subtable" y.sc y.swsh
EndChar

StartChar: z
Encoding: 122 122 93
Width: 508
GlyphClass: 2
Flags: W
LayerCount: 2
Fore
SplineSet
29 0 m 1,0,-1
 29 119 l 1,1,-1
 204 316 l 1,2,-1
 254 365 l 1,3,-1
 178 363 l 1,4,-1
 29 363 l 1,5,-1
 29 500 l 1,6,-1
 478 500 l 1,7,-1
 478 381 l 1,8,-1
 304 186 l 1,9,-1
 253 135 l 1,10,-1
 338 137 l 1,11,-1
 487 137 l 1,12,-1
 487 0 l 1,13,-1
 29 0 l 1,0,-1
EndSplineSet
Substitution2: "'smcp' Lowercase to Small Capitals lookup 12 subtable" z.sc
Substitution2: "'aalt' Access All Alternates lookup 0 subtable" z.sc
EndChar

StartChar: braceleft
Encoding: 123 123 94
Width: 445
GlyphClass: 2
Flags: W
LayerCount: 2
Fore
SplineSet
316 23 m 2,0,1
 316 -26 316 -26 342 -47.5 c 128,-1,2
 368 -69 368 -69 426 -69 c 1,3,-1
 424 -192 l 1,4,5
 279 -192 279 -192 218.5 -150.5 c 128,-1,6
 158 -109 158 -109 158 -6 c 2,7,-1
 158 103 l 2,8,9
 158 159 158 159 132.5 183 c 128,-1,10
 107 207 107 207 46 207 c 1,11,-1
 46 331 l 1,12,13
 107 331 107 331 132.5 355 c 128,-1,14
 158 379 158 379 158 435 c 2,15,-1
 158 545 l 2,16,17
 158 648 158 648 218.5 689.5 c 128,-1,18
 279 731 279 731 424 731 c 1,19,-1
 426 607 l 1,20,21
 368 607 368 607 342 585.5 c 128,-1,22
 316 564 316 564 316 516 c 2,23,-1
 316 389 l 2,24,25
 316 298 316 298 223 269 c 1,26,27
 316 240 316 240 316 149 c 2,28,-1
 316 23 l 2,0,1
EndSplineSet
Substitution2: "'case' Case-Sensitive Forms lookup 29 subtable" braceleft.case
Substitution2: "'aalt' Access All Alternates lookup 0 subtable" braceleft.case
EndChar

StartChar: bar
Encoding: 124 124 95
Width: 348
GlyphClass: 2
Flags: W
LayerCount: 2
Fore
SplineSet
263 706 m 1,0,-1
 263 -168 l 1,1,-1
 85 -168 l 1,2,-1
 85 706 l 1,3,-1
 263 706 l 1,0,-1
EndSplineSet
Substitution2: "'case' Case-Sensitive Forms lookup 29 subtable" bar.case
Substitution2: "'aalt' Access All Alternates lookup 0 subtable" bar.case
EndChar

StartChar: braceright
Encoding: 125 125 96
Width: 445
GlyphClass: 2
Flags: W
LayerCount: 2
Fore
SplineSet
287 435 m 2,0,1
 287 379 287 379 312.5 355 c 128,-1,2
 338 331 338 331 399 331 c 1,3,-1
 399 207 l 1,4,5
 338 207 338 207 312.5 183 c 128,-1,6
 287 159 287 159 287 103 c 2,7,-1
 287 -6 l 2,8,9
 287 -109 287 -109 226.5 -150.5 c 128,-1,10
 166 -192 166 -192 21 -192 c 1,11,-1
 18 -69 l 1,12,13
 76 -69 76 -69 102.5 -47.5 c 128,-1,14
 129 -26 129 -26 129 23 c 2,15,-1
 129 149 l 2,16,17
 129 240 129 240 221 269 c 1,18,19
 129 298 129 298 129 389 c 2,20,-1
 129 516 l 2,21,22
 129 564 129 564 102.5 585.5 c 128,-1,23
 76 607 76 607 18 607 c 1,24,-1
 21 731 l 1,25,26
 166 731 166 731 226.5 689.5 c 128,-1,27
 287 648 287 648 287 545 c 2,28,-1
 287 435 l 2,0,1
EndSplineSet
Substitution2: "'case' Case-Sensitive Forms lookup 29 subtable" braceright.case
Substitution2: "'aalt' Access All Alternates lookup 0 subtable" braceright.case
EndChar

StartChar: asciitilde
Encoding: 126 126 97
Width: 617
GlyphClass: 2
Flags: W
LayerCount: 2
Fore
SplineSet
574 439 m 1,0,1
 566 229 566 229 403 229 c 0,2,3
 362 229 362 229 330.5 244 c 128,-1,4
 299 259 299 259 277 274 c 128,-1,5
 255 289 255 289 238 289 c 0,6,7
 202 289 202 289 195 236 c 1,8,-1
 43 236 l 1,9,10
 52 446 52 446 215 446 c 0,11,12
 256 446 256 446 287.5 431 c 128,-1,13
 319 416 319 416 340.5 401 c 128,-1,14
 362 386 362 386 379 386 c 0,15,16
 415 386 415 386 422 439 c 1,17,-1
 574 439 l 1,0,1
EndSplineSet
EndChar

StartChar: exclamdown
Encoding: 161 161 99
Width: 310
GlyphClass: 2
Flags: W
LayerCount: 2
Fore
SplineSet
156 327 m 0,0,1
 105 327 105 327 76.5 350.5 c 128,-1,2
 48 374 48 374 48 417 c 128,-1,3
 48 460 48 460 76.5 484 c 128,-1,4
 105 508 105 508 156 508 c 0,5,6
 206 508 206 508 234.5 484 c 128,-1,7
 263 460 263 460 263 417 c 128,-1,8
 263 374 263 374 234.5 350.5 c 128,-1,9
 206 327 206 327 156 327 c 0,0,1
50 -160 m 1,10,-1
 50 27 l 1,11,-1
 72 282 l 1,12,-1
 239 282 l 1,13,-1
 261 27 l 1,14,-1
 261 -160 l 1,15,-1
 50 -160 l 1,10,-1
EndSplineSet
Substitution2: "'case' Case-Sensitive Forms lookup 29 subtable" exclamdown.case
Substitution2: "'smcp' Lowercase to Small Capitals lookup 12 subtable" exclamdown.sc
Substitution2: "'c2sc' Capitals to Small Capitals lookup 11 subtable" exclamdown.sc
AlternateSubs2: "'aalt' Access All Alternates lookup 1 subtable" exclamdown.sc exclamdown.case
EndChar

StartChar: cent
Encoding: 162 162 100
Width: 604
GlyphClass: 2
Flags: W
LayerCount: 2
Fore
SplineSet
342 113 m 1,0,1
 405 125 405 125 417 196 c 1,2,-1
 560 146 l 1,3,4
 559 80 559 80 502 37.5 c 128,-1,5
 445 -5 445 -5 342 -9 c 1,6,-1
 342 -100 l 1,7,-1
 283 -100 l 1,8,-1
 283 -9 l 1,9,10
 164 0 164 0 101.5 67 c 128,-1,11
 39 134 39 134 39 250 c 0,12,13
 39 367 39 367 103 434.5 c 128,-1,14
 167 502 167 502 283 509 c 1,15,-1
 283 600 l 1,16,-1
 342 600 l 1,17,-1
 342 509 l 1,18,19
 453 503 453 503 505 458.5 c 128,-1,20
 557 414 557 414 560 347 c 1,21,-1
 414 297 l 1,22,23
 405 373 405 373 342 386 c 1,24,-1
 342 113 l 1,0,1
214 248 m 0,25,26
 214 131 214 131 283 115 c 1,27,-1
 283 385 l 1,28,29
 214 369 214 369 214 248 c 0,25,26
EndSplineSet
Substitution2: "'tnum' Tabular Numbers lookup 26 subtable" cent.tf
Substitution2: "'aalt' Access All Alternates lookup 0 subtable" cent.tf
EndChar

StartChar: sterling
Encoding: 163 163 101
Width: 604
GlyphClass: 2
Flags: W
LayerCount: 2
Fore
SplineSet
568 184 m 1,0,1
 573 97 573 97 539 43.5 c 128,-1,2
 505 -10 505 -10 431 -10 c 0,3,4
 367 -10 367 -10 290 47 c 1,5,6
 235 -10 235 -10 153 -10 c 0,7,8
 98 -10 98 -10 62.5 15 c 128,-1,9
 27 40 27 40 27 85 c 0,10,11
 27 131 27 131 64.5 155.5 c 128,-1,12
 102 180 102 180 159 180 c 0,13,14
 188 180 188 180 212 177 c 1,15,16
 209 220 209 220 186 265 c 1,17,-1
 40 265 l 1,18,-1
 40 367 l 1,19,-1
 119 367 l 1,20,21
 84 422 84 422 84 477 c 0,22,23
 84 558 84 558 147 614 c 128,-1,24
 210 670 210 670 325 670 c 0,25,26
 426 670 426 670 480.5 626.5 c 128,-1,27
 535 583 535 583 556 490 c 1,28,-1
 396 430 l 1,29,30
 390 483 390 483 370.5 506 c 128,-1,31
 351 529 351 529 317 529 c 0,32,33
 289 529 289 529 272.5 512.5 c 128,-1,34
 256 496 256 496 256 465 c 0,35,36
 256 437 256 437 293 380 c 0,37,38
 299 372 299 372 301 367 c 1,39,-1
 495 367 l 1,40,-1
 495 265 l 1,41,-1
 347 265 l 1,42,43
 351 242 351 242 351 213 c 0,44,45
 351 172 351 172 339 134 c 1,46,47
 370 123 370 123 396 123 c 0,48,49
 453 123 453 123 449 200 c 1,50,-1
 568 184 l 1,0,1
157 58 m 0,51,52
 196 58 196 58 207 102 c 1,53,54
 182 113 182 113 156 113 c 0,55,56
 120 113 120 113 120 86 c 0,57,58
 120 58 120 58 157 58 c 0,51,52
EndSplineSet
Substitution2: "'tnum' Tabular Numbers lookup 26 subtable" sterling.tf
Substitution2: "'aalt' Access All Alternates lookup 0 subtable" sterling.tf
EndChar

StartChar: currency
Encoding: 164 164 102
Width: 604
GlyphClass: 2
Flags: W
LayerCount: 2
Fore
SplineSet
516 330 m 0,0,1
 516 278 516 278 496 235 c 1,2,-1
 597 149 l 1,3,-1
 482 34 l 1,4,-1
 392 138 l 1,5,6
 350 122 350 122 303 122 c 0,7,8
 253 122 253 122 211 139 c 1,9,-1
 121 34 l 1,10,-1
 6 149 l 1,11,-1
 107 236 l 1,12,13
 88 280 88 280 88 330 c 128,-1,14
 88 380 88 380 107 423 c 1,15,-1
 6 510 l 1,16,-1
 121 624 l 1,17,-1
 210 520 l 1,18,19
 253 537 253 537 303 537 c 0,20,21
 350 537 350 537 393 521 c 1,22,-1
 482 624 l 1,23,-1
 597 510 l 1,24,-1
 497 423 l 1,25,26
 516 379 516 379 516 330 c 0,0,1
303 260 m 0,27,28
 333 260 333 260 351 279 c 128,-1,29
 369 298 369 298 369 330 c 0,30,31
 369 361 369 361 351 380 c 128,-1,32
 333 399 333 399 303 399 c 0,33,34
 272 399 272 399 253.5 380 c 128,-1,35
 235 361 235 361 235 330 c 0,36,37
 235 298 235 298 253.5 279 c 128,-1,38
 272 260 272 260 303 260 c 0,27,28
EndSplineSet
Substitution2: "'tnum' Tabular Numbers lookup 26 subtable" currency.tf
Substitution2: "'aalt' Access All Alternates lookup 0 subtable" currency.tf
EndChar

StartChar: yen
Encoding: 165 165 103
Width: 604
GlyphClass: 2
Flags: W
LayerCount: 2
Fore
SplineSet
414 307 m 1,0,-1
 463 308 l 1,1,-1
 560 308 l 1,2,-1
 560 248 l 1,3,-1
 397 248 l 1,4,-1
 397 185 l 1,5,-1
 560 185 l 1,6,-1
 560 127 l 1,7,-1
 397 127 l 1,8,-1
 397 0 l 1,9,-1
 207 0 l 1,10,-1
 207 127 l 1,11,-1
 44 127 l 1,12,-1
 44 185 l 1,13,-1
 207 185 l 1,14,-1
 207 248 l 1,15,-1
 44 248 l 1,16,-1
 44 308 l 1,17,-1
 141 308 l 1,18,-1
 190 307 l 1,19,-1
 15 660 l 1,20,-1
 199 660 l 1,21,-1
 272 463 l 1,22,-1
 301 359 l 1,23,-1
 303 359 l 1,24,-1
 332 464 l 1,25,-1
 405 660 l 1,26,-1
 589 660 l 1,27,-1
 414 307 l 1,0,-1
EndSplineSet
Substitution2: "'tnum' Tabular Numbers lookup 26 subtable" yen.tf
Substitution2: "'aalt' Access All Alternates lookup 0 subtable" yen.tf
EndChar

StartChar: brokenbar
Encoding: 166 166 104
Width: 279
GlyphClass: 2
Flags: W
LayerCount: 2
Fore
SplineSet
229 706 m 1,0,-1
 229 321 l 1,1,-1
 50 321 l 1,2,-1
 50 706 l 1,3,-1
 229 706 l 1,0,-1
229 218 m 1,4,-1
 229 -168 l 1,5,-1
 50 -168 l 1,6,-1
 50 218 l 1,7,-1
 229 218 l 1,4,-1
EndSplineSet
EndChar

StartChar: section
Encoding: 167 167 105
Width: 631
GlyphClass: 2
Flags: W
LayerCount: 2
Fore
SplineSet
611 280 m 0,0,1
 611 185 611 185 540 131 c 1,2,3
 552 104 552 104 552 68 c 0,4,5
 552 -17 552 -17 488.5 -63.5 c 128,-1,6
 425 -110 425 -110 312 -110 c 0,7,8
 223 -110 223 -110 169 -87.5 c 128,-1,9
 115 -65 115 -65 72 -16 c 1,10,-1
 170 77 l 1,11,12
 196 44 196 44 227.5 29.5 c 128,-1,13
 259 15 259 15 310 15 c 0,14,15
 409 15 409 15 409 49 c 0,16,17
 409 69 409 69 382 80.5 c 128,-1,18
 355 92 355 92 286 98 c 0,19,20
 148 109 148 109 84.5 151 c 128,-1,21
 21 193 21 193 21 269 c 0,22,23
 21 362 21 362 91 417 c 1,24,25
 79 446 79 446 79 481 c 0,26,27
 79 567 79 567 144 618.5 c 128,-1,28
 209 670 209 670 321 670 c 0,29,30
 410 670 410 670 463.5 647.5 c 128,-1,31
 517 625 517 625 559 576 c 1,32,-1
 462 483 l 1,33,34
 435 516 435 516 404 530.5 c 128,-1,35
 373 545 373 545 322 545 c 0,36,37
 274 545 274 545 248.5 532 c 128,-1,38
 223 519 223 519 223 499 c 0,39,40
 223 480 223 480 249.5 469 c 128,-1,41
 276 458 276 458 345 451 c 0,42,43
 483 439 483 439 547 397 c 128,-1,44
 611 355 611 355 611 280 c 0,0,1
157 300 m 128,-1,46
 157 278 157 278 186 265.5 c 128,-1,47
 215 253 215 253 289 246 c 0,48,49
 389 236 389 236 448 212 c 1,50,51
 475 227 475 227 475 249 c 128,-1,52
 475 271 475 271 446 283.5 c 128,-1,53
 417 296 417 296 343 303 c 0,54,55
 242 312 242 312 183 337 c 1,56,45
 157 322 157 322 157 300 c 128,-1,46
EndSplineSet
EndChar

StartChar: dieresis
Encoding: 168 168 106
Width: 500
GlyphClass: 2
Flags: W
LayerCount: 2
Fore
SplineSet
135 716 m 0,0,1
 181 716 181 716 206 693.5 c 128,-1,2
 231 671 231 671 231 631 c 0,3,4
 231 590 231 590 206 568 c 128,-1,5
 181 546 181 546 135 546 c 0,6,7
 91 546 91 546 66 568.5 c 128,-1,8
 41 591 41 591 41 631 c 128,-1,9
 41 671 41 671 66 693.5 c 128,-1,10
 91 716 91 716 135 716 c 0,0,1
364 716 m 0,11,12
 410 716 410 716 435 693.5 c 128,-1,13
 460 671 460 671 460 631 c 0,14,15
 460 590 460 590 435 568 c 128,-1,16
 410 546 410 546 364 546 c 0,17,18
 320 546 320 546 295 568.5 c 128,-1,19
 270 591 270 591 270 631 c 128,-1,20
 270 671 270 671 295 693.5 c 128,-1,21
 320 716 320 716 364 716 c 0,11,12
EndSplineSet
EndChar

StartChar: copyright
Encoding: 169 169 107
Width: 755
GlyphClass: 2
Flags: W
LayerCount: 2
Fore
SplineSet
377 670 m 0,0,1
 534 670 534 670 628.5 577 c 128,-1,2
 723 484 723 484 723 330 c 128,-1,3
 723 176 723 176 628.5 83 c 128,-1,4
 534 -10 534 -10 377 -10 c 0,5,6
 221 -10 221 -10 126.5 83 c 128,-1,7
 32 176 32 176 32 330 c 128,-1,8
 32 484 32 484 126.5 577 c 128,-1,9
 221 670 221 670 377 670 c 0,0,1
377 580 m 0,10,11
 264 580 264 580 196 511.5 c 128,-1,12
 128 443 128 443 128 330 c 128,-1,13
 128 217 128 217 196 148.5 c 128,-1,14
 264 80 264 80 377 80 c 0,15,16
 491 80 491 80 559 148.5 c 128,-1,17
 627 217 627 217 627 330 c 128,-1,18
 627 443 627 443 559 511.5 c 128,-1,19
 491 580 491 580 377 580 c 0,10,11
370 523 m 0,20,21
 522 523 522 523 558 407 c 1,22,-1
 449 353 l 1,23,24
 439 372 439 372 425 379.5 c 128,-1,25
 411 387 411 387 384 387 c 0,26,27
 330 387 330 387 330 330 c 0,28,29
 330 272 330 272 385 272 c 0,30,31
 412 272 412 272 427 279.5 c 128,-1,32
 442 287 442 287 451 309 c 1,33,-1
 555 256 l 1,34,35
 529 190 529 190 489 163 c 128,-1,36
 449 136 449 136 370 136 c 0,37,38
 290 136 290 136 241.5 189 c 128,-1,39
 193 242 193 242 193 330 c 128,-1,40
 193 418 193 418 241.5 470.5 c 128,-1,41
 290 523 290 523 370 523 c 0,20,21
EndSplineSet
EndChar

StartChar: ordfeminine
Encoding: 170 170 108
Width: 458
GlyphClass: 2
Flags: W
LayerCount: 2
Fore
SplineSet
163 495 m 2,0,-1
 238 511 l 1,1,-1
 238 524 l 2,2,3
 238 565 238 565 198 565 c 0,4,5
 155 565 155 565 150 517 c 1,6,-1
 29 540 l 1,7,8
 44 661 44 661 206 661 c 0,9,10
 384 661 384 661 384 519 c 2,11,-1
 384 414 l 2,12,13
 384 384 384 384 410 384 c 0,14,15
 423 384 423 384 429 387 c 1,16,-1
 418 312 l 1,17,18
 395 299 395 299 357 299 c 0,19,20
 280 299 280 299 263 356 c 1,21,22
 226 299 226 299 135 299 c 0,23,24
 25 299 25 299 25 382 c 0,25,26
 25 427 25 427 57 453.5 c 128,-1,27
 89 480 89 480 163 495 c 2,0,-1
195 381 m 0,28,29
 213 381 213 381 225.5 391.5 c 128,-1,30
 238 402 238 402 238 422 c 2,31,-1
 238 457 l 1,32,-1
 205 448 l 2,33,34
 164 437 164 437 164 408 c 0,35,36
 164 381 164 381 195 381 c 0,28,29
37 133 m 1,37,-1
 37 234 l 1,38,-1
 418 234 l 1,39,-1
 418 133 l 1,40,-1
 37 133 l 1,37,-1
EndSplineSet
EndChar

StartChar: guillemotleft
Encoding: 171 171 109
Width: 618
GlyphClass: 2
Flags: W
LayerCount: 2
Fore
SplineSet
323 461 m 1,0,-1
 205 265 l 1,1,-1
 323 69 l 1,2,-1
 154 69 l 1,3,-1
 29 265 l 1,4,-1
 154 461 l 1,5,-1
 323 461 l 1,0,-1
589 461 m 1,6,-1
 471 265 l 1,7,-1
 589 69 l 1,8,-1
 420 69 l 1,9,-1
 295 265 l 1,10,-1
 420 461 l 1,11,-1
 589 461 l 1,6,-1
EndSplineSet
Substitution2: "'case' Case-Sensitive Forms lookup 29 subtable" guillemotleft.case
Substitution2: "'aalt' Access All Alternates lookup 0 subtable" guillemotleft.case
EndChar

StartChar: logicalnot
Encoding: 172 172 110
Width: 604
GlyphClass: 2
Flags: W
LayerCount: 2
Fore
SplineSet
60 397 m 1,0,-1
 544 397 l 1,1,-1
 544 85 l 1,2,-1
 387 85 l 1,3,-1
 387 259 l 1,4,-1
 60 259 l 1,5,-1
 60 397 l 1,0,-1
EndSplineSet
EndChar

StartChar: uni00AD
Encoding: 173 173 111
Width: 534
GlyphClass: 2
Flags: W
LayerCount: 2
Fore
SplineSet
457 349 m 1,0,-1
 457 191 l 1,1,-1
 78 191 l 1,2,-1
 78 349 l 1,3,-1
 457 349 l 1,0,-1
EndSplineSet
EndChar

StartChar: registered
Encoding: 174 174 112
Width: 755
GlyphClass: 2
Flags: W
LayerCount: 2
Fore
SplineSet
377 670 m 0,0,1
 534 670 534 670 628.5 577 c 128,-1,2
 723 484 723 484 723 330 c 128,-1,3
 723 176 723 176 628.5 83 c 128,-1,4
 534 -10 534 -10 377 -10 c 0,5,6
 221 -10 221 -10 126.5 83 c 128,-1,7
 32 176 32 176 32 330 c 128,-1,8
 32 484 32 484 126.5 577 c 128,-1,9
 221 670 221 670 377 670 c 0,0,1
377 80 m 0,10,11
 491 80 491 80 559 148.5 c 128,-1,12
 627 217 627 217 627 330 c 128,-1,13
 627 443 627 443 559 511.5 c 128,-1,14
 491 580 491 580 377 580 c 0,15,16
 264 580 264 580 196 511.5 c 128,-1,17
 128 443 128 443 128 330 c 128,-1,18
 128 217 128 217 196 148.5 c 128,-1,19
 264 80 264 80 377 80 c 0,10,11
541 396 m 0,20,21
 541 315 541 315 466 286 c 1,22,-1
 550 154 l 1,23,-1
 412 154 l 1,24,-1
 356 275 l 1,25,-1
 343 275 l 1,26,-1
 343 154 l 1,27,-1
 230 154 l 1,28,-1
 230 516 l 1,29,-1
 413 516 l 2,30,31
 467 516 467 516 504 482 c 128,-1,32
 541 448 541 448 541 396 c 0,20,21
343 421 m 1,33,-1
 343 352 l 1,34,-1
 382 352 l 2,35,36
 425 352 425 352 425 386 c 0,37,38
 425 421 425 421 382 421 c 2,39,-1
 343 421 l 1,33,-1
EndSplineSet
Substitution2: "'ordn' Ordinals lookup 22 subtable" registeredsuperior
Substitution2: "'sups' Superscript lookup 15 subtable" registeredsuperior
Substitution2: "'aalt' Access All Alternates lookup 0 subtable" registeredsuperior
EndChar

StartChar: macron
Encoding: 175 175 113
Width: 500
GlyphClass: 2
Flags: W
LayerCount: 2
Fore
SplineSet
440 678 m 1,0,-1
 440 559 l 1,1,-1
 60 559 l 1,2,-1
 60 678 l 1,3,-1
 440 678 l 1,0,-1
EndSplineSet
EndChar

StartChar: degree
Encoding: 176 176 114
Width: 508
GlyphClass: 2
Flags: W
LayerCount: 2
Fore
SplineSet
254 283 m 128,-1,1
 155 283 155 283 97.5 335 c 128,-1,2
 40 387 40 387 40 477 c 0,3,4
 40 566 40 566 97.5 618 c 128,-1,5
 155 670 155 670 254 670 c 128,-1,6
 353 670 353 670 410.5 618 c 128,-1,7
 468 566 468 566 468 477 c 0,8,9
 468 387 468 387 410.5 335 c 128,-1,0
 353 283 353 283 254 283 c 128,-1,1
254 407 m 128,-1,11
 285 407 285 407 305 426.5 c 128,-1,12
 325 446 325 446 325 477 c 128,-1,13
 325 508 325 508 305.5 527 c 128,-1,14
 286 546 286 546 254 546 c 128,-1,15
 222 546 222 546 202.5 527 c 128,-1,16
 183 508 183 508 183 477 c 128,-1,17
 183 446 183 446 203 426.5 c 128,-1,10
 223 407 223 407 254 407 c 128,-1,11
EndSplineSet
EndChar

StartChar: plusminus
Encoding: 177 177 115
Width: 604
GlyphClass: 2
Flags: W
LayerCount: 2
Fore
SplineSet
373 493 m 1,0,-1
 556 493 l 1,1,-1
 556 360 l 1,2,-1
 373 360 l 1,3,-1
 373 196 l 1,4,-1
 232 196 l 1,5,-1
 232 360 l 1,6,-1
 48 360 l 1,7,-1
 48 493 l 1,8,-1
 232 493 l 1,9,-1
 232 656 l 1,10,-1
 373 656 l 1,11,-1
 373 493 l 1,0,-1
48 1 m 1,12,-1
 48 129 l 1,13,-1
 556 129 l 1,14,-1
 556 1 l 1,15,-1
 48 1 l 1,12,-1
EndSplineSet
EndChar

StartChar: uni00B2
Encoding: 178 178 116
Width: 402
GlyphClass: 2
Flags: W
LayerCount: 2
Fore
SplineSet
25 333 m 1,0,-1
 25 421 l 1,1,2
 69 441 69 441 113 468 c 0,3,4
 228 538 228 538 228 592 c 0,5,6
 228 627 228 627 192 627 c 0,7,8
 147 627 147 627 150 557 c 1,9,-1
 11 592 l 1,10,11
 12 661 12 661 61 698 c 128,-1,12
 110 735 110 735 195 735 c 0,13,14
 289 735 289 735 333.5 696.5 c 128,-1,15
 378 658 378 658 378 604 c 0,16,17
 378 534 378 534 298 482 c 0,18,19
 265 459 265 459 212 442 c 1,20,-1
 212 440 l 1,21,22
 260 444 260 444 314 444 c 2,23,-1
 382 444 l 1,24,-1
 382 333 l 1,25,-1
 25 333 l 1,0,-1
EndSplineSet
EndChar

StartChar: uni00B3
Encoding: 179 179 117
Width: 386
GlyphClass: 2
Flags: W
LayerCount: 2
Fore
SplineSet
190 735 m 0,0,1
 271 735 271 735 314 705.5 c 128,-1,2
 357 676 357 676 357 620 c 0,3,4
 357 582 357 582 334.5 559 c 128,-1,5
 312 536 312 536 272 533 c 1,6,-1
 272 529 l 1,7,8
 365 529 365 529 365 447 c 0,9,10
 365 392 365 392 320.5 359.5 c 128,-1,11
 276 327 276 327 198 327 c 0,12,13
 118 327 118 327 70.5 351 c 128,-1,14
 23 375 23 375 4 430 c 1,15,-1
 136 477 l 1,16,17
 136 427 136 427 185 427 c 0,18,19
 225 427 225 427 225 462 c 0,20,21
 225 491 225 491 185 491 c 2,22,-1
 163 491 l 1,23,-1
 163 561 l 1,24,-1
 181 561 l 2,25,26
 219 561 219 561 219 595 c 0,27,28
 219 628 219 628 184 628 c 0,29,30
 143 628 143 628 139 580 c 1,31,-1
 12 620 l 1,32,33
 21 679 21 679 69 707 c 128,-1,34
 117 735 117 735 190 735 c 0,0,1
EndSplineSet
EndChar

StartChar: acute
Encoding: 180 180 118
Width: 500
GlyphClass: 2
Flags: W
LayerCount: 2
Fore
SplineSet
238 734 m 1,0,-1
 421 734 l 1,1,-1
 319 559 l 1,2,-1
 175 559 l 1,3,-1
 238 734 l 1,0,-1
EndSplineSet
EndChar

StartChar: uni00B5
Encoding: 181 181 119
Width: 619
GlyphClass: 2
Flags: W
LayerCount: 2
Fore
SplineSet
369 500 m 1,0,-1
 571 500 l 1,1,-1
 571 0 l 1,2,-1
 391 0 l 1,3,-1
 386 95 l 1,4,5
 349 -5 349 -5 250 -10 c 1,6,-1
 250 -210 l 1,7,-1
 48 -210 l 1,8,-1
 48 500 l 1,9,-1
 250 500 l 1,10,-1
 250 214 l 2,11,12
 250 174 250 174 262.5 157.5 c 128,-1,13
 275 141 275 141 302 141 c 0,14,15
 366 141 366 141 369 229 c 2,16,-1
 369 500 l 1,0,-1
EndSplineSet
EndChar

StartChar: paragraph
Encoding: 182 182 120
Width: 777
GlyphClass: 2
Flags: W
LayerCount: 2
Fore
SplineSet
719 660 m 1,0,-1
 719 -100 l 1,1,-1
 557 -100 l 1,2,-1
 557 508 l 1,3,-1
 457 508 l 1,4,-1
 457 -100 l 1,5,-1
 294 -100 l 1,6,-1
 294 227 l 1,7,8
 32 229 32 229 32 443 c 0,9,10
 32 660 32 660 315 660 c 2,11,-1
 719 660 l 1,0,-1
EndSplineSet
Substitution2: "'ornm' Ornaments lookup 40 subtable" uni2761
Substitution2: "'aalt' Access All Alternates lookup 0 subtable" uni2761
EndChar

StartChar: periodcentered
Encoding: 183 183 121
Width: 291
GlyphClass: 2
Flags: W
LayerCount: 2
Fore
SplineSet
146 452 m 128,-1,1
 199 452 199 452 228.5 425.5 c 128,-1,2
 258 399 258 399 258 353 c 0,3,4
 258 306 258 306 228.5 279.5 c 128,-1,5
 199 253 199 253 146 253 c 128,-1,6
 93 253 93 253 63 279.5 c 128,-1,7
 33 306 33 306 33 353 c 128,-1,8
 33 400 33 400 63 426 c 128,-1,0
 93 452 93 452 146 452 c 128,-1,1
EndSplineSet
Substitution2: "Single Substitution lookup 55 subtable" periodcentered.loclCAT.sc
Substitution2: "Single Substitution lookup 54 subtable" periodcentered.loclCAT.case
Substitution2: "Single Substitution lookup 53 subtable" periodcentered.loclCAT
Substitution2: "'case' Case-Sensitive Forms lookup 29 subtable" periodcentered.case
Substitution2: "'smcp' Lowercase to Small Capitals lookup 12 subtable" periodcentered.sc
Substitution2: "'c2sc' Capitals to Small Capitals lookup 11 subtable" periodcentered.sc
AlternateSubs2: "'aalt' Access All Alternates lookup 1 subtable" periodcentered.sc periodcentered.case
Position2: "Single Positioning lookup 6 subtable" dx=0 dy=0 dh=-30 dv=0
EndChar

StartChar: cedilla
Encoding: 184 184 122
Width: 500
GlyphClass: 2
Flags: W
LayerCount: 2
Fore
SplineSet
175 2 m 1,0,-1
 215 40 l 1,1,2
 303 31 303 31 350.5 -5 c 128,-1,3
 398 -41 398 -41 398 -93 c 0,4,5
 398 -155 398 -155 356 -185 c 128,-1,6
 314 -215 314 -215 245 -215 c 0,7,8
 162 -215 162 -215 116 -173 c 1,9,-1
 158 -85 l 1,10,11
 187 -114 187 -114 231 -114 c 0,12,13
 256 -114 256 -114 271 -101.5 c 128,-1,14
 286 -89 286 -89 286 -67 c 0,15,16
 286 -42 286 -42 262 -25.5 c 128,-1,17
 238 -9 238 -9 175 2 c 1,0,-1
EndSplineSet
EndChar

StartChar: uni00B9
Encoding: 185 185 123
Width: 318
GlyphClass: 2
Flags: W
LayerCount: 2
Fore
SplineSet
160 730 m 1,0,-1
 280 730 l 1,1,-1
 280 333 l 1,2,-1
 139 333 l 1,3,-1
 139 537 l 2,4,5
 139 574 139 574 142 599 c 1,6,7
 80 556 80 556 22 553 c 1,8,-1
 22 669 l 1,9,10
 57 673 57 673 100.5 692 c 128,-1,11
 144 711 144 711 160 730 c 1,0,-1
EndSplineSet
EndChar

StartChar: ordmasculine
Encoding: 186 186 124
Width: 445
GlyphClass: 2
Flags: W
LayerCount: 2
Fore
SplineSet
222 299 m 128,-1,1
 133 299 133 299 82.5 347 c 128,-1,2
 32 395 32 395 32 480 c 128,-1,3
 32 565 32 565 82.5 613 c 128,-1,4
 133 661 133 661 222 661 c 128,-1,5
 311 661 311 661 362 613 c 128,-1,6
 413 565 413 565 413 480 c 128,-1,7
 413 395 413 395 362 347 c 128,-1,0
 311 299 311 299 222 299 c 128,-1,1
222 390 m 0,8,9
 246 390 246 390 256 410.5 c 128,-1,10
 266 431 266 431 266 480 c 0,11,12
 266 528 266 528 256 549 c 128,-1,13
 246 570 246 570 222 570 c 0,14,15
 199 570 199 570 188.5 549 c 128,-1,16
 178 528 178 528 178 480 c 128,-1,17
 178 432 178 432 188.5 411 c 128,-1,18
 199 390 199 390 222 390 c 0,8,9
36 133 m 1,19,-1
 36 234 l 1,20,-1
 409 234 l 1,21,-1
 409 133 l 1,22,-1
 36 133 l 1,19,-1
EndSplineSet
EndChar

StartChar: guillemotright
Encoding: 187 187 125
Width: 618
GlyphClass: 2
Flags: W
LayerCount: 2
Fore
SplineSet
29 461 m 1,0,-1
 198 461 l 1,1,-1
 323 265 l 1,2,-1
 198 69 l 1,3,-1
 29 69 l 1,4,-1
 147 265 l 1,5,-1
 29 461 l 1,0,-1
295 461 m 1,6,-1
 464 461 l 1,7,-1
 589 265 l 1,8,-1
 464 69 l 1,9,-1
 295 69 l 1,10,-1
 413 265 l 1,11,-1
 295 461 l 1,6,-1
EndSplineSet
Substitution2: "'case' Case-Sensitive Forms lookup 29 subtable" guillemotright.case
Substitution2: "'aalt' Access All Alternates lookup 0 subtable" guillemotright.case
EndChar

StartChar: onequarter
Encoding: 188 188 126
Width: 919
GlyphClass: 2
Flags: W
LayerCount: 2
Fore
SplineSet
139 268 m 1,0,-1
 139 472 l 2,1,2
 139 496 139 496 142 534 c 1,3,4
 80 491 80 491 22 488 c 1,5,-1
 22 604 l 1,6,7
 57 608 57 608 100.5 627 c 128,-1,8
 144 646 144 646 160 665 c 1,9,-1
 280 665 l 1,10,-1
 280 268 l 1,11,-1
 139 268 l 1,0,-1
623 661 m 1,12,-1
 757 661 l 1,13,-1
 281 0 l 1,14,-1
 147 0 l 1,15,-1
 623 661 l 1,12,-1
849 169 m 1,16,-1
 905 169 l 1,17,-1
 905 75 l 1,18,-1
 849 75 l 1,19,-1
 849 -4 l 1,20,-1
 724 -4 l 1,21,-1
 724 75 l 1,22,-1
 522 75 l 1,23,-1
 522 139 l 1,24,-1
 677 394 l 1,25,-1
 849 394 l 1,26,-1
 849 169 l 1,16,-1
724 233 m 2,27,28
 724 240 724 240 727 315 c 1,29,-1
 724 315 l 1,30,31
 712 282 712 282 694 253 c 2,32,-1
 642 169 l 1,33,-1
 724 169 l 1,34,-1
 724 233 l 2,27,28
EndSplineSet
EndChar

StartChar: onehalf
Encoding: 189 189 127
Width: 988
GlyphClass: 2
Flags: W
LayerCount: 2
Fore
SplineSet
139 268 m 1,0,-1
 139 472 l 2,1,2
 139 496 139 496 142 534 c 1,3,4
 80 491 80 491 22 488 c 1,5,-1
 22 604 l 1,6,7
 57 608 57 608 100.5 627 c 128,-1,8
 144 646 144 646 160 665 c 1,9,-1
 280 665 l 1,10,-1
 280 268 l 1,11,-1
 139 268 l 1,0,-1
623 661 m 1,12,-1
 757 661 l 1,13,-1
 281 0 l 1,14,-1
 147 0 l 1,15,-1
 623 661 l 1,12,-1
900 107 m 2,16,-1
 968 107 l 1,17,-1
 968 -4 l 1,18,-1
 611 -4 l 1,19,-1
 611 84 l 1,20,21
 655 104 655 104 699 131 c 0,22,23
 814 201 814 201 814 255 c 0,24,25
 814 290 814 290 778 290 c 0,26,27
 733 290 733 290 736 220 c 1,28,-1
 597 255 l 1,29,30
 598 324 598 324 647 361 c 128,-1,31
 696 398 696 398 781 398 c 0,32,33
 875 398 875 398 919.5 359.5 c 128,-1,34
 964 321 964 321 964 267 c 0,35,36
 964 197 964 197 884 145 c 0,37,38
 851 122 851 122 798 105 c 1,39,-1
 798 103 l 1,40,41
 846 107 846 107 900 107 c 2,16,-1
EndSplineSet
EndChar

StartChar: threequarters
Encoding: 190 190 128
Width: 987
GlyphClass: 2
Flags: W
LayerCount: 2
Fore
SplineSet
190 670 m 0,0,1
 271 670 271 670 314 640.5 c 128,-1,2
 357 611 357 611 357 555 c 0,3,4
 357 517 357 517 334.5 494 c 128,-1,5
 312 471 312 471 272 468 c 1,6,-1
 272 464 l 1,7,8
 365 464 365 464 365 382 c 0,9,10
 365 327 365 327 320.5 294.5 c 128,-1,11
 276 262 276 262 198 262 c 0,12,13
 118 262 118 262 70.5 286 c 128,-1,14
 23 310 23 310 4 365 c 1,15,-1
 136 412 l 1,16,17
 136 362 136 362 185 362 c 0,18,19
 225 362 225 362 225 397 c 0,20,21
 225 426 225 426 185 426 c 2,22,-1
 163 426 l 1,23,-1
 163 496 l 1,24,-1
 181 496 l 2,25,26
 219 496 219 496 219 530 c 0,27,28
 219 563 219 563 184 563 c 0,29,30
 143 563 143 563 139 515 c 1,31,-1
 12 555 l 1,32,33
 21 614 21 614 69 642 c 128,-1,34
 117 670 117 670 190 670 c 0,0,1
215 0 m 1,35,-1
 691 661 l 1,36,-1
 825 661 l 1,37,-1
 349 0 l 1,38,-1
 215 0 l 1,35,-1
972 169 m 1,39,-1
 972 75 l 1,40,-1
 916 75 l 1,41,-1
 916 -4 l 1,42,-1
 791 -4 l 1,43,-1
 791 75 l 1,44,-1
 589 75 l 1,45,-1
 589 139 l 1,46,-1
 744 394 l 1,47,-1
 916 394 l 1,48,-1
 916 169 l 1,49,-1
 972 169 l 1,39,-1
709 169 m 1,50,-1
 791 169 l 1,51,-1
 791 233 l 2,52,53
 791 240 791 240 794 315 c 1,54,-1
 791 315 l 1,55,56
 779 282 779 282 761 253 c 2,57,-1
 709 169 l 1,50,-1
EndSplineSet
EndChar

StartChar: questiondown
Encoding: 191 191 129
Width: 630
GlyphClass: 2
Flags: W
LayerCount: 2
Fore
SplineSet
326 327 m 128,-1,1
 275 327 275 327 247 351 c 128,-1,2
 219 375 219 375 219 418 c 128,-1,3
 219 461 219 461 247 485 c 128,-1,4
 275 509 275 509 326 509 c 128,-1,5
 377 509 377 509 405.5 485 c 128,-1,6
 434 461 434 461 434 418 c 128,-1,7
 434 375 434 375 405.5 351 c 128,-1,0
 377 327 377 327 326 327 c 128,-1,1
310 -169 m 0,8,9
 184 -169 184 -169 111.5 -124 c 128,-1,10
 39 -79 39 -79 39 16 c 0,11,12
 39 185 39 185 230 206 c 1,13,-1
 244 285 l 1,14,-1
 412 285 l 1,15,-1
 425 131 l 1,16,17
 258 123 258 123 258 47 c 0,18,19
 258 -9 258 -9 323 -9 c 0,20,21
 399 -9 399 -9 403 79 c 1,22,-1
 600 9 l 1,23,24
 591 -72 591 -72 521 -120.5 c 128,-1,25
 451 -169 451 -169 310 -169 c 0,8,9
EndSplineSet
Substitution2: "'case' Case-Sensitive Forms lookup 29 subtable" questiondown.case
Substitution2: "'smcp' Lowercase to Small Capitals lookup 12 subtable" questiondown.sc
Substitution2: "'c2sc' Capitals to Small Capitals lookup 11 subtable" questiondown.sc
AlternateSubs2: "'aalt' Access All Alternates lookup 1 subtable" questiondown.sc questiondown.case
EndChar

StartChar: Agrave
Encoding: 192 192 130
Width: 684
GlyphClass: 2
Flags: W
LayerCount: 2
Fore
SplineSet
405 715 m 1,0,-1
 261 715 l 1,1,-1
 167 879 l 1,2,-1
 352 879 l 1,3,-1
 405 715 l 1,0,-1
477 0 m 1,4,-1
 440 137 l 1,5,-1
 239 137 l 1,6,-1
 201 0 l 1,7,-1
 -3 0 l 1,8,-1
 219 660 l 1,9,-1
 464 660 l 1,10,-1
 687 0 l 1,11,-1
 477 0 l 1,4,-1
275 269 m 1,12,-1
 405 269 l 1,13,-1
 369 400 l 1,14,-1
 341 508 l 1,15,-1
 339 508 l 1,16,-1
 312 401 l 1,17,-1
 275 269 l 1,12,-1
EndSplineSet
Substitution2: "Single Substitution lookup 56 subtable" Agrave.swsh
Substitution2: "'swsh' Swash lookup 32 subtable" Agrave.swsh
Substitution2: "'c2sc' Capitals to Small Capitals lookup 11 subtable" agrave.sc
AlternateSubs2: "'aalt' Access All Alternates lookup 1 subtable" agrave.sc Agrave.swsh
EndChar

StartChar: Aacute
Encoding: 193 193 131
Width: 684
GlyphClass: 2
Flags: W
LayerCount: 2
Fore
SplineSet
498 879 m 1,0,-1
 404 715 l 1,1,-1
 260 715 l 1,2,-1
 313 879 l 1,3,-1
 498 879 l 1,0,-1
477 0 m 1,4,-1
 440 137 l 1,5,-1
 239 137 l 1,6,-1
 201 0 l 1,7,-1
 -3 0 l 1,8,-1
 219 660 l 1,9,-1
 464 660 l 1,10,-1
 687 0 l 1,11,-1
 477 0 l 1,4,-1
275 269 m 1,12,-1
 405 269 l 1,13,-1
 369 400 l 1,14,-1
 341 508 l 1,15,-1
 339 508 l 1,16,-1
 312 401 l 1,17,-1
 275 269 l 1,12,-1
EndSplineSet
Substitution2: "Single Substitution lookup 56 subtable" Aacute.swsh
Substitution2: "'swsh' Swash lookup 32 subtable" Aacute.swsh
Substitution2: "'c2sc' Capitals to Small Capitals lookup 11 subtable" aacute.sc
AlternateSubs2: "'aalt' Access All Alternates lookup 1 subtable" aacute.sc Aacute.swsh
EndChar

StartChar: Acircumflex
Encoding: 194 194 132
Width: 684
GlyphClass: 2
Flags: W
LayerCount: 2
Fore
SplineSet
341 791 m 1,0,-1
 281 714 l 1,1,-1
 136 714 l 1,2,-1
 246 881 l 1,3,-1
 436 881 l 1,4,-1
 546 714 l 1,5,-1
 401 714 l 1,6,-1
 341 791 l 1,0,-1
477 0 m 1,7,-1
 440 137 l 1,8,-1
 239 137 l 1,9,-1
 201 0 l 1,10,-1
 -3 0 l 1,11,-1
 219 660 l 1,12,-1
 464 660 l 1,13,-1
 687 0 l 1,14,-1
 477 0 l 1,7,-1
275 269 m 1,15,-1
 405 269 l 1,16,-1
 369 400 l 1,17,-1
 341 508 l 1,18,-1
 339 508 l 1,19,-1
 312 401 l 1,20,-1
 275 269 l 1,15,-1
EndSplineSet
Substitution2: "Single Substitution lookup 56 subtable" Acircumflex.swsh
Substitution2: "'swsh' Swash lookup 32 subtable" Acircumflex.swsh
Substitution2: "'c2sc' Capitals to Small Capitals lookup 11 subtable" acircumflex.sc
AlternateSubs2: "'aalt' Access All Alternates lookup 1 subtable" acircumflex.sc Acircumflex.swsh
EndChar

StartChar: Atilde
Encoding: 195 195 133
Width: 684
GlyphClass: 2
Flags: W
LayerCount: 2
Fore
SplineSet
278 764 m 0,0,1
 250 764 250 764 244 712 c 1,2,-1
 136 712 l 1,3,4
 142 880 142 880 276 880 c 0,5,6
 302 880 302 880 323.5 871.5 c 128,-1,7
 345 863 345 863 355.5 853.5 c 128,-1,8
 366 844 366 844 379 835.5 c 128,-1,9
 392 827 392 827 404 827 c 0,10,11
 432 827 432 827 438 879 c 1,12,-1
 546 879 l 1,13,14
 540 710 540 710 406 710 c 0,15,16
 372 710 372 710 348.5 723.5 c 128,-1,17
 325 737 325 737 309 750.5 c 128,-1,18
 293 764 293 764 278 764 c 0,0,1
477 0 m 1,19,-1
 440 137 l 1,20,-1
 239 137 l 1,21,-1
 201 0 l 1,22,-1
 -3 0 l 1,23,-1
 219 660 l 1,24,-1
 464 660 l 1,25,-1
 687 0 l 1,26,-1
 477 0 l 1,19,-1
275 269 m 1,27,-1
 405 269 l 1,28,-1
 369 400 l 1,29,-1
 341 508 l 1,30,-1
 339 508 l 1,31,-1
 312 401 l 1,32,-1
 275 269 l 1,27,-1
EndSplineSet
Substitution2: "Single Substitution lookup 56 subtable" Atilde.swsh
Substitution2: "'swsh' Swash lookup 32 subtable" Atilde.swsh
Substitution2: "'c2sc' Capitals to Small Capitals lookup 11 subtable" atilde.sc
AlternateSubs2: "'aalt' Access All Alternates lookup 1 subtable" atilde.sc Atilde.swsh
EndChar

StartChar: Adieresis
Encoding: 196 196 134
Width: 684
GlyphClass: 2
Flags: W
LayerCount: 2
Fore
SplineSet
226 706 m 0,0,1
 182 706 182 706 157 728.5 c 128,-1,2
 132 751 132 751 132 791 c 128,-1,3
 132 831 132 831 157 853.5 c 128,-1,4
 182 876 182 876 226 876 c 0,5,6
 272 876 272 876 297 853.5 c 128,-1,7
 322 831 322 831 322 791 c 0,8,9
 322 750 322 750 297 728 c 128,-1,10
 272 706 272 706 226 706 c 0,0,1
455 706 m 0,11,12
 411 706 411 706 386 728.5 c 128,-1,13
 361 751 361 751 361 791 c 128,-1,14
 361 831 361 831 386 853.5 c 128,-1,15
 411 876 411 876 455 876 c 0,16,17
 501 876 501 876 526 853.5 c 128,-1,18
 551 831 551 831 551 791 c 0,19,20
 551 750 551 750 526 728 c 128,-1,21
 501 706 501 706 455 706 c 0,11,12
477 0 m 1,22,-1
 440 137 l 1,23,-1
 239 137 l 1,24,-1
 201 0 l 1,25,-1
 -3 0 l 1,26,-1
 219 660 l 1,27,-1
 464 660 l 1,28,-1
 687 0 l 1,29,-1
 477 0 l 1,22,-1
275 269 m 1,30,-1
 405 269 l 1,31,-1
 369 400 l 1,32,-1
 341 508 l 1,33,-1
 339 508 l 1,34,-1
 312 401 l 1,35,-1
 275 269 l 1,30,-1
EndSplineSet
Substitution2: "Single Substitution lookup 56 subtable" Adieresis.swsh
Substitution2: "'titl' Titling lookup 41 subtable" Adieresis.titl
Substitution2: "'swsh' Swash lookup 32 subtable" Adieresis.swsh
Substitution2: "'c2sc' Capitals to Small Capitals lookup 11 subtable" adieresis.sc
AlternateSubs2: "'aalt' Access All Alternates lookup 1 subtable" adieresis.sc Adieresis.swsh Adieresis.titl
EndChar

StartChar: Aring
Encoding: 197 197 135
Width: 684
GlyphClass: 2
Flags: W
LayerCount: 2
Fore
SplineSet
477 0 m 1,0,-1
 440 137 l 1,1,-1
 239 137 l 1,2,-1
 201 0 l 1,3,-1
 -3 0 l 1,4,-1
 221 643 l 1,5,6
 184 674 184 674 184 731 c 0,7,8
 184 792 184 792 226 828 c 128,-1,9
 268 864 268 864 342 864 c 0,10,11
 417 864 417 864 459 828 c 128,-1,12
 501 792 501 792 501 731 c 0,13,14
 501 677 501 677 462 643 c 1,15,-1
 687 0 l 1,16,-1
 477 0 l 1,0,-1
342 775 m 128,-1,18
 317 775 317 775 302.5 761 c 128,-1,19
 288 747 288 747 288 723 c 0,20,21
 288 700 288 700 302.5 686 c 128,-1,22
 317 672 317 672 342 672 c 128,-1,23
 367 672 367 672 381.5 686 c 128,-1,24
 396 700 396 700 396 723 c 0,25,26
 396 747 396 747 381.5 761 c 128,-1,17
 367 775 367 775 342 775 c 128,-1,18
275 269 m 1,27,-1
 405 269 l 1,28,-1
 369 400 l 1,29,-1
 342 508 l 1,30,-1
 338 508 l 1,31,-1
 312 401 l 1,32,-1
 275 269 l 1,27,-1
EndSplineSet
Substitution2: "'c2sc' Capitals to Small Capitals lookup 11 subtable" aring.sc
Substitution2: "'aalt' Access All Alternates lookup 0 subtable" aring.sc
EndChar

StartChar: AE
Encoding: 198 198 136
Width: 913
GlyphClass: 2
Flags: W
LayerCount: 2
Fore
SplineSet
599 145 m 1,0,-1
 891 145 l 1,1,-1
 891 0 l 1,2,-1
 410 0 l 1,3,-1
 410 190 l 1,4,-1
 255 190 l 1,5,-1
 196 0 l 1,6,-1
 -7 0 l 1,7,-1
 239 660 l 1,8,-1
 878 660 l 1,9,-1
 878 515 l 1,10,-1
 599 515 l 1,11,-1
 599 397 l 1,12,-1
 813 397 l 1,13,-1
 813 262 l 1,14,-1
 599 262 l 1,15,-1
 599 145 l 1,0,-1
293 315 m 1,16,-1
 410 315 l 1,17,-1
 410 522 l 1,18,-1
 357 522 l 1,19,-1
 293 315 l 1,16,-1
EndSplineSet
Substitution2: "'c2sc' Capitals to Small Capitals lookup 11 subtable" ae.sc
Substitution2: "'aalt' Access All Alternates lookup 0 subtable" ae.sc
EndChar

StartChar: Ccedilla
Encoding: 199 199 137
Width: 679
GlyphClass: 2
Flags: W
LayerCount: 2
Fore
SplineSet
664 196 m 1,0,1
 622 30 622 30 453 -2 c 1,2,3
 504 -38 504 -38 504 -93 c 0,4,5
 504 -155 504 -155 462 -185 c 128,-1,6
 420 -215 420 -215 351 -215 c 0,7,8
 268 -215 268 -215 222 -173 c 1,9,-1
 264 -85 l 1,10,11
 293 -114 293 -114 337 -114 c 0,12,13
 362 -114 362 -114 377 -101.5 c 128,-1,14
 392 -89 392 -89 392 -67 c 0,15,16
 392 -27 392 -27 328 -8 c 1,17,18
 191 3 191 3 113.5 91.5 c 128,-1,19
 36 180 36 180 36 330 c 0,20,21
 36 490 36 490 124 580 c 128,-1,22
 212 670 212 670 366 670 c 0,23,24
 478 670 478 670 557 622.5 c 128,-1,25
 636 575 636 575 658 479 c 1,26,-1
 481 408 l 1,27,28
 470 469 470 469 445 491.5 c 128,-1,29
 420 514 420 514 372 514 c 0,30,31
 246 514 246 514 246 330 c 128,-1,32
 246 146 246 146 370 146 c 0,33,34
 420 146 420 146 446.5 169.5 c 128,-1,35
 473 193 473 193 482 245 c 1,36,-1
 664 196 l 1,0,1
EndSplineSet
Substitution2: "'c2sc' Capitals to Small Capitals lookup 11 subtable" ccedilla.sc
Substitution2: "'aalt' Access All Alternates lookup 0 subtable" ccedilla.sc
EndChar

StartChar: Egrave
Encoding: 200 200 138
Width: 628
GlyphClass: 2
Flags: W
AnchorPoint: "Anchor-0" 331 0 basechar 0
LayerCount: 2
Fore
SplineSet
409 715 m 1,0,-1
 265 715 l 1,1,-1
 171 879 l 1,2,-1
 356 879 l 1,3,-1
 409 715 l 1,0,-1
265 153 m 1,4,-1
 606 153 l 1,5,-1
 606 0 l 1,6,-1
 61 0 l 1,7,-1
 61 660 l 1,8,-1
 593 660 l 1,9,-1
 593 507 l 1,10,-1
 265 507 l 1,11,-1
 265 400 l 1,12,-1
 527 400 l 1,13,-1
 527 258 l 1,14,-1
 265 258 l 1,15,-1
 265 153 l 1,4,-1
EndSplineSet
Substitution2: "Single Substitution lookup 57 subtable" Egrave.swsh.001
Substitution2: "Single Substitution lookup 56 subtable" Egrave.swsh
AlternateSubs2: "'swsh' Swash lookup 33 subtable" Egrave.swsh Egrave.swsh.001
Substitution2: "'c2sc' Capitals to Small Capitals lookup 11 subtable" egrave.sc
AlternateSubs2: "'aalt' Access All Alternates lookup 1 subtable" egrave.sc Egrave.swsh Egrave.swsh.001
EndChar

StartChar: Eacute
Encoding: 201 201 139
Width: 628
GlyphClass: 2
Flags: W
AnchorPoint: "Anchor-0" 331 0 basechar 0
LayerCount: 2
Fore
SplineSet
474 879 m 1,0,-1
 380 715 l 1,1,-1
 236 715 l 1,2,-1
 289 879 l 1,3,-1
 474 879 l 1,0,-1
265 153 m 1,4,-1
 606 153 l 1,5,-1
 606 0 l 1,6,-1
 61 0 l 1,7,-1
 61 660 l 1,8,-1
 593 660 l 1,9,-1
 593 507 l 1,10,-1
 265 507 l 1,11,-1
 265 400 l 1,12,-1
 527 400 l 1,13,-1
 527 258 l 1,14,-1
 265 258 l 1,15,-1
 265 153 l 1,4,-1
EndSplineSet
Substitution2: "Single Substitution lookup 57 subtable" Eacute.swsh.001
Substitution2: "Single Substitution lookup 56 subtable" Eacute.swsh
AlternateSubs2: "'swsh' Swash lookup 33 subtable" Eacute.swsh Eacute.swsh.001
Substitution2: "'c2sc' Capitals to Small Capitals lookup 11 subtable" eacute.sc
AlternateSubs2: "'aalt' Access All Alternates lookup 1 subtable" eacute.sc Eacute.swsh Eacute.swsh.001
EndChar

StartChar: Ecircumflex
Encoding: 202 202 140
Width: 628
GlyphClass: 2
Flags: W
AnchorPoint: "Anchor-0" 331 0 basechar 0
LayerCount: 2
Fore
SplineSet
318 791 m 1,0,-1
 258 714 l 1,1,-1
 113 714 l 1,2,-1
 223 881 l 1,3,-1
 413 881 l 1,4,-1
 523 714 l 1,5,-1
 378 714 l 1,6,-1
 318 791 l 1,0,-1
265 153 m 1,7,-1
 606 153 l 1,8,-1
 606 0 l 1,9,-1
 61 0 l 1,10,-1
 61 660 l 1,11,-1
 593 660 l 1,12,-1
 593 507 l 1,13,-1
 265 507 l 1,14,-1
 265 400 l 1,15,-1
 527 400 l 1,16,-1
 527 258 l 1,17,-1
 265 258 l 1,18,-1
 265 153 l 1,7,-1
EndSplineSet
Substitution2: "Single Substitution lookup 57 subtable" Ecircumflex.swsh.001
Substitution2: "Single Substitution lookup 56 subtable" Ecircumflex.swsh
AlternateSubs2: "'swsh' Swash lookup 33 subtable" Ecircumflex.swsh Ecircumflex.swsh.001
Substitution2: "'c2sc' Capitals to Small Capitals lookup 11 subtable" ecircumflex.sc
AlternateSubs2: "'aalt' Access All Alternates lookup 1 subtable" ecircumflex.sc Ecircumflex.swsh Ecircumflex.swsh.001
EndChar

StartChar: Edieresis
Encoding: 203 203 141
Width: 628
GlyphClass: 2
Flags: W
AnchorPoint: "Anchor-0" 331 0 basechar 0
LayerCount: 2
Fore
SplineSet
202 706 m 0,0,1
 158 706 158 706 133 728.5 c 128,-1,2
 108 751 108 751 108 791 c 128,-1,3
 108 831 108 831 133 853.5 c 128,-1,4
 158 876 158 876 202 876 c 0,5,6
 248 876 248 876 273 853.5 c 128,-1,7
 298 831 298 831 298 791 c 0,8,9
 298 750 298 750 273 728 c 128,-1,10
 248 706 248 706 202 706 c 0,0,1
431 706 m 0,11,12
 387 706 387 706 362 728.5 c 128,-1,13
 337 751 337 751 337 791 c 128,-1,14
 337 831 337 831 362 853.5 c 128,-1,15
 387 876 387 876 431 876 c 0,16,17
 477 876 477 876 502 853.5 c 128,-1,18
 527 831 527 831 527 791 c 0,19,20
 527 750 527 750 502 728 c 128,-1,21
 477 706 477 706 431 706 c 0,11,12
265 153 m 1,22,-1
 606 153 l 1,23,-1
 606 0 l 1,24,-1
 61 0 l 1,25,-1
 61 660 l 1,26,-1
 593 660 l 1,27,-1
 593 507 l 1,28,-1
 265 507 l 1,29,-1
 265 400 l 1,30,-1
 527 400 l 1,31,-1
 527 258 l 1,32,-1
 265 258 l 1,33,-1
 265 153 l 1,22,-1
EndSplineSet
Substitution2: "Single Substitution lookup 57 subtable" Edieresis.swsh.001
Substitution2: "Single Substitution lookup 56 subtable" Edieresis.swsh
AlternateSubs2: "'swsh' Swash lookup 33 subtable" Edieresis.swsh Edieresis.swsh.001
Substitution2: "'c2sc' Capitals to Small Capitals lookup 11 subtable" edieresis.sc
AlternateSubs2: "'aalt' Access All Alternates lookup 1 subtable" edieresis.sc Edieresis.swsh Edieresis.swsh.001
EndChar

StartChar: Igrave
Encoding: 204 204 142
Width: 326
GlyphClass: 2
Flags: W
LayerCount: 2
Fore
SplineSet
174 879 m 1,0,-1
 227 715 l 1,1,-1
 83 715 l 1,2,-1
 -11 879 l 1,3,-1
 174 879 l 1,0,-1
265 660 m 1,4,-1
 265 0 l 1,5,-1
 61 0 l 1,6,-1
 61 660 l 1,7,-1
 265 660 l 1,4,-1
EndSplineSet
Substitution2: "'c2sc' Capitals to Small Capitals lookup 11 subtable" igrave.sc
Substitution2: "'aalt' Access All Alternates lookup 0 subtable" igrave.sc
EndChar

StartChar: Iacute
Encoding: 205 205 143
Width: 326
GlyphClass: 2
Flags: W
LayerCount: 2
Fore
SplineSet
134 879 m 1,0,-1
 319 879 l 1,1,-1
 225 715 l 1,2,-1
 81 715 l 1,3,-1
 134 879 l 1,0,-1
265 660 m 1,4,-1
 265 0 l 1,5,-1
 61 0 l 1,6,-1
 61 660 l 1,7,-1
 265 660 l 1,4,-1
EndSplineSet
Substitution2: "'c2sc' Capitals to Small Capitals lookup 11 subtable" iacute.sc
Substitution2: "'aalt' Access All Alternates lookup 0 subtable" iacute.sc
EndChar

StartChar: Icircumflex
Encoding: 206 206 144
Width: 326
GlyphClass: 2
Flags: W
LayerCount: 2
Fore
SplineSet
368 714 m 1,0,-1
 223 714 l 1,1,-1
 163 791 l 1,2,-1
 103 714 l 1,3,-1
 -42 714 l 1,4,-1
 68 881 l 1,5,-1
 258 881 l 1,6,-1
 368 714 l 1,0,-1
265 660 m 1,7,-1
 265 0 l 1,8,-1
 61 0 l 1,9,-1
 61 660 l 1,10,-1
 265 660 l 1,7,-1
EndSplineSet
Substitution2: "'c2sc' Capitals to Small Capitals lookup 11 subtable" icircumflex.sc
Substitution2: "'aalt' Access All Alternates lookup 0 subtable" icircumflex.sc
EndChar

StartChar: Idieresis
Encoding: 207 207 145
Width: 326
GlyphClass: 2
Flags: W
LayerCount: 2
Fore
SplineSet
54 876 m 128,-1,1
 97 876 97 876 122 853.5 c 128,-1,2
 147 831 147 831 147 791 c 128,-1,3
 147 751 147 751 122.5 728.5 c 128,-1,4
 98 706 98 706 54 706 c 0,5,6
 11 706 11 706 -12.5 728.5 c 128,-1,7
 -36 751 -36 751 -36 791 c 128,-1,8
 -36 831 -36 831 -12.5 853.5 c 128,-1,0
 11 876 11 876 54 876 c 128,-1,1
269 876 m 0,9,10
 313 876 313 876 338 853.5 c 128,-1,11
 363 831 363 831 363 791 c 128,-1,12
 363 751 363 751 338 728.5 c 128,-1,13
 313 706 313 706 269 706 c 0,14,15
 226 706 226 706 202.5 728.5 c 128,-1,16
 179 751 179 751 179 791 c 128,-1,17
 179 831 179 831 202.5 853.5 c 128,-1,18
 226 876 226 876 269 876 c 0,9,10
265 660 m 1,19,-1
 265 0 l 1,20,-1
 61 0 l 1,21,-1
 61 660 l 1,22,-1
 265 660 l 1,19,-1
EndSplineSet
Substitution2: "'c2sc' Capitals to Small Capitals lookup 11 subtable" idieresis.sc
Substitution2: "'aalt' Access All Alternates lookup 0 subtable" idieresis.sc
EndChar

StartChar: Eth
Encoding: 208 208 146
Width: 744
GlyphClass: 2
Flags: W
LayerCount: 2
Fore
SplineSet
391 660 m 2,0,1
 545 660 545 660 626.5 574.5 c 128,-1,2
 708 489 708 489 708 330 c 128,-1,3
 708 171 708 171 626.5 85.5 c 128,-1,4
 545 0 545 0 391 0 c 2,5,-1
 88 0 l 1,6,-1
 88 283 l 1,7,-1
 10 283 l 1,8,-1
 10 373 l 1,9,-1
 88 373 l 1,10,-1
 88 660 l 1,11,-1
 391 660 l 2,0,1
366 149 m 2,12,13
 438 149 438 149 468 192.5 c 128,-1,14
 498 236 498 236 498 330 c 128,-1,15
 498 424 498 424 468 467.5 c 128,-1,16
 438 511 438 511 366 511 c 2,17,-1
 292 511 l 1,18,-1
 292 373 l 1,19,-1
 399 373 l 1,20,-1
 399 283 l 1,21,-1
 292 283 l 1,22,-1
 292 149 l 1,23,-1
 366 149 l 2,12,13
EndSplineSet
Substitution2: "'c2sc' Capitals to Small Capitals lookup 11 subtable" eth.sc
Substitution2: "'aalt' Access All Alternates lookup 0 subtable" eth.sc
EndChar

StartChar: Ntilde
Encoding: 209 209 147
Width: 744
GlyphClass: 2
Flags: W
AnchorPoint: "Anchor-0" 378 0 basechar 0
LayerCount: 2
Fore
SplineSet
577 879 m 1,0,1
 571 710 571 710 437 710 c 0,2,3
 403 710 403 710 379.5 723.5 c 128,-1,4
 356 737 356 737 340 750.5 c 128,-1,5
 324 764 324 764 309 764 c 0,6,7
 281 764 281 764 275 712 c 1,8,-1
 167 712 l 1,9,10
 173 880 173 880 307 880 c 0,11,12
 333 880 333 880 354.5 871.5 c 128,-1,13
 376 863 376 863 386.5 853.5 c 128,-1,14
 397 844 397 844 410 835.5 c 128,-1,15
 423 827 423 827 435 827 c 0,16,17
 463 827 463 827 469 879 c 1,18,-1
 577 879 l 1,0,1
683 660 m 1,19,-1
 683 0 l 1,20,-1
 459 0 l 1,21,-1
 279 327 l 1,22,-1
 237 417 l 1,23,-1
 235 417 l 1,24,-1
 239 286 l 1,25,-1
 239 0 l 1,26,-1
 61 0 l 1,27,-1
 61 660 l 1,28,-1
 284 660 l 1,29,-1
 464 333 l 1,30,-1
 507 243 l 1,31,-1
 508 243 l 1,32,-1
 504 374 l 1,33,-1
 504 660 l 1,34,-1
 683 660 l 1,19,-1
EndSplineSet
Substitution2: "Single Substitution lookup 57 subtable" Ntilde.swsh
Substitution2: "'swsh' Swash lookup 36 subtable" Ntilde.swsh
Substitution2: "'c2sc' Capitals to Small Capitals lookup 11 subtable" ntilde.sc
AlternateSubs2: "'aalt' Access All Alternates lookup 1 subtable" ntilde.sc Ntilde.swsh
EndChar

StartChar: Ograve
Encoding: 210 210 148
Width: 733
GlyphClass: 2
Flags: W
LayerCount: 2
Fore
SplineSet
378 879 m 1,0,-1
 431 715 l 1,1,-1
 287 715 l 1,2,-1
 193 879 l 1,3,-1
 378 879 l 1,0,-1
367 670 m 128,-1,5
 522 670 522 670 609 580.5 c 128,-1,6
 696 491 696 491 696 330 c 128,-1,7
 696 169 696 169 609 79.5 c 128,-1,8
 522 -10 522 -10 367 -10 c 128,-1,9
 212 -10 212 -10 124 80 c 128,-1,10
 36 170 36 170 36 330 c 128,-1,11
 36 490 36 490 124 580 c 128,-1,4
 212 670 212 670 367 670 c 128,-1,5
367 514 m 0,12,13
 246 514 246 514 246 330 c 128,-1,14
 246 146 246 146 367 146 c 0,15,16
 487 146 487 146 487 330 c 128,-1,17
 487 514 487 514 367 514 c 0,12,13
EndSplineSet
Substitution2: "'c2sc' Capitals to Small Capitals lookup 11 subtable" ograve.sc
Substitution2: "'aalt' Access All Alternates lookup 0 subtable" ograve.sc
EndChar

StartChar: Oacute
Encoding: 211 211 149
Width: 733
GlyphClass: 2
Flags: W
LayerCount: 2
Fore
SplineSet
338 879 m 1,0,-1
 523 879 l 1,1,-1
 429 715 l 1,2,-1
 285 715 l 1,3,-1
 338 879 l 1,0,-1
367 670 m 128,-1,5
 522 670 522 670 609 580.5 c 128,-1,6
 696 491 696 491 696 330 c 128,-1,7
 696 169 696 169 609 79.5 c 128,-1,8
 522 -10 522 -10 367 -10 c 128,-1,9
 212 -10 212 -10 124 80 c 128,-1,10
 36 170 36 170 36 330 c 128,-1,11
 36 490 36 490 124 580 c 128,-1,4
 212 670 212 670 367 670 c 128,-1,5
367 514 m 0,12,13
 246 514 246 514 246 330 c 128,-1,14
 246 146 246 146 367 146 c 0,15,16
 487 146 487 146 487 330 c 128,-1,17
 487 514 487 514 367 514 c 0,12,13
EndSplineSet
Substitution2: "'c2sc' Capitals to Small Capitals lookup 11 subtable" oacute.sc
Substitution2: "'aalt' Access All Alternates lookup 0 subtable" oacute.sc
EndChar

StartChar: Ocircumflex
Encoding: 212 212 150
Width: 733
GlyphClass: 2
Flags: W
LayerCount: 2
Fore
SplineSet
572 714 m 1,0,-1
 427 714 l 1,1,-1
 367 791 l 1,2,-1
 307 714 l 1,3,-1
 162 714 l 1,4,-1
 272 881 l 1,5,-1
 462 881 l 1,6,-1
 572 714 l 1,0,-1
367 670 m 128,-1,8
 522 670 522 670 609 580.5 c 128,-1,9
 696 491 696 491 696 330 c 128,-1,10
 696 169 696 169 609 79.5 c 128,-1,11
 522 -10 522 -10 367 -10 c 128,-1,12
 212 -10 212 -10 124 80 c 128,-1,13
 36 170 36 170 36 330 c 128,-1,14
 36 490 36 490 124 580 c 128,-1,7
 212 670 212 670 367 670 c 128,-1,8
367 514 m 0,15,16
 246 514 246 514 246 330 c 128,-1,17
 246 146 246 146 367 146 c 0,18,19
 487 146 487 146 487 330 c 128,-1,20
 487 514 487 514 367 514 c 0,15,16
EndSplineSet
Substitution2: "'c2sc' Capitals to Small Capitals lookup 11 subtable" ocircumflex.sc
Substitution2: "'aalt' Access All Alternates lookup 0 subtable" ocircumflex.sc
EndChar

StartChar: Otilde
Encoding: 213 213 151
Width: 733
GlyphClass: 2
Flags: W
LayerCount: 2
Fore
SplineSet
571 879 m 1,0,1
 565 710 565 710 431 710 c 0,2,3
 397 710 397 710 373.5 723.5 c 128,-1,4
 350 737 350 737 334 750.5 c 128,-1,5
 318 764 318 764 303 764 c 0,6,7
 275 764 275 764 269 712 c 1,8,-1
 161 712 l 1,9,10
 167 880 167 880 301 880 c 0,11,12
 327 880 327 880 348.5 871.5 c 128,-1,13
 370 863 370 863 380.5 853.5 c 128,-1,14
 391 844 391 844 404 835.5 c 128,-1,15
 417 827 417 827 429 827 c 0,16,17
 457 827 457 827 463 879 c 1,18,-1
 571 879 l 1,0,1
367 670 m 128,-1,20
 522 670 522 670 609 580.5 c 128,-1,21
 696 491 696 491 696 330 c 128,-1,22
 696 169 696 169 609 79.5 c 128,-1,23
 522 -10 522 -10 367 -10 c 128,-1,24
 212 -10 212 -10 124 80 c 128,-1,25
 36 170 36 170 36 330 c 128,-1,26
 36 490 36 490 124 580 c 128,-1,19
 212 670 212 670 367 670 c 128,-1,20
367 514 m 0,27,28
 246 514 246 514 246 330 c 128,-1,29
 246 146 246 146 367 146 c 0,30,31
 487 146 487 146 487 330 c 128,-1,32
 487 514 487 514 367 514 c 0,27,28
EndSplineSet
Substitution2: "'c2sc' Capitals to Small Capitals lookup 11 subtable" otilde.sc
Substitution2: "'aalt' Access All Alternates lookup 0 subtable" otilde.sc
EndChar

StartChar: Odieresis
Encoding: 214 214 152
Width: 733
GlyphClass: 2
Flags: W
LayerCount: 2
Fore
SplineSet
251 876 m 0,0,1
 297 876 297 876 322 853.5 c 128,-1,2
 347 831 347 831 347 791 c 0,3,4
 347 750 347 750 322 728 c 128,-1,5
 297 706 297 706 251 706 c 0,6,7
 207 706 207 706 182 728.5 c 128,-1,8
 157 751 157 751 157 791 c 128,-1,9
 157 831 157 831 182 853.5 c 128,-1,10
 207 876 207 876 251 876 c 0,0,1
480 876 m 0,11,12
 526 876 526 876 551 853.5 c 128,-1,13
 576 831 576 831 576 791 c 0,14,15
 576 750 576 750 551 728 c 128,-1,16
 526 706 526 706 480 706 c 0,17,18
 436 706 436 706 411 728.5 c 128,-1,19
 386 751 386 751 386 791 c 128,-1,20
 386 831 386 831 411 853.5 c 128,-1,21
 436 876 436 876 480 876 c 0,11,12
367 670 m 128,-1,23
 522 670 522 670 609 580.5 c 128,-1,24
 696 491 696 491 696 330 c 128,-1,25
 696 169 696 169 609 79.5 c 128,-1,26
 522 -10 522 -10 367 -10 c 128,-1,27
 212 -10 212 -10 124 80 c 128,-1,28
 36 170 36 170 36 330 c 128,-1,29
 36 490 36 490 124 580 c 128,-1,22
 212 670 212 670 367 670 c 128,-1,23
367 514 m 0,30,31
 246 514 246 514 246 330 c 128,-1,32
 246 146 246 146 367 146 c 0,33,34
 487 146 487 146 487 330 c 128,-1,35
 487 514 487 514 367 514 c 0,30,31
EndSplineSet
Substitution2: "'titl' Titling lookup 41 subtable" Odieresis.titl
Substitution2: "'c2sc' Capitals to Small Capitals lookup 11 subtable" odieresis.sc
AlternateSubs2: "'aalt' Access All Alternates lookup 1 subtable" odieresis.sc Odieresis.titl
EndChar

StartChar: multiply
Encoding: 215 215 153
Width: 604
GlyphClass: 2
Flags: W
LayerCount: 2
Fore
SplineSet
559 481 m 1,0,-1
 408 329 l 1,1,-1
 559 178 l 1,2,-1
 454 72 l 1,3,-1
 302 223 l 1,4,-1
 150 72 l 1,5,-1
 44 178 l 1,6,-1
 196 329 l 1,7,-1
 44 481 l 1,8,-1
 150 587 l 1,9,-1
 302 435 l 1,10,-1
 454 587 l 1,11,-1
 559 481 l 1,0,-1
EndSplineSet
EndChar

StartChar: Oslash
Encoding: 216 216 154
Width: 733
GlyphClass: 2
Flags: W
LayerCount: 2
Fore
SplineSet
605 584 m 1,0,1
 696 495 696 495 696 330 c 0,2,3
 696 169 696 169 609 79.5 c 128,-1,4
 522 -10 522 -10 367 -10 c 0,5,6
 262 -10 262 -10 187 32 c 1,7,-1
 147 -24 l 1,8,-1
 55 -24 l 1,9,-1
 128 76 l 1,10,11
 36 166 36 166 36 330 c 0,12,13
 36 490 36 490 124 580 c 128,-1,14
 212 670 212 670 367 670 c 0,15,16
 471 670 471 670 547 628 c 1,17,-1
 585 681 l 1,18,-1
 676 681 l 1,19,-1
 605 584 l 1,0,1
367 514 m 0,20,21
 246 514 246 514 246 330 c 0,22,23
 246 272 246 272 256 235 c 1,24,-1
 438 491 l 1,25,26
 409 514 409 514 367 514 c 0,20,21
367 146 m 0,27,28
 487 146 487 146 487 330 c 0,29,30
 487 380 487 380 478 418 c 1,31,-1
 300 166 l 1,32,33
 328 146 328 146 367 146 c 0,27,28
EndSplineSet
Substitution2: "'c2sc' Capitals to Small Capitals lookup 11 subtable" oslash.sc
Substitution2: "'aalt' Access All Alternates lookup 0 subtable" oslash.sc
EndChar

StartChar: Ugrave
Encoding: 217 217 155
Width: 710
GlyphClass: 2
Flags: W
LayerCount: 2
Fore
SplineSet
366 879 m 1,0,-1
 419 715 l 1,1,-1
 275 715 l 1,2,-1
 181 879 l 1,3,-1
 366 879 l 1,0,-1
663 660 m 1,4,-1
 663 277 l 2,5,6
 663 -10 663 -10 355 -10 c 128,-1,7
 47 -10 47 -10 47 277 c 2,8,-1
 47 660 l 1,9,-1
 253 660 l 1,10,-1
 253 266 l 2,11,12
 253 146 253 146 355 146 c 0,13,14
 458 146 458 146 458 266 c 2,15,-1
 458 660 l 1,16,-1
 663 660 l 1,4,-1
EndSplineSet
Substitution2: "'c2sc' Capitals to Small Capitals lookup 11 subtable" ugrave.sc
Substitution2: "'aalt' Access All Alternates lookup 0 subtable" ugrave.sc
EndChar

StartChar: Uacute
Encoding: 218 218 156
Width: 710
GlyphClass: 2
Flags: W
LayerCount: 2
Fore
SplineSet
327 879 m 1,0,-1
 512 879 l 1,1,-1
 418 715 l 1,2,-1
 274 715 l 1,3,-1
 327 879 l 1,0,-1
663 660 m 1,4,-1
 663 277 l 2,5,6
 663 -10 663 -10 355 -10 c 128,-1,7
 47 -10 47 -10 47 277 c 2,8,-1
 47 660 l 1,9,-1
 253 660 l 1,10,-1
 253 266 l 2,11,12
 253 146 253 146 355 146 c 0,13,14
 458 146 458 146 458 266 c 2,15,-1
 458 660 l 1,16,-1
 663 660 l 1,4,-1
EndSplineSet
Substitution2: "'c2sc' Capitals to Small Capitals lookup 11 subtable" uacute.sc
Substitution2: "'aalt' Access All Alternates lookup 0 subtable" uacute.sc
EndChar

StartChar: Ucircumflex
Encoding: 219 219 157
Width: 710
GlyphClass: 2
Flags: W
LayerCount: 2
Fore
SplineSet
560 714 m 1,0,-1
 415 714 l 1,1,-1
 355 791 l 1,2,-1
 295 714 l 1,3,-1
 150 714 l 1,4,-1
 260 881 l 1,5,-1
 450 881 l 1,6,-1
 560 714 l 1,0,-1
663 660 m 1,7,-1
 663 277 l 2,8,9
 663 -10 663 -10 355 -10 c 128,-1,10
 47 -10 47 -10 47 277 c 2,11,-1
 47 660 l 1,12,-1
 253 660 l 1,13,-1
 253 266 l 2,14,15
 253 146 253 146 355 146 c 0,16,17
 458 146 458 146 458 266 c 2,18,-1
 458 660 l 1,19,-1
 663 660 l 1,7,-1
EndSplineSet
Substitution2: "'c2sc' Capitals to Small Capitals lookup 11 subtable" ucircumflex.sc
Substitution2: "'aalt' Access All Alternates lookup 0 subtable" ucircumflex.sc
EndChar

StartChar: Udieresis
Encoding: 220 220 158
Width: 710
GlyphClass: 2
Flags: W
LayerCount: 2
Fore
SplineSet
240 876 m 0,0,1
 286 876 286 876 311 853.5 c 128,-1,2
 336 831 336 831 336 791 c 0,3,4
 336 750 336 750 311 728 c 128,-1,5
 286 706 286 706 240 706 c 0,6,7
 196 706 196 706 171 728.5 c 128,-1,8
 146 751 146 751 146 791 c 128,-1,9
 146 831 146 831 171 853.5 c 128,-1,10
 196 876 196 876 240 876 c 0,0,1
469 876 m 0,11,12
 515 876 515 876 540 853.5 c 128,-1,13
 565 831 565 831 565 791 c 0,14,15
 565 750 565 750 540 728 c 128,-1,16
 515 706 515 706 469 706 c 0,17,18
 425 706 425 706 400 728.5 c 128,-1,19
 375 751 375 751 375 791 c 128,-1,20
 375 831 375 831 400 853.5 c 128,-1,21
 425 876 425 876 469 876 c 0,11,12
663 660 m 1,22,-1
 663 277 l 2,23,24
 663 -10 663 -10 355 -10 c 128,-1,25
 47 -10 47 -10 47 277 c 2,26,-1
 47 660 l 1,27,-1
 253 660 l 1,28,-1
 253 266 l 2,29,30
 253 146 253 146 355 146 c 0,31,32
 458 146 458 146 458 266 c 2,33,-1
 458 660 l 1,34,-1
 663 660 l 1,22,-1
EndSplineSet
Substitution2: "'titl' Titling lookup 41 subtable" Udieresis.titl
Substitution2: "'c2sc' Capitals to Small Capitals lookup 11 subtable" udieresis.sc
AlternateSubs2: "'aalt' Access All Alternates lookup 1 subtable" udieresis.sc Udieresis.titl
EndChar

StartChar: Yacute
Encoding: 221 221 159
Width: 687
GlyphClass: 2
Flags: W
LayerCount: 2
Fore
SplineSet
314 879 m 1,0,-1
 499 879 l 1,1,-1
 405 715 l 1,2,-1
 261 715 l 1,3,-1
 314 879 l 1,0,-1
677 660 m 1,4,-1
 446 234 l 1,5,-1
 446 0 l 1,6,-1
 241 0 l 1,7,-1
 241 234 l 1,8,-1
 9 660 l 1,9,-1
 216 660 l 1,10,-1
 296 495 l 1,11,-1
 345 380 l 1,12,-1
 393 495 l 1,13,-1
 474 660 l 1,14,-1
 677 660 l 1,4,-1
EndSplineSet
Substitution2: "'c2sc' Capitals to Small Capitals lookup 11 subtable" yacute.sc
Substitution2: "'aalt' Access All Alternates lookup 0 subtable" yacute.sc
EndChar

StartChar: Thorn
Encoding: 222 222 160
Width: 680
GlyphClass: 2
Flags: W
LayerCount: 2
Fore
SplineSet
380 566 m 2,0,1
 509 566 509 566 578 507.5 c 128,-1,2
 647 449 647 449 646 337 c 0,3,4
 647 225 647 225 578 166.5 c 128,-1,5
 509 108 509 108 380 108 c 2,6,-1
 265 108 l 1,7,-1
 265 0 l 1,8,-1
 61 0 l 1,9,-1
 61 660 l 1,10,-1
 265 660 l 1,11,-1
 265 566 l 1,12,-1
 380 566 l 2,0,1
350 256 m 2,13,14
 395 256 395 256 418.5 276 c 128,-1,15
 442 296 442 296 441 337 c 0,16,17
 442 378 442 378 418.5 397.5 c 128,-1,18
 395 417 395 417 350 417 c 2,19,-1
 265 417 l 1,20,-1
 265 256 l 1,21,-1
 350 256 l 2,13,14
EndSplineSet
Substitution2: "'c2sc' Capitals to Small Capitals lookup 11 subtable" thorn.sc
Substitution2: "'aalt' Access All Alternates lookup 0 subtable" thorn.sc
EndChar

StartChar: germandbls
Encoding: 223 223 161
Width: 657
GlyphClass: 2
Flags: W
LayerCount: 2
Fore
SplineSet
454 354 m 1,0,1
 535 354 535 354 583.5 305.5 c 128,-1,2
 632 257 632 257 632 179 c 0,3,4
 632 99 632 99 576 44.5 c 128,-1,5
 520 -10 520 -10 412 -10 c 0,6,7
 328 -10 328 -10 282 22 c 1,8,-1
 311 152 l 1,9,10
 333 130 333 130 370 130 c 0,11,12
 401 130 401 130 419.5 151 c 128,-1,13
 438 172 438 172 438 208 c 0,14,15
 438 280 438 280 355 280 c 2,16,-1
 303 280 l 1,17,-1
 325 418 l 1,18,-1
 354 418 l 2,19,20
 387 419 387 419 405.5 440 c 128,-1,21
 424 461 424 461 424 497 c 0,22,23
 424 532 424 532 403.5 551.5 c 128,-1,24
 383 571 383 571 348 571 c 0,25,26
 295 571 295 571 273 540.5 c 128,-1,27
 251 510 251 510 251 439 c 2,28,-1
 251 0 l 1,29,-1
 49 0 l 1,30,-1
 49 448 l 2,31,32
 49 577 49 577 120.5 644 c 128,-1,33
 192 711 192 711 350 711 c 0,34,35
 479 711 479 711 549 657 c 128,-1,36
 619 603 619 603 619 515 c 0,37,38
 619 450 619 450 574 403 c 128,-1,39
 529 356 529 356 454 356 c 1,40,-1
 454 354 l 1,0,1
EndSplineSet
Substitution2: "Single Substitution lookup 57 subtable" germandbls.calt
Substitution2: "'smcp' Lowercase to Small Capitals lookup 12 subtable" germandbls.sc
AlternateSubs2: "'aalt' Access All Alternates lookup 1 subtable" germandbls.sc germandbls.calt
EndChar

StartChar: agrave
Encoding: 224 224 162
Width: 585
GlyphClass: 2
Flags: W
LayerCount: 2
Fore
SplineSet
352 559 m 1,0,-1
 208 559 l 1,1,-1
 106 734 l 1,2,-1
 289 734 l 1,3,-1
 352 559 l 1,0,-1
559 111 m 0,4,5
 576 111 576 111 587 115 c 1,6,-1
 571 8 l 1,7,8
 538 -10 538 -10 500 -10 c 0,9,10
 381 -10 381 -10 356 71 c 1,11,12
 310 -10 310 -10 178 -10 c 0,13,14
 102 -10 102 -10 62.5 21.5 c 128,-1,15
 23 53 23 53 23 112 c 0,16,17
 23 175 23 175 68 214 c 128,-1,18
 113 253 113 253 218 274 c 2,19,-1
 324 296 l 1,20,-1
 324 315 l 2,21,22
 324 344 324 344 309 360 c 128,-1,23
 294 376 294 376 267 376 c 0,24,25
 203 376 203 376 195 307 c 1,26,-1
 29 342 l 1,27,28
 40 422 40 422 101.5 466 c 128,-1,29
 163 510 163 510 274 510 c 0,30,31
 524 510 524 510 524 311 c 2,32,-1
 524 151 l 2,33,34
 524 111 524 111 559 111 c 0,4,5
259 108 m 0,35,36
 285 108 285 108 304.5 123.5 c 128,-1,37
 324 139 324 139 324 167 c 2,38,-1
 324 213 l 1,39,-1
 269 199 l 2,40,41
 217 186 217 186 217 147 c 128,-1,42
 217 108 217 108 259 108 c 0,35,36
EndSplineSet
Substitution2: "'smcp' Lowercase to Small Capitals lookup 12 subtable" agrave.sc
Substitution2: "'aalt' Access All Alternates lookup 0 subtable" agrave.sc
EndChar

StartChar: aacute
Encoding: 225 225 163
Width: 585
GlyphClass: 2
Flags: W
LayerCount: 2
Fore
SplineSet
436 734 m 1,0,-1
 334 559 l 1,1,-1
 190 559 l 1,2,-1
 253 734 l 1,3,-1
 436 734 l 1,0,-1
559 111 m 0,4,5
 576 111 576 111 587 115 c 1,6,-1
 571 8 l 1,7,8
 538 -10 538 -10 500 -10 c 0,9,10
 381 -10 381 -10 356 71 c 1,11,12
 310 -10 310 -10 178 -10 c 0,13,14
 102 -10 102 -10 62.5 21.5 c 128,-1,15
 23 53 23 53 23 112 c 0,16,17
 23 175 23 175 68 214 c 128,-1,18
 113 253 113 253 218 274 c 2,19,-1
 324 296 l 1,20,-1
 324 315 l 2,21,22
 324 344 324 344 309 360 c 128,-1,23
 294 376 294 376 267 376 c 0,24,25
 203 376 203 376 195 307 c 1,26,-1
 29 342 l 1,27,28
 40 422 40 422 101.5 466 c 128,-1,29
 163 510 163 510 274 510 c 0,30,31
 524 510 524 510 524 311 c 2,32,-1
 524 151 l 2,33,34
 524 111 524 111 559 111 c 0,4,5
259 108 m 0,35,36
 285 108 285 108 304.5 123.5 c 128,-1,37
 324 139 324 139 324 167 c 2,38,-1
 324 213 l 1,39,-1
 269 199 l 2,40,41
 217 186 217 186 217 147 c 128,-1,42
 217 108 217 108 259 108 c 0,35,36
EndSplineSet
Substitution2: "'smcp' Lowercase to Small Capitals lookup 12 subtable" aacute.sc
Substitution2: "'aalt' Access All Alternates lookup 0 subtable" aacute.sc
EndChar

StartChar: acircumflex
Encoding: 226 226 164
Width: 585
GlyphClass: 2
Flags: W
LayerCount: 2
Fore
SplineSet
277 631 m 1,0,-1
 215 552 l 1,1,-1
 74 552 l 1,2,-1
 181 727 l 1,3,-1
 373 727 l 1,4,-1
 480 552 l 1,5,-1
 339 552 l 1,6,-1
 277 631 l 1,0,-1
559 111 m 0,7,8
 576 111 576 111 587 115 c 1,9,-1
 571 8 l 1,10,11
 538 -10 538 -10 500 -10 c 0,12,13
 381 -10 381 -10 356 71 c 1,14,15
 310 -10 310 -10 178 -10 c 0,16,17
 102 -10 102 -10 62.5 21.5 c 128,-1,18
 23 53 23 53 23 112 c 0,19,20
 23 175 23 175 68 214 c 128,-1,21
 113 253 113 253 218 274 c 2,22,-1
 324 296 l 1,23,-1
 324 315 l 2,24,25
 324 344 324 344 309 360 c 128,-1,26
 294 376 294 376 267 376 c 0,27,28
 203 376 203 376 195 307 c 1,29,-1
 29 342 l 1,30,31
 40 422 40 422 101.5 466 c 128,-1,32
 163 510 163 510 274 510 c 0,33,34
 524 510 524 510 524 311 c 2,35,-1
 524 151 l 2,36,37
 524 111 524 111 559 111 c 0,7,8
259 108 m 0,38,39
 285 108 285 108 304.5 123.5 c 128,-1,40
 324 139 324 139 324 167 c 2,41,-1
 324 213 l 1,42,-1
 269 199 l 2,43,44
 217 186 217 186 217 147 c 128,-1,45
 217 108 217 108 259 108 c 0,38,39
EndSplineSet
Substitution2: "'smcp' Lowercase to Small Capitals lookup 12 subtable" acircumflex.sc
Substitution2: "'aalt' Access All Alternates lookup 0 subtable" acircumflex.sc
EndChar

StartChar: atilde
Encoding: 227 227 165
Width: 585
GlyphClass: 2
Flags: W
LayerCount: 2
Fore
SplineSet
213 604 m 0,0,1
 185 604 185 604 179 552 c 1,2,-1
 71 552 l 1,3,4
 77 720 77 720 211 720 c 0,5,6
 237 720 237 720 258.5 711.5 c 128,-1,7
 280 703 280 703 290.5 693.5 c 128,-1,8
 301 684 301 684 314 675.5 c 128,-1,9
 327 667 327 667 339 667 c 0,10,11
 367 667 367 667 373 719 c 1,12,-1
 481 719 l 1,13,14
 475 550 475 550 341 550 c 0,15,16
 307 550 307 550 283.5 563.5 c 128,-1,17
 260 577 260 577 244 590.5 c 128,-1,18
 228 604 228 604 213 604 c 0,0,1
559 111 m 0,19,20
 576 111 576 111 587 115 c 1,21,-1
 571 8 l 1,22,23
 538 -10 538 -10 500 -10 c 0,24,25
 381 -10 381 -10 356 71 c 1,26,27
 310 -10 310 -10 178 -10 c 0,28,29
 102 -10 102 -10 62.5 21.5 c 128,-1,30
 23 53 23 53 23 112 c 0,31,32
 23 175 23 175 68 214 c 128,-1,33
 113 253 113 253 218 274 c 2,34,-1
 324 296 l 1,35,-1
 324 315 l 2,36,37
 324 344 324 344 309 360 c 128,-1,38
 294 376 294 376 267 376 c 0,39,40
 203 376 203 376 195 307 c 1,41,-1
 29 342 l 1,42,43
 40 422 40 422 101.5 466 c 128,-1,44
 163 510 163 510 274 510 c 0,45,46
 524 510 524 510 524 311 c 2,47,-1
 524 151 l 2,48,49
 524 111 524 111 559 111 c 0,19,20
259 108 m 0,50,51
 285 108 285 108 304.5 123.5 c 128,-1,52
 324 139 324 139 324 167 c 2,53,-1
 324 213 l 1,54,-1
 269 199 l 2,55,56
 217 186 217 186 217 147 c 128,-1,57
 217 108 217 108 259 108 c 0,50,51
EndSplineSet
Substitution2: "'smcp' Lowercase to Small Capitals lookup 12 subtable" atilde.sc
Substitution2: "'aalt' Access All Alternates lookup 0 subtable" atilde.sc
EndChar

StartChar: adieresis
Encoding: 228 228 166
Width: 585
GlyphClass: 2
Flags: W
LayerCount: 2
Fore
SplineSet
161 546 m 0,0,1
 117 546 117 546 92 568.5 c 128,-1,2
 67 591 67 591 67 631 c 128,-1,3
 67 671 67 671 92 693.5 c 128,-1,4
 117 716 117 716 161 716 c 0,5,6
 207 716 207 716 232 693.5 c 128,-1,7
 257 671 257 671 257 631 c 0,8,9
 257 590 257 590 232 568 c 128,-1,10
 207 546 207 546 161 546 c 0,0,1
390 546 m 0,11,12
 346 546 346 546 321 568.5 c 128,-1,13
 296 591 296 591 296 631 c 128,-1,14
 296 671 296 671 321 693.5 c 128,-1,15
 346 716 346 716 390 716 c 0,16,17
 436 716 436 716 461 693.5 c 128,-1,18
 486 671 486 671 486 631 c 0,19,20
 486 590 486 590 461 568 c 128,-1,21
 436 546 436 546 390 546 c 0,11,12
559 111 m 0,22,23
 576 111 576 111 587 115 c 1,24,-1
 571 8 l 1,25,26
 538 -10 538 -10 500 -10 c 0,27,28
 381 -10 381 -10 356 71 c 1,29,30
 310 -10 310 -10 178 -10 c 0,31,32
 102 -10 102 -10 62.5 21.5 c 128,-1,33
 23 53 23 53 23 112 c 0,34,35
 23 175 23 175 68 214 c 128,-1,36
 113 253 113 253 218 274 c 2,37,-1
 324 296 l 1,38,-1
 324 315 l 2,39,40
 324 344 324 344 309 360 c 128,-1,41
 294 376 294 376 267 376 c 0,42,43
 203 376 203 376 195 307 c 1,44,-1
 29 342 l 1,45,46
 40 422 40 422 101.5 466 c 128,-1,47
 163 510 163 510 274 510 c 0,48,49
 524 510 524 510 524 311 c 2,50,-1
 524 151 l 2,51,52
 524 111 524 111 559 111 c 0,22,23
259 108 m 0,53,54
 285 108 285 108 304.5 123.5 c 128,-1,55
 324 139 324 139 324 167 c 2,56,-1
 324 213 l 1,57,-1
 269 199 l 2,58,59
 217 186 217 186 217 147 c 128,-1,60
 217 108 217 108 259 108 c 0,53,54
EndSplineSet
Substitution2: "'smcp' Lowercase to Small Capitals lookup 12 subtable" adieresis.sc
Substitution2: "'aalt' Access All Alternates lookup 0 subtable" adieresis.sc
EndChar

StartChar: aring
Encoding: 229 229 167
Width: 585
GlyphClass: 2
Flags: W
LayerCount: 2
Fore
SplineSet
278 542 m 0,0,1
 213 542 213 542 176.5 574.5 c 128,-1,2
 140 607 140 607 140 665 c 0,3,4
 140 722 140 722 176.5 754.5 c 128,-1,5
 213 787 213 787 278 787 c 0,6,7
 344 787 344 787 380 754.5 c 128,-1,8
 416 722 416 722 416 665 c 0,9,10
 416 607 416 607 380 574.5 c 128,-1,11
 344 542 344 542 278 542 c 0,0,1
278 709 m 0,12,13
 233 709 233 709 233 665 c 0,14,15
 233 644 233 644 245 632 c 128,-1,16
 257 620 257 620 278 620 c 128,-1,17
 299 620 299 620 311.5 632 c 128,-1,18
 324 644 324 644 324 665 c 128,-1,19
 324 686 324 686 311.5 697.5 c 128,-1,20
 299 709 299 709 278 709 c 0,12,13
559 111 m 0,21,22
 576 111 576 111 587 115 c 1,23,-1
 571 8 l 1,24,25
 538 -10 538 -10 500 -10 c 0,26,27
 381 -10 381 -10 356 71 c 1,28,29
 310 -10 310 -10 178 -10 c 0,30,31
 102 -10 102 -10 62.5 21.5 c 128,-1,32
 23 53 23 53 23 112 c 0,33,34
 23 175 23 175 68 214 c 128,-1,35
 113 253 113 253 218 274 c 2,36,-1
 324 296 l 1,37,-1
 324 315 l 2,38,39
 324 344 324 344 309 360 c 128,-1,40
 294 376 294 376 267 376 c 0,41,42
 203 376 203 376 195 307 c 1,43,-1
 29 342 l 1,44,45
 40 422 40 422 101.5 466 c 128,-1,46
 163 510 163 510 274 510 c 0,47,48
 524 510 524 510 524 311 c 2,49,-1
 524 151 l 2,50,51
 524 111 524 111 559 111 c 0,21,22
259 108 m 0,52,53
 285 108 285 108 304.5 123.5 c 128,-1,54
 324 139 324 139 324 167 c 2,55,-1
 324 213 l 1,56,-1
 269 199 l 2,57,58
 217 186 217 186 217 147 c 128,-1,59
 217 108 217 108 259 108 c 0,52,53
EndSplineSet
Substitution2: "'smcp' Lowercase to Small Capitals lookup 12 subtable" aring.sc
Substitution2: "'aalt' Access All Alternates lookup 0 subtable" aring.sc
EndChar

StartChar: ae
Encoding: 230 230 168
Width: 876
GlyphClass: 2
Flags: W
LayerCount: 2
Fore
SplineSet
848 268 m 0,0,1
 848 229 848 229 843 207 c 1,2,-1
 521 207 l 1,3,4
 534 128 534 128 611 128 c 0,5,6
 640 128 640 128 654.5 139.5 c 128,-1,7
 669 151 669 151 676 176 c 1,8,-1
 839 129 l 1,9,10
 820 61 820 61 757.5 25.5 c 128,-1,11
 695 -10 695 -10 603 -10 c 0,12,13
 471 -10 471 -10 415 84 c 1,14,15
 354 -10 354 -10 187 -10 c 0,16,17
 105 -10 105 -10 64.5 22.5 c 128,-1,18
 24 55 24 55 24 110 c 0,19,20
 24 175 24 175 67 210.5 c 128,-1,21
 110 246 110 246 210 266 c 2,22,-1
 326 290 l 1,23,-1
 326 315 l 2,24,25
 326 376 326 376 266 376 c 0,26,27
 235 376 235 376 218.5 360.5 c 128,-1,28
 202 345 202 345 196 308 c 1,29,-1
 30 341 l 1,30,31
 40 420 40 420 97.5 465 c 128,-1,32
 155 510 155 510 262 510 c 0,33,34
 376 510 376 510 440 444 c 1,35,36
 498 510 498 510 600 510 c 0,37,38
 719 510 719 510 783.5 444 c 128,-1,39
 848 378 848 378 848 268 c 0,0,1
595 373 m 0,40,41
 528 373 528 373 520 287 c 1,42,-1
 660 287 l 1,43,44
 657 331 657 331 642 352 c 128,-1,45
 627 373 627 373 595 373 c 0,40,41
258 99 m 0,46,47
 286 99 286 99 306 116 c 128,-1,48
 326 133 326 133 326 168 c 2,49,-1
 326 211 l 1,50,-1
 275 199 l 2,51,52
 242 190 242 190 227.5 177.5 c 128,-1,53
 213 165 213 165 213 142 c 0,54,55
 213 99 213 99 258 99 c 0,46,47
EndSplineSet
Substitution2: "'smcp' Lowercase to Small Capitals lookup 12 subtable" ae.sc
Substitution2: "'aalt' Access All Alternates lookup 0 subtable" ae.sc
EndChar

StartChar: ccedilla
Encoding: 231 231 169
Width: 574
GlyphClass: 2
Flags: W
LayerCount: 2
Fore
SplineSet
307 129 m 0,0,1
 361 129 361 129 370 202 c 1,2,-1
 551 145 l 1,3,4
 547 93 547 93 506.5 53.5 c 128,-1,5
 466 14 466 14 395 -1 c 1,6,7
 448 -37 448 -37 448 -93 c 0,8,9
 448 -155 448 -155 406 -185 c 128,-1,10
 364 -215 364 -215 295 -215 c 0,11,12
 212 -215 212 -215 166 -173 c 1,13,-1
 208 -85 l 1,14,15
 237 -114 237 -114 281 -114 c 0,16,17
 306 -114 306 -114 321 -101.5 c 128,-1,18
 336 -89 336 -89 336 -67 c 0,19,20
 336 -27 336 -27 273 -9 c 1,21,22
 153 0 153 0 90.5 67 c 128,-1,23
 28 134 28 134 28 250 c 0,24,25
 28 374 28 374 99 442 c 128,-1,26
 170 510 170 510 298 510 c 0,27,28
 425 510 425 510 484.5 463.5 c 128,-1,29
 544 417 544 417 552 347 c 1,30,-1
 365 290 l 1,31,32
 362 371 362 371 308 371 c 0,33,34
 268 371 268 371 249.5 342.5 c 128,-1,35
 231 314 231 314 231 248 c 128,-1,36
 231 182 231 182 250.5 155.5 c 128,-1,37
 270 129 270 129 307 129 c 0,0,1
EndSplineSet
Substitution2: "'smcp' Lowercase to Small Capitals lookup 12 subtable" ccedilla.sc
Substitution2: "'aalt' Access All Alternates lookup 0 subtable" ccedilla.sc
EndChar

StartChar: egrave
Encoding: 232 232 170
Width: 583
GlyphClass: 2
Flags: W
AnchorPoint: "Anchor-0" 296 0 basechar 0
LayerCount: 2
Fore
SplineSet
371 559 m 1,0,-1
 227 559 l 1,1,-1
 125 734 l 1,2,-1
 308 734 l 1,3,-1
 371 559 l 1,0,-1
556 262 m 0,4,5
 556 226 556 226 551 204 c 1,6,-1
 222 204 l 1,7,8
 228 162 228 162 249 145 c 128,-1,9
 270 128 270 128 308 128 c 0,10,11
 369 128 369 128 383 176 c 1,12,-1
 546 129 l 1,13,14
 527 61 527 61 463.5 25.5 c 128,-1,15
 400 -10 400 -10 308 -10 c 0,16,17
 172 -10 172 -10 100 57.5 c 128,-1,18
 28 125 28 125 28 250 c 0,19,20
 28 374 28 374 98.5 442 c 128,-1,21
 169 510 169 510 297 510 c 0,22,23
 422 510 422 510 489 443.5 c 128,-1,24
 556 377 556 377 556 262 c 0,4,5
298 373 m 0,25,26
 265 373 265 373 246.5 354 c 128,-1,27
 228 335 228 335 222 292 c 1,28,-1
 367 292 l 1,29,30
 356 373 356 373 298 373 c 0,25,26
EndSplineSet
Substitution2: "'smcp' Lowercase to Small Capitals lookup 12 subtable" egrave.sc
Substitution2: "'aalt' Access All Alternates lookup 0 subtable" egrave.sc
EndChar

StartChar: eacute
Encoding: 233 233 171
Width: 583
GlyphClass: 2
Flags: W
AnchorPoint: "Anchor-0" 296 0 basechar 0
LayerCount: 2
Fore
SplineSet
456 734 m 1,0,-1
 354 559 l 1,1,-1
 210 559 l 1,2,-1
 273 734 l 1,3,-1
 456 734 l 1,0,-1
556 262 m 0,4,5
 556 226 556 226 551 204 c 1,6,-1
 222 204 l 1,7,8
 228 162 228 162 249 145 c 128,-1,9
 270 128 270 128 308 128 c 0,10,11
 369 128 369 128 383 176 c 1,12,-1
 546 129 l 1,13,14
 527 61 527 61 463.5 25.5 c 128,-1,15
 400 -10 400 -10 308 -10 c 0,16,17
 172 -10 172 -10 100 57.5 c 128,-1,18
 28 125 28 125 28 250 c 0,19,20
 28 374 28 374 98.5 442 c 128,-1,21
 169 510 169 510 297 510 c 0,22,23
 422 510 422 510 489 443.5 c 128,-1,24
 556 377 556 377 556 262 c 0,4,5
298 373 m 0,25,26
 265 373 265 373 246.5 354 c 128,-1,27
 228 335 228 335 222 292 c 1,28,-1
 367 292 l 1,29,30
 356 373 356 373 298 373 c 0,25,26
EndSplineSet
Substitution2: "'smcp' Lowercase to Small Capitals lookup 12 subtable" eacute.sc
Substitution2: "'aalt' Access All Alternates lookup 0 subtable" eacute.sc
EndChar

StartChar: ecircumflex
Encoding: 234 234 172
Width: 583
GlyphClass: 2
Flags: W
AnchorPoint: "Anchor-0" 296 0 basechar 0
LayerCount: 2
Fore
SplineSet
296 631 m 1,0,-1
 234 552 l 1,1,-1
 93 552 l 1,2,-1
 200 727 l 1,3,-1
 392 727 l 1,4,-1
 499 552 l 1,5,-1
 358 552 l 1,6,-1
 296 631 l 1,0,-1
556 262 m 0,7,8
 556 226 556 226 551 204 c 1,9,-1
 222 204 l 1,10,11
 228 162 228 162 249 145 c 128,-1,12
 270 128 270 128 308 128 c 0,13,14
 369 128 369 128 383 176 c 1,15,-1
 546 129 l 1,16,17
 527 61 527 61 463.5 25.5 c 128,-1,18
 400 -10 400 -10 308 -10 c 0,19,20
 172 -10 172 -10 100 57.5 c 128,-1,21
 28 125 28 125 28 250 c 0,22,23
 28 374 28 374 98.5 442 c 128,-1,24
 169 510 169 510 297 510 c 0,25,26
 422 510 422 510 489 443.5 c 128,-1,27
 556 377 556 377 556 262 c 0,7,8
298 373 m 0,28,29
 265 373 265 373 246.5 354 c 128,-1,30
 228 335 228 335 222 292 c 1,31,-1
 367 292 l 1,32,33
 356 373 356 373 298 373 c 0,28,29
EndSplineSet
Substitution2: "'smcp' Lowercase to Small Capitals lookup 12 subtable" ecircumflex.sc
Substitution2: "'aalt' Access All Alternates lookup 0 subtable" ecircumflex.sc
EndChar

StartChar: edieresis
Encoding: 235 235 173
Width: 583
GlyphClass: 2
Flags: W
AnchorPoint: "Anchor-0" 296 0 basechar 0
LayerCount: 2
Fore
SplineSet
180 546 m 0,0,1
 136 546 136 546 111 568.5 c 128,-1,2
 86 591 86 591 86 631 c 128,-1,3
 86 671 86 671 111 693.5 c 128,-1,4
 136 716 136 716 180 716 c 0,5,6
 226 716 226 716 251 693.5 c 128,-1,7
 276 671 276 671 276 631 c 0,8,9
 276 590 276 590 251 568 c 128,-1,10
 226 546 226 546 180 546 c 0,0,1
409 546 m 0,11,12
 365 546 365 546 340 568.5 c 128,-1,13
 315 591 315 591 315 631 c 128,-1,14
 315 671 315 671 340 693.5 c 128,-1,15
 365 716 365 716 409 716 c 0,16,17
 455 716 455 716 480 693.5 c 128,-1,18
 505 671 505 671 505 631 c 0,19,20
 505 590 505 590 480 568 c 128,-1,21
 455 546 455 546 409 546 c 0,11,12
556 262 m 0,22,23
 556 226 556 226 551 204 c 1,24,-1
 222 204 l 1,25,26
 228 162 228 162 249 145 c 128,-1,27
 270 128 270 128 308 128 c 0,28,29
 369 128 369 128 383 176 c 1,30,-1
 546 129 l 1,31,32
 527 61 527 61 463.5 25.5 c 128,-1,33
 400 -10 400 -10 308 -10 c 0,34,35
 172 -10 172 -10 100 57.5 c 128,-1,36
 28 125 28 125 28 250 c 0,37,38
 28 374 28 374 98.5 442 c 128,-1,39
 169 510 169 510 297 510 c 0,40,41
 422 510 422 510 489 443.5 c 128,-1,42
 556 377 556 377 556 262 c 0,22,23
298 373 m 0,43,44
 265 373 265 373 246.5 354 c 128,-1,45
 228 335 228 335 222 292 c 1,46,-1
 367 292 l 1,47,48
 356 373 356 373 298 373 c 0,43,44
EndSplineSet
Substitution2: "'smcp' Lowercase to Small Capitals lookup 12 subtable" edieresis.sc
Substitution2: "'aalt' Access All Alternates lookup 0 subtable" edieresis.sc
EndChar

StartChar: igrave
Encoding: 236 236 174
Width: 300
GlyphClass: 2
Flags: W
LayerCount: 2
Fore
SplineSet
162 734 m 1,0,-1
 225 559 l 1,1,-1
 81 559 l 1,2,-1
 -21 734 l 1,3,-1
 162 734 l 1,0,-1
251 500 m 1,4,-1
 251 0 l 1,5,-1
 49 0 l 1,6,-1
 49 500 l 1,7,-1
 251 500 l 1,4,-1
EndSplineSet
Substitution2: "'smcp' Lowercase to Small Capitals lookup 12 subtable" igrave.sc
Substitution2: "'aalt' Access All Alternates lookup 0 subtable" igrave.sc
EndChar

StartChar: iacute
Encoding: 237 237 175
Width: 300
GlyphClass: 2
Flags: W
LayerCount: 2
Fore
SplineSet
129 734 m 1,0,-1
 312 734 l 1,1,-1
 210 559 l 1,2,-1
 66 559 l 1,3,-1
 129 734 l 1,0,-1
251 500 m 1,4,-1
 251 0 l 1,5,-1
 49 0 l 1,6,-1
 49 500 l 1,7,-1
 251 500 l 1,4,-1
EndSplineSet
Substitution2: "'smcp' Lowercase to Small Capitals lookup 12 subtable" iacute.sc
Substitution2: "'aalt' Access All Alternates lookup 0 subtable" iacute.sc
EndChar

StartChar: icircumflex
Encoding: 238 238 176
Width: 300
GlyphClass: 2
Flags: W
LayerCount: 2
Fore
SplineSet
353 552 m 1,0,-1
 212 552 l 1,1,-1
 150 631 l 1,2,-1
 88 552 l 1,3,-1
 -53 552 l 1,4,-1
 54 727 l 1,5,-1
 246 727 l 1,6,-1
 353 552 l 1,0,-1
251 500 m 1,7,-1
 251 0 l 1,8,-1
 49 0 l 1,9,-1
 49 500 l 1,10,-1
 251 500 l 1,7,-1
EndSplineSet
Substitution2: "'smcp' Lowercase to Small Capitals lookup 12 subtable" icircumflex.sc
Substitution2: "'aalt' Access All Alternates lookup 0 subtable" icircumflex.sc
EndChar

StartChar: idieresis
Encoding: 239 239 177
Width: 300
GlyphClass: 2
Flags: W
LayerCount: 2
Fore
SplineSet
48 544 m 128,-1,1
 -41 544 -41 544 -41 631 c 128,-1,2
 -41 718 -41 718 48 718 c 128,-1,3
 137 718 137 718 137 631 c 128,-1,0
 137 544 137 544 48 544 c 128,-1,1
252 544 m 128,-1,5
 163 544 163 544 163 631 c 128,-1,6
 163 718 163 718 252 718 c 128,-1,7
 341 718 341 718 341 631 c 128,-1,4
 341 544 341 544 252 544 c 128,-1,5
251 500 m 1,8,-1
 251 0 l 1,9,-1
 49 0 l 1,10,-1
 49 500 l 1,11,-1
 251 500 l 1,8,-1
EndSplineSet
Substitution2: "'smcp' Lowercase to Small Capitals lookup 12 subtable" idieresis.sc
Substitution2: "'aalt' Access All Alternates lookup 0 subtable" idieresis.sc
EndChar

StartChar: eth
Encoding: 240 240 178
Width: 598
GlyphClass: 2
Flags: W
LayerCount: 2
Fore
SplineSet
575 613 m 1,0,-1
 473 604 l 1,1,2
 567 480 567 480 567 308 c 0,3,4
 567 139 567 139 502.5 64.5 c 128,-1,5
 438 -10 438 -10 291 -10 c 0,6,7
 171 -10 171 -10 102.5 57 c 128,-1,8
 34 124 34 124 34 245 c 0,9,10
 34 364 34 364 101 431.5 c 128,-1,11
 168 499 168 499 281 499 c 0,12,13
 377 499 377 499 414 430 c 1,14,15
 396 510 396 510 341 574 c 1,16,-1
 186 544 l 1,17,-1
 175 602 l 1,18,-1
 300 616 l 1,19,20
 248 663 248 663 165 719 c 1,21,-1
 336 719 l 1,22,23
 390 692 390 692 438 644 c 1,24,-1
 560 671 l 1,25,-1
 575 613 l 1,0,-1
305 129 m 0,26,27
 344 129 344 129 361 156.5 c 128,-1,28
 378 184 378 184 378 245 c 0,29,30
 378 314 378 314 361 343 c 128,-1,31
 344 372 344 372 306 372 c 0,32,33
 269 372 269 372 253 343 c 128,-1,34
 237 314 237 314 237 245 c 0,35,36
 237 184 237 184 253 156.5 c 128,-1,37
 269 129 269 129 305 129 c 0,26,27
EndSplineSet
Substitution2: "'smcp' Lowercase to Small Capitals lookup 12 subtable" eth.sc
Substitution2: "'aalt' Access All Alternates lookup 0 subtable" eth.sc
EndChar

StartChar: ntilde
Encoding: 241 241 179
Width: 620
GlyphClass: 2
Flags: W
AnchorPoint: "Anchor-0" 310 0 basechar 0
LayerCount: 2
Fore
SplineSet
247 604 m 0,0,1
 219 604 219 604 213 552 c 1,2,-1
 105 552 l 1,3,4
 111 720 111 720 245 720 c 0,5,6
 271 720 271 720 292.5 711.5 c 128,-1,7
 314 703 314 703 324.5 693.5 c 128,-1,8
 335 684 335 684 348 675.5 c 128,-1,9
 361 667 361 667 373 667 c 0,10,11
 401 667 401 667 407 719 c 1,12,-1
 515 719 l 1,13,14
 509 550 509 550 375 550 c 0,15,16
 341 550 341 550 317.5 563.5 c 128,-1,17
 294 577 294 577 278 590.5 c 128,-1,18
 262 604 262 604 247 604 c 0,0,1
408 510 m 0,19,20
 485 510 485 510 528.5 465 c 128,-1,21
 572 420 572 420 572 338 c 2,22,-1
 572 0 l 1,23,-1
 370 0 l 1,24,-1
 370 284 l 2,25,26
 370 359 370 359 319 359 c 0,27,28
 251 359 251 359 251 263 c 2,29,-1
 251 0 l 1,30,-1
 49 0 l 1,31,-1
 49 500 l 1,32,-1
 231 500 l 1,33,-1
 236 397 l 1,34,35
 282 510 282 510 408 510 c 0,19,20
EndSplineSet
Substitution2: "Single Substitution lookup 57 subtable" ntilde.swsh
Substitution2: "'swsh' Swash lookup 38 subtable" ntilde.swsh
Substitution2: "'smcp' Lowercase to Small Capitals lookup 12 subtable" ntilde.sc
AlternateSubs2: "'aalt' Access All Alternates lookup 1 subtable" ntilde.sc ntilde.swsh
EndChar

StartChar: ograve
Encoding: 242 242 180
Width: 600
GlyphClass: 2
Flags: W
LayerCount: 2
Fore
SplineSet
312 734 m 1,0,-1
 375 559 l 1,1,-1
 231 559 l 1,2,-1
 129 734 l 1,3,-1
 312 734 l 1,0,-1
300 510 m 128,-1,5
 429 510 429 510 500.5 441.5 c 128,-1,6
 572 373 572 373 572 250 c 128,-1,7
 572 127 572 127 500.5 58.5 c 128,-1,8
 429 -10 429 -10 300 -10 c 128,-1,9
 171 -10 171 -10 99.5 58.5 c 128,-1,10
 28 127 28 127 28 250 c 128,-1,11
 28 373 28 373 99.5 441.5 c 128,-1,4
 171 510 171 510 300 510 c 128,-1,5
300 371 m 128,-1,13
 262 371 262 371 246.5 344.5 c 128,-1,14
 231 318 231 318 231 250 c 128,-1,15
 231 182 231 182 246.5 155.5 c 128,-1,16
 262 129 262 129 300 129 c 128,-1,17
 338 129 338 129 353.5 155.5 c 128,-1,18
 369 182 369 182 369 250 c 128,-1,19
 369 318 369 318 353.5 344.5 c 128,-1,12
 338 371 338 371 300 371 c 128,-1,13
EndSplineSet
Substitution2: "'smcp' Lowercase to Small Capitals lookup 12 subtable" ograve.sc
Substitution2: "'aalt' Access All Alternates lookup 0 subtable" ograve.sc
EndChar

StartChar: oacute
Encoding: 243 243 181
Width: 600
GlyphClass: 2
Flags: W
LayerCount: 2
Fore
SplineSet
277 734 m 1,0,-1
 460 734 l 1,1,-1
 358 559 l 1,2,-1
 214 559 l 1,3,-1
 277 734 l 1,0,-1
300 510 m 128,-1,5
 429 510 429 510 500.5 441.5 c 128,-1,6
 572 373 572 373 572 250 c 128,-1,7
 572 127 572 127 500.5 58.5 c 128,-1,8
 429 -10 429 -10 300 -10 c 128,-1,9
 171 -10 171 -10 99.5 58.5 c 128,-1,10
 28 127 28 127 28 250 c 128,-1,11
 28 373 28 373 99.5 441.5 c 128,-1,4
 171 510 171 510 300 510 c 128,-1,5
300 371 m 128,-1,13
 262 371 262 371 246.5 344.5 c 128,-1,14
 231 318 231 318 231 250 c 128,-1,15
 231 182 231 182 246.5 155.5 c 128,-1,16
 262 129 262 129 300 129 c 128,-1,17
 338 129 338 129 353.5 155.5 c 128,-1,18
 369 182 369 182 369 250 c 128,-1,19
 369 318 369 318 353.5 344.5 c 128,-1,12
 338 371 338 371 300 371 c 128,-1,13
EndSplineSet
Substitution2: "'smcp' Lowercase to Small Capitals lookup 12 subtable" oacute.sc
Substitution2: "'aalt' Access All Alternates lookup 0 subtable" oacute.sc
EndChar

StartChar: ocircumflex
Encoding: 244 244 182
Width: 600
GlyphClass: 2
Flags: W
LayerCount: 2
Fore
SplineSet
503 552 m 1,0,-1
 362 552 l 1,1,-1
 300 631 l 1,2,-1
 238 552 l 1,3,-1
 97 552 l 1,4,-1
 204 727 l 1,5,-1
 396 727 l 1,6,-1
 503 552 l 1,0,-1
300 510 m 128,-1,8
 429 510 429 510 500.5 441.5 c 128,-1,9
 572 373 572 373 572 250 c 128,-1,10
 572 127 572 127 500.5 58.5 c 128,-1,11
 429 -10 429 -10 300 -10 c 128,-1,12
 171 -10 171 -10 99.5 58.5 c 128,-1,13
 28 127 28 127 28 250 c 128,-1,14
 28 373 28 373 99.5 441.5 c 128,-1,7
 171 510 171 510 300 510 c 128,-1,8
300 371 m 128,-1,16
 262 371 262 371 246.5 344.5 c 128,-1,17
 231 318 231 318 231 250 c 128,-1,18
 231 182 231 182 246.5 155.5 c 128,-1,19
 262 129 262 129 300 129 c 128,-1,20
 338 129 338 129 353.5 155.5 c 128,-1,21
 369 182 369 182 369 250 c 128,-1,22
 369 318 369 318 353.5 344.5 c 128,-1,15
 338 371 338 371 300 371 c 128,-1,16
EndSplineSet
Substitution2: "'smcp' Lowercase to Small Capitals lookup 12 subtable" ocircumflex.sc
Substitution2: "'aalt' Access All Alternates lookup 0 subtable" ocircumflex.sc
EndChar

StartChar: otilde
Encoding: 245 245 183
Width: 600
GlyphClass: 2
Flags: W
LayerCount: 2
Fore
SplineSet
505 719 m 1,0,1
 499 550 499 550 365 550 c 0,2,3
 331 550 331 550 307.5 563.5 c 128,-1,4
 284 577 284 577 268 590.5 c 128,-1,5
 252 604 252 604 237 604 c 0,6,7
 209 604 209 604 203 552 c 1,8,-1
 95 552 l 1,9,10
 101 720 101 720 235 720 c 0,11,12
 261 720 261 720 282.5 711.5 c 128,-1,13
 304 703 304 703 314.5 693.5 c 128,-1,14
 325 684 325 684 338 675.5 c 128,-1,15
 351 667 351 667 363 667 c 0,16,17
 391 667 391 667 397 719 c 1,18,-1
 505 719 l 1,0,1
300 510 m 128,-1,20
 429 510 429 510 500.5 441.5 c 128,-1,21
 572 373 572 373 572 250 c 128,-1,22
 572 127 572 127 500.5 58.5 c 128,-1,23
 429 -10 429 -10 300 -10 c 128,-1,24
 171 -10 171 -10 99.5 58.5 c 128,-1,25
 28 127 28 127 28 250 c 128,-1,26
 28 373 28 373 99.5 441.5 c 128,-1,19
 171 510 171 510 300 510 c 128,-1,20
300 371 m 128,-1,28
 262 371 262 371 246.5 344.5 c 128,-1,29
 231 318 231 318 231 250 c 128,-1,30
 231 182 231 182 246.5 155.5 c 128,-1,31
 262 129 262 129 300 129 c 128,-1,32
 338 129 338 129 353.5 155.5 c 128,-1,33
 369 182 369 182 369 250 c 128,-1,34
 369 318 369 318 353.5 344.5 c 128,-1,27
 338 371 338 371 300 371 c 128,-1,28
EndSplineSet
Substitution2: "'smcp' Lowercase to Small Capitals lookup 12 subtable" otilde.sc
Substitution2: "'aalt' Access All Alternates lookup 0 subtable" otilde.sc
EndChar

StartChar: odieresis
Encoding: 246 246 184
Width: 600
GlyphClass: 2
Flags: W
LayerCount: 2
Fore
SplineSet
184 716 m 0,0,1
 230 716 230 716 255 693.5 c 128,-1,2
 280 671 280 671 280 631 c 0,3,4
 280 590 280 590 255 568 c 128,-1,5
 230 546 230 546 184 546 c 0,6,7
 140 546 140 546 115 568.5 c 128,-1,8
 90 591 90 591 90 631 c 128,-1,9
 90 671 90 671 115 693.5 c 128,-1,10
 140 716 140 716 184 716 c 0,0,1
413 716 m 0,11,12
 459 716 459 716 484 693.5 c 128,-1,13
 509 671 509 671 509 631 c 0,14,15
 509 590 509 590 484 568 c 128,-1,16
 459 546 459 546 413 546 c 0,17,18
 369 546 369 546 344 568.5 c 128,-1,19
 319 591 319 591 319 631 c 128,-1,20
 319 671 319 671 344 693.5 c 128,-1,21
 369 716 369 716 413 716 c 0,11,12
300 510 m 128,-1,23
 429 510 429 510 500.5 441.5 c 128,-1,24
 572 373 572 373 572 250 c 128,-1,25
 572 127 572 127 500.5 58.5 c 128,-1,26
 429 -10 429 -10 300 -10 c 128,-1,27
 171 -10 171 -10 99.5 58.5 c 128,-1,28
 28 127 28 127 28 250 c 128,-1,29
 28 373 28 373 99.5 441.5 c 128,-1,22
 171 510 171 510 300 510 c 128,-1,23
300 371 m 128,-1,31
 262 371 262 371 246.5 344.5 c 128,-1,32
 231 318 231 318 231 250 c 128,-1,33
 231 182 231 182 246.5 155.5 c 128,-1,34
 262 129 262 129 300 129 c 128,-1,35
 338 129 338 129 353.5 155.5 c 128,-1,36
 369 182 369 182 369 250 c 128,-1,37
 369 318 369 318 353.5 344.5 c 128,-1,30
 338 371 338 371 300 371 c 128,-1,31
EndSplineSet
Substitution2: "'smcp' Lowercase to Small Capitals lookup 12 subtable" odieresis.sc
Substitution2: "'aalt' Access All Alternates lookup 0 subtable" odieresis.sc
EndChar

StartChar: divide
Encoding: 247 247 185
Width: 604
GlyphClass: 2
Flags: W
LayerCount: 2
Fore
SplineSet
303 639 m 128,-1,1
 346 639 346 639 370 615.5 c 128,-1,2
 394 592 394 592 394 550 c 0,3,4
 394 509 394 509 370 485.5 c 128,-1,5
 346 462 346 462 303 462 c 128,-1,6
 260 462 260 462 235.5 485.5 c 128,-1,7
 211 509 211 509 211 550 c 0,8,9
 211 592 211 592 235.5 615.5 c 128,-1,0
 260 639 260 639 303 639 c 128,-1,1
557 397 m 1,10,-1
 557 259 l 1,11,-1
 47 259 l 1,12,-1
 47 397 l 1,13,-1
 557 397 l 1,10,-1
303 195 m 128,-1,15
 346 195 346 195 370 171.5 c 128,-1,16
 394 148 394 148 394 107 c 0,17,18
 394 65 394 65 370 42 c 128,-1,19
 346 19 346 19 303 19 c 0,20,21
 259 19 259 19 235 42 c 128,-1,22
 211 65 211 65 211 107 c 0,23,24
 211 148 211 148 235.5 171.5 c 128,-1,14
 260 195 260 195 303 195 c 128,-1,15
EndSplineSet
EndChar

StartChar: oslash
Encoding: 248 248 186
Width: 600
GlyphClass: 2
Flags: W
LayerCount: 2
Fore
SplineSet
300 510 m 0,0,1
 393 510 393 510 459 473 c 1,2,-1
 496 521 l 1,3,-1
 563 521 l 1,4,-1
 500 442 l 1,5,6
 572 375 572 375 572 250 c 0,7,8
 572 127 572 127 500.5 58.5 c 128,-1,9
 429 -10 429 -10 300 -10 c 0,10,11
 210 -10 210 -10 149 23 c 1,12,-1
 114 -24 l 1,13,-1
 47 -24 l 1,14,-1
 106 53 l 1,15,16
 28 120 28 120 28 250 c 0,17,18
 28 373 28 373 99.5 441.5 c 128,-1,19
 171 510 171 510 300 510 c 0,0,1
237 199 m 1,20,-1
 238 199 l 1,21,-1
 257 229 l 1,22,-1
 348 350 l 1,23,24
 333 371 333 371 300 371 c 0,25,26
 262 371 262 371 246.5 344.5 c 128,-1,27
 231 318 231 318 231 250 c 0,28,29
 231 222 231 222 237 199 c 1,20,-1
300 129 m 0,30,31
 338 129 338 129 353.5 155.5 c 128,-1,32
 369 182 369 182 369 250 c 0,33,34
 369 270 369 270 364 288 c 1,35,-1
 363 288 l 1,36,-1
 344 260 l 1,37,-1
 257 144 l 1,38,39
 271 129 271 129 300 129 c 0,30,31
EndSplineSet
Substitution2: "'smcp' Lowercase to Small Capitals lookup 12 subtable" oslash.sc
Substitution2: "'aalt' Access All Alternates lookup 0 subtable" oslash.sc
EndChar

StartChar: ugrave
Encoding: 249 249 187
Width: 620
GlyphClass: 2
Flags: W
LayerCount: 2
Fore
SplineSet
380 559 m 1,0,-1
 236 559 l 1,1,-1
 134 734 l 1,2,-1
 317 734 l 1,3,-1
 380 559 l 1,0,-1
369 500 m 1,4,-1
 571 500 l 1,5,-1
 571 0 l 1,6,-1
 389 0 l 1,7,-1
 384 99 l 1,8,9
 339 -10 339 -10 213 -10 c 0,10,11
 47 -10 47 -10 47 164 c 2,12,-1
 47 500 l 1,13,-1
 249 500 l 1,14,-1
 249 214 l 2,15,16
 249 174 249 174 261.5 157.5 c 128,-1,17
 274 141 274 141 301 141 c 0,18,19
 369 141 369 141 369 237 c 2,20,-1
 369 500 l 1,4,-1
EndSplineSet
Substitution2: "'smcp' Lowercase to Small Capitals lookup 12 subtable" ugrave.sc
Substitution2: "'aalt' Access All Alternates lookup 0 subtable" ugrave.sc
EndChar

StartChar: uacute
Encoding: 250 250 188
Width: 620
GlyphClass: 2
Flags: W
LayerCount: 2
Fore
SplineSet
465 734 m 1,0,-1
 363 559 l 1,1,-1
 219 559 l 1,2,-1
 282 734 l 1,3,-1
 465 734 l 1,0,-1
369 500 m 1,4,-1
 571 500 l 1,5,-1
 571 0 l 1,6,-1
 389 0 l 1,7,-1
 384 99 l 1,8,9
 339 -10 339 -10 213 -10 c 0,10,11
 47 -10 47 -10 47 164 c 2,12,-1
 47 500 l 1,13,-1
 249 500 l 1,14,-1
 249 214 l 2,15,16
 249 174 249 174 261.5 157.5 c 128,-1,17
 274 141 274 141 301 141 c 0,18,19
 369 141 369 141 369 237 c 2,20,-1
 369 500 l 1,4,-1
EndSplineSet
Substitution2: "'smcp' Lowercase to Small Capitals lookup 12 subtable" uacute.sc
Substitution2: "'aalt' Access All Alternates lookup 0 subtable" uacute.sc
EndChar

StartChar: ucircumflex
Encoding: 251 251 189
Width: 620
GlyphClass: 2
Flags: W
LayerCount: 2
Fore
SplineSet
305 631 m 1,0,-1
 243 552 l 1,1,-1
 102 552 l 1,2,-1
 209 727 l 1,3,-1
 401 727 l 1,4,-1
 508 552 l 1,5,-1
 367 552 l 1,6,-1
 305 631 l 1,0,-1
369 500 m 1,7,-1
 571 500 l 1,8,-1
 571 0 l 1,9,-1
 389 0 l 1,10,-1
 384 99 l 1,11,12
 339 -10 339 -10 213 -10 c 0,13,14
 47 -10 47 -10 47 164 c 2,15,-1
 47 500 l 1,16,-1
 249 500 l 1,17,-1
 249 214 l 2,18,19
 249 174 249 174 261.5 157.5 c 128,-1,20
 274 141 274 141 301 141 c 0,21,22
 369 141 369 141 369 237 c 2,23,-1
 369 500 l 1,7,-1
EndSplineSet
Substitution2: "'smcp' Lowercase to Small Capitals lookup 12 subtable" ucircumflex.sc
Substitution2: "'aalt' Access All Alternates lookup 0 subtable" ucircumflex.sc
EndChar

StartChar: udieresis
Encoding: 252 252 190
Width: 620
GlyphClass: 2
Flags: W
LayerCount: 2
Fore
SplineSet
189 546 m 0,0,1
 145 546 145 546 120 568.5 c 128,-1,2
 95 591 95 591 95 631 c 128,-1,3
 95 671 95 671 120 693.5 c 128,-1,4
 145 716 145 716 189 716 c 0,5,6
 235 716 235 716 260 693.5 c 128,-1,7
 285 671 285 671 285 631 c 0,8,9
 285 590 285 590 260 568 c 128,-1,10
 235 546 235 546 189 546 c 0,0,1
418 546 m 0,11,12
 374 546 374 546 349 568.5 c 128,-1,13
 324 591 324 591 324 631 c 128,-1,14
 324 671 324 671 349 693.5 c 128,-1,15
 374 716 374 716 418 716 c 0,16,17
 464 716 464 716 489 693.5 c 128,-1,18
 514 671 514 671 514 631 c 0,19,20
 514 590 514 590 489 568 c 128,-1,21
 464 546 464 546 418 546 c 0,11,12
369 500 m 1,22,-1
 571 500 l 1,23,-1
 571 0 l 1,24,-1
 389 0 l 1,25,-1
 384 99 l 1,26,27
 339 -10 339 -10 213 -10 c 0,28,29
 47 -10 47 -10 47 164 c 2,30,-1
 47 500 l 1,31,-1
 249 500 l 1,32,-1
 249 214 l 2,33,34
 249 174 249 174 261.5 157.5 c 128,-1,35
 274 141 274 141 301 141 c 0,36,37
 369 141 369 141 369 237 c 2,38,-1
 369 500 l 1,22,-1
EndSplineSet
Substitution2: "'smcp' Lowercase to Small Capitals lookup 12 subtable" udieresis.sc
Substitution2: "'aalt' Access All Alternates lookup 0 subtable" udieresis.sc
EndChar

StartChar: yacute
Encoding: 253 253 191
Width: 583
GlyphClass: 2
Flags: W
LayerCount: 2
Fore
SplineSet
291 734 m 1,0,-1
 474 734 l 1,1,-1
 372 559 l 1,2,-1
 228 559 l 1,3,-1
 291 734 l 1,0,-1
588 500 m 1,4,-1
 425 30 l 2,5,6
 379 -105 379 -105 316.5 -160 c 128,-1,7
 254 -215 254 -215 145 -215 c 0,8,9
 55 -215 55 -215 -1 -180 c 1,10,-1
 38 -50 l 1,11,12
 67 -71 67 -71 126 -71 c 0,13,14
 157 -71 157 -71 174 -63 c 128,-1,15
 191 -55 191 -55 199 -34 c 2,16,-1
 206 -15 l 1,17,-1
 145 127 l 1,18,-1
 -1 500 l 1,19,-1
 221 500 l 1,20,-1
 281 229 l 1,21,-1
 302 118 l 1,22,-1
 326 232 l 1,23,-1
 389 500 l 1,24,-1
 588 500 l 1,4,-1
EndSplineSet
Substitution2: "Single Substitution lookup 57 subtable" yacute.swsh
Substitution2: "'swsh' Swash lookup 38 subtable" yacute.swsh
Substitution2: "'smcp' Lowercase to Small Capitals lookup 12 subtable" yacute.sc
AlternateSubs2: "'aalt' Access All Alternates lookup 1 subtable" yacute.sc yacute.swsh
EndChar

StartChar: thorn
Encoding: 254 254 192
Width: 628
GlyphClass: 2
Flags: W
LayerCount: 2
Fore
SplineSet
403 510 m 0,0,1
 487 510 487 510 541 446.5 c 128,-1,2
 595 383 595 383 595 257 c 0,3,4
 595 196 595 196 582 148 c 128,-1,5
 569 100 569 100 549 71 c 128,-1,6
 529 42 529 42 502 23 c 128,-1,7
 475 4 475 4 449 -3 c 128,-1,8
 423 -10 423 -10 396 -10 c 0,9,10
 295 -10 295 -10 251 77 c 1,11,-1
 251 -210 l 1,12,-1
 49 -210 l 1,13,-1
 49 706 l 1,14,-1
 251 706 l 1,15,-1
 251 407 l 1,16,17
 296 510 296 510 403 510 c 0,0,1
320 135 m 0,18,19
 358 135 358 135 375 161 c 128,-1,20
 392 187 392 187 392 250 c 128,-1,21
 392 313 392 313 375 339.5 c 128,-1,22
 358 366 358 366 320 366 c 0,23,24
 251 366 251 366 251 254 c 2,25,-1
 251 246 l 2,26,27
 251 135 251 135 320 135 c 0,18,19
EndSplineSet
Substitution2: "'smcp' Lowercase to Small Capitals lookup 12 subtable" thorn.sc
Substitution2: "'aalt' Access All Alternates lookup 0 subtable" thorn.sc
EndChar

StartChar: ydieresis
Encoding: 255 255 193
Width: 583
GlyphClass: 2
Flags: W
LayerCount: 2
Fore
SplineSet
198 716 m 0,0,1
 244 716 244 716 269 693.5 c 128,-1,2
 294 671 294 671 294 631 c 0,3,4
 294 590 294 590 269 568 c 128,-1,5
 244 546 244 546 198 546 c 0,6,7
 154 546 154 546 129 568.5 c 128,-1,8
 104 591 104 591 104 631 c 128,-1,9
 104 671 104 671 129 693.5 c 128,-1,10
 154 716 154 716 198 716 c 0,0,1
427 716 m 0,11,12
 473 716 473 716 498 693.5 c 128,-1,13
 523 671 523 671 523 631 c 0,14,15
 523 590 523 590 498 568 c 128,-1,16
 473 546 473 546 427 546 c 0,17,18
 383 546 383 546 358 568.5 c 128,-1,19
 333 591 333 591 333 631 c 128,-1,20
 333 671 333 671 358 693.5 c 128,-1,21
 383 716 383 716 427 716 c 0,11,12
588 500 m 1,22,-1
 425 30 l 2,23,24
 379 -105 379 -105 316.5 -160 c 128,-1,25
 254 -215 254 -215 145 -215 c 0,26,27
 55 -215 55 -215 -1 -180 c 1,28,-1
 38 -50 l 1,29,30
 67 -71 67 -71 126 -71 c 0,31,32
 157 -71 157 -71 174 -63 c 128,-1,33
 191 -55 191 -55 199 -34 c 2,34,-1
 206 -15 l 1,35,-1
 145 127 l 1,36,-1
 -1 500 l 1,37,-1
 221 500 l 1,38,-1
 281 229 l 1,39,-1
 302 118 l 1,40,-1
 326 232 l 1,41,-1
 389 500 l 1,42,-1
 588 500 l 1,22,-1
EndSplineSet
Substitution2: "Single Substitution lookup 57 subtable" ydieresis.swsh
Substitution2: "'swsh' Swash lookup 38 subtable" ydieresis.swsh
Substitution2: "'smcp' Lowercase to Small Capitals lookup 12 subtable" ydieresis.sc
AlternateSubs2: "'aalt' Access All Alternates lookup 1 subtable" ydieresis.sc ydieresis.swsh
EndChar

StartChar: Amacron
Encoding: 256 256 194
Width: 684
GlyphClass: 2
Flags: W
LayerCount: 2
Fore
SplineSet
531 838 m 1,0,-1
 531 719 l 1,1,-1
 151 719 l 1,2,-1
 151 838 l 1,3,-1
 531 838 l 1,0,-1
477 0 m 1,4,-1
 440 137 l 1,5,-1
 239 137 l 1,6,-1
 201 0 l 1,7,-1
 -3 0 l 1,8,-1
 219 660 l 1,9,-1
 464 660 l 1,10,-1
 687 0 l 1,11,-1
 477 0 l 1,4,-1
275 269 m 1,12,-1
 405 269 l 1,13,-1
 369 400 l 1,14,-1
 341 508 l 1,15,-1
 339 508 l 1,16,-1
 312 401 l 1,17,-1
 275 269 l 1,12,-1
EndSplineSet
Substitution2: "Single Substitution lookup 56 subtable" Amacron.swsh
Substitution2: "'swsh' Swash lookup 32 subtable" Amacron.swsh
Substitution2: "'c2sc' Capitals to Small Capitals lookup 11 subtable" amacron.sc
AlternateSubs2: "'aalt' Access All Alternates lookup 1 subtable" amacron.sc Amacron.swsh
EndChar

StartChar: amacron
Encoding: 257 257 195
Width: 585
GlyphClass: 2
Flags: W
LayerCount: 2
Fore
SplineSet
467 678 m 1,0,-1
 467 559 l 1,1,-1
 87 559 l 1,2,-1
 87 678 l 1,3,-1
 467 678 l 1,0,-1
559 111 m 0,4,5
 576 111 576 111 587 115 c 1,6,-1
 571 8 l 1,7,8
 538 -10 538 -10 500 -10 c 0,9,10
 381 -10 381 -10 356 71 c 1,11,12
 310 -10 310 -10 178 -10 c 0,13,14
 102 -10 102 -10 62.5 21.5 c 128,-1,15
 23 53 23 53 23 112 c 0,16,17
 23 175 23 175 68 214 c 128,-1,18
 113 253 113 253 218 274 c 2,19,-1
 324 296 l 1,20,-1
 324 315 l 2,21,22
 324 344 324 344 309 360 c 128,-1,23
 294 376 294 376 267 376 c 0,24,25
 203 376 203 376 195 307 c 1,26,-1
 29 342 l 1,27,28
 40 422 40 422 101.5 466 c 128,-1,29
 163 510 163 510 274 510 c 0,30,31
 524 510 524 510 524 311 c 2,32,-1
 524 151 l 2,33,34
 524 111 524 111 559 111 c 0,4,5
259 108 m 0,35,36
 285 108 285 108 304.5 123.5 c 128,-1,37
 324 139 324 139 324 167 c 2,38,-1
 324 213 l 1,39,-1
 269 199 l 2,40,41
 217 186 217 186 217 147 c 128,-1,42
 217 108 217 108 259 108 c 0,35,36
EndSplineSet
Substitution2: "'smcp' Lowercase to Small Capitals lookup 12 subtable" amacron.sc
Substitution2: "'aalt' Access All Alternates lookup 0 subtable" amacron.sc
EndChar

StartChar: Abreve
Encoding: 258 258 196
Width: 684
GlyphClass: 2
Flags: W
LayerCount: 2
Fore
SplineSet
341 707 m 128,-1,1
 258 707 258 707 211.5 751.5 c 128,-1,2
 165 796 165 796 165 875 c 1,3,-1
 290 875 l 1,4,5
 290 814 290 814 341 814 c 128,-1,6
 392 814 392 814 392 875 c 1,7,-1
 517 875 l 1,8,9
 517 796 517 796 470.5 751.5 c 128,-1,0
 424 707 424 707 341 707 c 128,-1,1
477 0 m 1,10,-1
 440 137 l 1,11,-1
 239 137 l 1,12,-1
 201 0 l 1,13,-1
 -3 0 l 1,14,-1
 219 660 l 1,15,-1
 464 660 l 1,16,-1
 687 0 l 1,17,-1
 477 0 l 1,10,-1
275 269 m 1,18,-1
 405 269 l 1,19,-1
 369 400 l 1,20,-1
 341 508 l 1,21,-1
 339 508 l 1,22,-1
 312 401 l 1,23,-1
 275 269 l 1,18,-1
EndSplineSet
Substitution2: "Single Substitution lookup 56 subtable" Abreve.swsh
Substitution2: "'swsh' Swash lookup 32 subtable" Abreve.swsh
Substitution2: "'c2sc' Capitals to Small Capitals lookup 11 subtable" abreve.sc
AlternateSubs2: "'aalt' Access All Alternates lookup 1 subtable" abreve.sc Abreve.swsh
EndChar

StartChar: abreve
Encoding: 259 259 197
Width: 585
GlyphClass: 2
Flags: W
LayerCount: 2
Fore
SplineSet
277 547 m 128,-1,1
 194 547 194 547 147.5 591.5 c 128,-1,2
 101 636 101 636 101 715 c 1,3,-1
 226 715 l 1,4,5
 226 654 226 654 277 654 c 128,-1,6
 328 654 328 654 328 715 c 1,7,-1
 453 715 l 1,8,9
 453 636 453 636 406.5 591.5 c 128,-1,0
 360 547 360 547 277 547 c 128,-1,1
559 111 m 0,10,11
 576 111 576 111 587 115 c 1,12,-1
 571 8 l 1,13,14
 538 -10 538 -10 500 -10 c 0,15,16
 381 -10 381 -10 356 71 c 1,17,18
 310 -10 310 -10 178 -10 c 0,19,20
 102 -10 102 -10 62.5 21.5 c 128,-1,21
 23 53 23 53 23 112 c 0,22,23
 23 175 23 175 68 214 c 128,-1,24
 113 253 113 253 218 274 c 2,25,-1
 324 296 l 1,26,-1
 324 315 l 2,27,28
 324 344 324 344 309 360 c 128,-1,29
 294 376 294 376 267 376 c 0,30,31
 203 376 203 376 195 307 c 1,32,-1
 29 342 l 1,33,34
 40 422 40 422 101.5 466 c 128,-1,35
 163 510 163 510 274 510 c 0,36,37
 524 510 524 510 524 311 c 2,38,-1
 524 151 l 2,39,40
 524 111 524 111 559 111 c 0,10,11
259 108 m 0,41,42
 285 108 285 108 304.5 123.5 c 128,-1,43
 324 139 324 139 324 167 c 2,44,-1
 324 213 l 1,45,-1
 269 199 l 2,46,47
 217 186 217 186 217 147 c 128,-1,48
 217 108 217 108 259 108 c 0,41,42
EndSplineSet
Substitution2: "'smcp' Lowercase to Small Capitals lookup 12 subtable" abreve.sc
Substitution2: "'aalt' Access All Alternates lookup 0 subtable" abreve.sc
EndChar

StartChar: Aogonek
Encoding: 260 260 198
Width: 684
GlyphClass: 2
Flags: W
LayerCount: 2
Fore
SplineSet
667 -97 m 1,0,-1
 692 -190 l 1,1,2
 653 -215 653 -215 581 -215 c 0,3,4
 516 -215 516 -215 475.5 -185.5 c 128,-1,5
 435 -156 435 -156 435 -99 c 0,6,7
 435 -35 435 -35 495 0 c 1,8,-1
 477 0 l 1,9,-1
 440 137 l 1,10,-1
 239 137 l 1,11,-1
 201 0 l 1,12,-1
 -3 0 l 1,13,-1
 219 660 l 1,14,-1
 464 660 l 1,15,-1
 687 0 l 1,16,17
 572 -13 572 -13 572 -65 c 0,18,19
 572 -106 572 -106 624 -106 c 0,20,21
 653 -106 653 -106 667 -97 c 1,0,-1
275 269 m 1,22,-1
 405 269 l 1,23,-1
 369 400 l 1,24,-1
 341 508 l 1,25,-1
 339 508 l 1,26,-1
 312 401 l 1,27,-1
 275 269 l 1,22,-1
EndSplineSet
Substitution2: "Single Substitution lookup 56 subtable" Aogonek.swsh
Substitution2: "'swsh' Swash lookup 32 subtable" Aogonek.swsh
Substitution2: "'c2sc' Capitals to Small Capitals lookup 11 subtable" aogonek.sc
AlternateSubs2: "'aalt' Access All Alternates lookup 1 subtable" aogonek.sc Aogonek.swsh
EndChar

StartChar: aogonek
Encoding: 261 261 199
Width: 585
GlyphClass: 2
Flags: W
LayerCount: 2
Fore
SplineSet
514 -106 m 0,0,1
 543 -106 543 -106 557 -97 c 1,2,-1
 582 -190 l 1,3,4
 543 -215 543 -215 472 -215 c 0,5,6
 406 -215 406 -215 366 -185.5 c 128,-1,7
 326 -156 326 -156 326 -96 c 0,8,9
 326 -8 326 -8 429 19 c 1,10,11
 378 38 378 38 366 90 c 1,12,13
 324 -10 324 -10 178 -10 c 0,14,15
 102 -10 102 -10 62.5 21.5 c 128,-1,16
 23 53 23 53 23 112 c 0,17,18
 23 175 23 175 68 213.5 c 128,-1,19
 113 252 113 252 218 274 c 2,20,-1
 324 296 l 1,21,-1
 324 315 l 2,22,23
 324 344 324 344 309 360 c 128,-1,24
 294 376 294 376 267 376 c 0,25,26
 203 376 203 376 195 307 c 1,27,-1
 29 342 l 1,28,29
 40 422 40 422 101.5 466 c 128,-1,30
 163 510 163 510 274 510 c 0,31,32
 524 510 524 510 524 311 c 2,33,-1
 524 151 l 2,34,35
 524 111 524 111 559 111 c 0,36,37
 576 111 576 111 587 115 c 1,38,-1
 571 5 l 1,39,40
 464 -11 464 -11 464 -65 c 0,41,42
 464 -106 464 -106 514 -106 c 0,0,1
259 108 m 0,43,44
 285 108 285 108 304.5 123.5 c 128,-1,45
 324 139 324 139 324 167 c 2,46,-1
 324 213 l 1,47,-1
 269 199 l 2,48,49
 217 186 217 186 217 147 c 128,-1,50
 217 108 217 108 259 108 c 0,43,44
EndSplineSet
Substitution2: "'smcp' Lowercase to Small Capitals lookup 12 subtable" aogonek.sc
Substitution2: "'aalt' Access All Alternates lookup 0 subtable" aogonek.sc
EndChar

StartChar: Cacute
Encoding: 262 262 200
Width: 679
GlyphClass: 2
Flags: W
LayerCount: 2
Fore
SplineSet
330 879 m 1,0,-1
 515 879 l 1,1,-1
 421 715 l 1,2,-1
 277 715 l 1,3,-1
 330 879 l 1,0,-1
664 196 m 1,4,5
 611 -10 611 -10 367 -10 c 0,6,7
 212 -10 212 -10 124 80 c 128,-1,8
 36 170 36 170 36 330 c 128,-1,9
 36 490 36 490 124 580 c 128,-1,10
 212 670 212 670 366 670 c 0,11,12
 478 670 478 670 557 622.5 c 128,-1,13
 636 575 636 575 658 479 c 1,14,-1
 481 408 l 1,15,16
 470 469 470 469 445 491.5 c 128,-1,17
 420 514 420 514 372 514 c 0,18,19
 246 514 246 514 246 330 c 128,-1,20
 246 146 246 146 370 146 c 0,21,22
 420 146 420 146 446.5 169.5 c 128,-1,23
 473 193 473 193 482 245 c 1,24,-1
 664 196 l 1,4,5
EndSplineSet
Substitution2: "'c2sc' Capitals to Small Capitals lookup 11 subtable" cacute.sc
Substitution2: "'aalt' Access All Alternates lookup 0 subtable" cacute.sc
EndChar

StartChar: cacute
Encoding: 263 263 201
Width: 574
GlyphClass: 2
Flags: W
LayerCount: 2
Fore
SplineSet
274 734 m 1,0,-1
 457 734 l 1,1,-1
 355 559 l 1,2,-1
 211 559 l 1,3,-1
 274 734 l 1,0,-1
298 510 m 0,4,5
 425 510 425 510 484.5 463.5 c 128,-1,6
 544 417 544 417 552 347 c 1,7,-1
 365 290 l 1,8,9
 362 371 362 371 308 371 c 0,10,11
 268 371 268 371 249.5 342.5 c 128,-1,12
 231 314 231 314 231 248 c 128,-1,13
 231 182 231 182 250.5 155.5 c 128,-1,14
 270 129 270 129 307 129 c 0,15,16
 361 129 361 129 370 202 c 1,17,-1
 551 145 l 1,18,19
 546 78 546 78 482 34 c 128,-1,20
 418 -10 418 -10 308 -10 c 0,21,22
 172 -10 172 -10 100 57.5 c 128,-1,23
 28 125 28 125 28 250 c 0,24,25
 28 374 28 374 99 442 c 128,-1,26
 170 510 170 510 298 510 c 0,4,5
EndSplineSet
Substitution2: "'smcp' Lowercase to Small Capitals lookup 12 subtable" cacute.sc
Substitution2: "'aalt' Access All Alternates lookup 0 subtable" cacute.sc
EndChar

StartChar: Ccaron
Encoding: 268 268 202
Width: 679
GlyphClass: 2
Flags: W
LayerCount: 2
Fore
SplineSet
559 881 m 1,0,-1
 449 714 l 1,1,-1
 259 714 l 1,2,-1
 149 881 l 1,3,-1
 294 881 l 1,4,-1
 354 804 l 1,5,-1
 414 881 l 1,6,-1
 559 881 l 1,0,-1
664 196 m 1,7,8
 611 -10 611 -10 367 -10 c 0,9,10
 212 -10 212 -10 124 80 c 128,-1,11
 36 170 36 170 36 330 c 128,-1,12
 36 490 36 490 124 580 c 128,-1,13
 212 670 212 670 366 670 c 0,14,15
 478 670 478 670 557 622.5 c 128,-1,16
 636 575 636 575 658 479 c 1,17,-1
 481 408 l 1,18,19
 470 469 470 469 445 491.5 c 128,-1,20
 420 514 420 514 372 514 c 0,21,22
 246 514 246 514 246 330 c 128,-1,23
 246 146 246 146 370 146 c 0,24,25
 420 146 420 146 446.5 169.5 c 128,-1,26
 473 193 473 193 482 245 c 1,27,-1
 664 196 l 1,7,8
EndSplineSet
Substitution2: "'c2sc' Capitals to Small Capitals lookup 11 subtable" ccaron.sc
Substitution2: "'aalt' Access All Alternates lookup 0 subtable" ccaron.sc
EndChar

StartChar: ccaron
Encoding: 269 269 203
Width: 574
GlyphClass: 2
Flags: W
LayerCount: 2
Fore
SplineSet
495 734 m 1,0,-1
 388 559 l 1,1,-1
 196 559 l 1,2,-1
 89 734 l 1,3,-1
 230 734 l 1,4,-1
 292 655 l 1,5,-1
 354 734 l 1,6,-1
 495 734 l 1,0,-1
298 510 m 0,7,8
 425 510 425 510 484.5 463.5 c 128,-1,9
 544 417 544 417 552 347 c 1,10,-1
 365 290 l 1,11,12
 362 371 362 371 308 371 c 0,13,14
 268 371 268 371 249.5 342.5 c 128,-1,15
 231 314 231 314 231 248 c 128,-1,16
 231 182 231 182 250.5 155.5 c 128,-1,17
 270 129 270 129 307 129 c 0,18,19
 361 129 361 129 370 202 c 1,20,-1
 551 145 l 1,21,22
 546 78 546 78 482 34 c 128,-1,23
 418 -10 418 -10 308 -10 c 0,24,25
 172 -10 172 -10 100 57.5 c 128,-1,26
 28 125 28 125 28 250 c 0,27,28
 28 374 28 374 99 442 c 128,-1,29
 170 510 170 510 298 510 c 0,7,8
EndSplineSet
Substitution2: "'smcp' Lowercase to Small Capitals lookup 12 subtable" ccaron.sc
Substitution2: "'aalt' Access All Alternates lookup 0 subtable" ccaron.sc
EndChar

StartChar: Dcaron
Encoding: 270 270 204
Width: 717
GlyphClass: 2
Flags: W
LayerCount: 2
Fore
SplineSet
420 714 m 1,0,-1
 230 714 l 1,1,-1
 120 881 l 1,2,-1
 265 881 l 1,3,-1
 325 804 l 1,4,-1
 385 881 l 1,5,-1
 530 881 l 1,6,-1
 420 714 l 1,0,-1
364 660 m 2,7,8
 518 660 518 660 599.5 574.5 c 128,-1,9
 681 489 681 489 681 330 c 128,-1,10
 681 171 681 171 599.5 85.5 c 128,-1,11
 518 0 518 0 364 0 c 2,12,-1
 61 0 l 1,13,-1
 61 660 l 1,14,-1
 364 660 l 2,7,8
339 149 m 2,15,16
 411 149 411 149 441 192.5 c 128,-1,17
 471 236 471 236 471 330 c 128,-1,18
 471 424 471 424 441 467.5 c 128,-1,19
 411 511 411 511 339 511 c 2,20,-1
 265 511 l 1,21,-1
 265 149 l 1,22,-1
 339 149 l 2,15,16
EndSplineSet
Substitution2: "'c2sc' Capitals to Small Capitals lookup 11 subtable" dcaron.sc
Substitution2: "'aalt' Access All Alternates lookup 0 subtable" dcaron.sc
EndChar

StartChar: dcaron
Encoding: 271 271 205
Width: 740
GlyphClass: 2
Flags: W
LayerCount: 2
Fore
SplineSet
637 706 m 1,0,-1
 786 706 l 1,1,-1
 729 452 l 1,2,-1
 616 452 l 1,3,-1
 637 706 l 1,0,-1
376 415 m 1,4,-1
 376 706 l 1,5,-1
 578 706 l 1,6,-1
 578 0 l 1,7,-1
 397 0 l 1,8,-1
 390 97 l 1,9,10
 368 48 368 48 327 19 c 128,-1,11
 286 -10 286 -10 230 -10 c 0,12,13
 136 -10 136 -10 84 58 c 128,-1,14
 32 126 32 126 32 248 c 0,15,16
 32 372 32 372 84.5 441 c 128,-1,17
 137 510 137 510 231 510 c 0,18,19
 333 510 333 510 376 415 c 1,4,-1
307 134 m 0,20,21
 376 134 376 134 376 246 c 2,22,-1
 376 254 l 2,23,24
 376 365 376 365 307 365 c 0,25,26
 236 365 236 365 236 250 c 0,27,28
 236 134 236 134 307 134 c 0,20,21
EndSplineSet
Substitution2: "'smcp' Lowercase to Small Capitals lookup 12 subtable" dcaron.sc
Substitution2: "'aalt' Access All Alternates lookup 0 subtable" dcaron.sc
EndChar

StartChar: Dcroat
Encoding: 272 272 206
Width: 744
GlyphClass: 2
Flags: W
LayerCount: 2
Fore
SplineSet
391 660 m 2,0,1
 545 660 545 660 626.5 574.5 c 128,-1,2
 708 489 708 489 708 330 c 128,-1,3
 708 171 708 171 626.5 85.5 c 128,-1,4
 545 0 545 0 391 0 c 2,5,-1
 88 0 l 1,6,-1
 88 283 l 1,7,-1
 10 283 l 1,8,-1
 10 373 l 1,9,-1
 88 373 l 1,10,-1
 88 660 l 1,11,-1
 391 660 l 2,0,1
366 149 m 2,12,13
 438 149 438 149 468.5 192.5 c 128,-1,14
 499 236 499 236 499 330 c 128,-1,15
 499 424 499 424 468.5 467.5 c 128,-1,16
 438 511 438 511 366 511 c 2,17,-1
 293 511 l 1,18,-1
 293 373 l 1,19,-1
 399 373 l 1,20,-1
 399 283 l 1,21,-1
 293 283 l 1,22,-1
 293 149 l 1,23,-1
 366 149 l 2,12,13
EndSplineSet
Substitution2: "'c2sc' Capitals to Small Capitals lookup 11 subtable" dcroat.sc
Substitution2: "'aalt' Access All Alternates lookup 0 subtable" dcroat.sc
EndChar

StartChar: dcroat
Encoding: 273 273 207
Width: 627
GlyphClass: 2
Flags: W
LayerCount: 2
Fore
SplineSet
663 629 m 1,0,-1
 663 544 l 1,1,-1
 578 544 l 1,2,-1
 578 0 l 1,3,-1
 397 0 l 1,4,-1
 390 97 l 1,5,6
 368 48 368 48 327 19 c 128,-1,7
 286 -10 286 -10 230 -10 c 0,8,9
 136 -10 136 -10 84 58 c 128,-1,10
 32 126 32 126 32 248 c 0,11,12
 32 372 32 372 84.5 441 c 128,-1,13
 137 510 137 510 231 510 c 0,14,15
 333 510 333 510 376 415 c 1,16,-1
 376 544 l 1,17,-1
 256 544 l 1,18,-1
 256 629 l 1,19,-1
 376 629 l 1,20,-1
 376 706 l 1,21,-1
 578 706 l 1,22,-1
 578 629 l 1,23,-1
 663 629 l 1,0,-1
307 134 m 0,24,25
 376 134 376 134 376 246 c 2,26,-1
 376 254 l 2,27,28
 376 365 376 365 307 365 c 0,29,30
 236 365 236 365 236 250 c 0,31,32
 236 134 236 134 307 134 c 0,24,25
EndSplineSet
Substitution2: "'smcp' Lowercase to Small Capitals lookup 12 subtable" dcroat.sc
Substitution2: "'aalt' Access All Alternates lookup 0 subtable" dcroat.sc
EndChar

StartChar: Emacron
Encoding: 274 274 208
Width: 628
GlyphClass: 2
Flags: W
AnchorPoint: "Anchor-0" 331 0 basechar 0
LayerCount: 2
Fore
SplineSet
508 838 m 1,0,-1
 508 719 l 1,1,-1
 128 719 l 1,2,-1
 128 838 l 1,3,-1
 508 838 l 1,0,-1
265 153 m 1,4,-1
 606 153 l 1,5,-1
 606 0 l 1,6,-1
 61 0 l 1,7,-1
 61 660 l 1,8,-1
 593 660 l 1,9,-1
 593 507 l 1,10,-1
 265 507 l 1,11,-1
 265 400 l 1,12,-1
 527 400 l 1,13,-1
 527 258 l 1,14,-1
 265 258 l 1,15,-1
 265 153 l 1,4,-1
EndSplineSet
Substitution2: "Single Substitution lookup 57 subtable" Emacron.swsh.001
Substitution2: "Single Substitution lookup 56 subtable" Emacron.swsh
AlternateSubs2: "'swsh' Swash lookup 33 subtable" Emacron.swsh Emacron.swsh.001
Substitution2: "'c2sc' Capitals to Small Capitals lookup 11 subtable" emacron.sc
AlternateSubs2: "'aalt' Access All Alternates lookup 1 subtable" emacron.sc Emacron.swsh Emacron.swsh.001
EndChar

StartChar: emacron
Encoding: 275 275 209
Width: 583
GlyphClass: 2
Flags: W
AnchorPoint: "Anchor-0" 296 0 basechar 0
LayerCount: 2
Fore
SplineSet
486 678 m 1,0,-1
 486 559 l 1,1,-1
 106 559 l 1,2,-1
 106 678 l 1,3,-1
 486 678 l 1,0,-1
556 262 m 0,4,5
 556 226 556 226 551 204 c 1,6,-1
 222 204 l 1,7,8
 228 162 228 162 249 145 c 128,-1,9
 270 128 270 128 308 128 c 0,10,11
 369 128 369 128 383 176 c 1,12,-1
 546 129 l 1,13,14
 527 61 527 61 463.5 25.5 c 128,-1,15
 400 -10 400 -10 308 -10 c 0,16,17
 172 -10 172 -10 100 57.5 c 128,-1,18
 28 125 28 125 28 250 c 0,19,20
 28 374 28 374 98.5 442 c 128,-1,21
 169 510 169 510 297 510 c 0,22,23
 422 510 422 510 489 443.5 c 128,-1,24
 556 377 556 377 556 262 c 0,4,5
298 373 m 0,25,26
 265 373 265 373 246.5 354 c 128,-1,27
 228 335 228 335 222 292 c 1,28,-1
 367 292 l 1,29,30
 356 373 356 373 298 373 c 0,25,26
EndSplineSet
Substitution2: "'smcp' Lowercase to Small Capitals lookup 12 subtable" emacron.sc
Substitution2: "'aalt' Access All Alternates lookup 0 subtable" emacron.sc
EndChar

StartChar: Edotaccent
Encoding: 278 278 210
Width: 628
GlyphClass: 2
Flags: W
AnchorPoint: "Anchor-0" 331 0 basechar 0
LayerCount: 2
Fore
SplineSet
318 709 m 0,0,1
 216 709 216 709 216 796 c 0,2,3
 216 884 216 884 318 884 c 0,4,5
 423 884 423 884 423 796 c 0,6,7
 423 709 423 709 318 709 c 0,0,1
265 153 m 1,8,-1
 606 153 l 1,9,-1
 606 0 l 1,10,-1
 61 0 l 1,11,-1
 61 660 l 1,12,-1
 593 660 l 1,13,-1
 593 507 l 1,14,-1
 265 507 l 1,15,-1
 265 400 l 1,16,-1
 527 400 l 1,17,-1
 527 258 l 1,18,-1
 265 258 l 1,19,-1
 265 153 l 1,8,-1
EndSplineSet
Substitution2: "Single Substitution lookup 57 subtable" Edotaccent.swsh.001
Substitution2: "Single Substitution lookup 56 subtable" Edotaccent.swsh
AlternateSubs2: "'swsh' Swash lookup 33 subtable" Edotaccent.swsh Edotaccent.swsh.001
Substitution2: "'c2sc' Capitals to Small Capitals lookup 11 subtable" edotaccent.sc
AlternateSubs2: "'aalt' Access All Alternates lookup 1 subtable" edotaccent.sc Edotaccent.swsh Edotaccent.swsh.001
EndChar

StartChar: edotaccent
Encoding: 279 279 211
Width: 583
GlyphClass: 2
Flags: W
AnchorPoint: "Anchor-0" 296 0 basechar 0
LayerCount: 2
Fore
SplineSet
296 549 m 0,0,1
 194 549 194 549 194 636 c 0,2,3
 194 724 194 724 296 724 c 0,4,5
 401 724 401 724 401 636 c 0,6,7
 401 549 401 549 296 549 c 0,0,1
556 262 m 0,8,9
 556 226 556 226 551 204 c 1,10,-1
 222 204 l 1,11,12
 228 162 228 162 249 145 c 128,-1,13
 270 128 270 128 308 128 c 0,14,15
 369 128 369 128 383 176 c 1,16,-1
 546 129 l 1,17,18
 527 61 527 61 463.5 25.5 c 128,-1,19
 400 -10 400 -10 308 -10 c 0,20,21
 172 -10 172 -10 100 57.5 c 128,-1,22
 28 125 28 125 28 250 c 0,23,24
 28 374 28 374 98.5 442 c 128,-1,25
 169 510 169 510 297 510 c 0,26,27
 422 510 422 510 489 443.5 c 128,-1,28
 556 377 556 377 556 262 c 0,8,9
298 373 m 0,29,30
 265 373 265 373 246.5 354 c 128,-1,31
 228 335 228 335 222 292 c 1,32,-1
 367 292 l 1,33,34
 356 373 356 373 298 373 c 0,29,30
EndSplineSet
Substitution2: "'smcp' Lowercase to Small Capitals lookup 12 subtable" edotaccent.sc
Substitution2: "'aalt' Access All Alternates lookup 0 subtable" edotaccent.sc
EndChar

StartChar: Eogonek
Encoding: 280 280 212
Width: 628
GlyphClass: 2
Flags: W
AnchorPoint: "Anchor-0" 331 0 basechar 0
LayerCount: 2
Fore
SplineSet
586 -97 m 1,0,-1
 611 -190 l 1,1,2
 572 -215 572 -215 500 -215 c 0,3,4
 436 -215 436 -215 395 -186 c 128,-1,5
 354 -157 354 -157 354 -100 c 0,6,7
 354 -35 354 -35 427 0 c 1,8,-1
 61 0 l 1,9,-1
 61 660 l 1,10,-1
 593 660 l 1,11,-1
 593 507 l 1,12,-1
 265 507 l 1,13,-1
 265 400 l 1,14,-1
 527 400 l 1,15,-1
 527 258 l 1,16,-1
 265 258 l 1,17,-1
 265 153 l 1,18,-1
 606 153 l 1,19,-1
 606 0 l 1,20,21
 491 -13 491 -13 491 -65 c 0,22,23
 491 -106 491 -106 543 -106 c 0,24,25
 572 -106 572 -106 586 -97 c 1,0,-1
EndSplineSet
Substitution2: "'c2sc' Capitals to Small Capitals lookup 11 subtable" eogonek.sc
Substitution2: "'aalt' Access All Alternates lookup 0 subtable" eogonek.sc
EndChar

StartChar: eogonek
Encoding: 281 281 213
Width: 583
GlyphClass: 2
Flags: W
AnchorPoint: "Anchor-0" 296 0 basechar 0
LayerCount: 2
Fore
SplineSet
556 262 m 0,0,1
 556 226 556 226 551 204 c 1,2,-1
 222 204 l 1,3,4
 228 162 228 162 249 145 c 128,-1,5
 270 128 270 128 308 128 c 0,6,7
 369 128 369 128 383 176 c 1,8,-1
 546 129 l 1,9,10
 518 27 518 27 391 -2 c 1,11,12
 331 -28 331 -28 331 -64 c 0,13,14
 331 -106 331 -106 382 -106 c 0,15,16
 411 -106 411 -106 425 -97 c 1,17,-1
 450 -190 l 1,18,19
 412 -215 412 -215 339 -215 c 0,20,21
 274 -215 274 -215 233.5 -185.5 c 128,-1,22
 193 -156 193 -156 193 -99 c 0,23,24
 193 -44 193 -44 246 -6 c 1,25,26
 139 9 139 9 83.5 74.5 c 128,-1,27
 28 140 28 140 28 250 c 0,28,29
 28 374 28 374 98.5 442 c 128,-1,30
 169 510 169 510 297 510 c 0,31,32
 422 510 422 510 489 443.5 c 128,-1,33
 556 377 556 377 556 262 c 0,0,1
298 373 m 0,34,35
 265 373 265 373 246.5 354 c 128,-1,36
 228 335 228 335 222 292 c 1,37,-1
 367 292 l 1,38,39
 356 373 356 373 298 373 c 0,34,35
EndSplineSet
Substitution2: "'smcp' Lowercase to Small Capitals lookup 12 subtable" eogonek.sc
Substitution2: "'aalt' Access All Alternates lookup 0 subtable" eogonek.sc
EndChar

StartChar: Ecaron
Encoding: 282 282 214
Width: 628
GlyphClass: 2
Flags: W
AnchorPoint: "Anchor-0" 331 0 basechar 0
LayerCount: 2
Fore
SplineSet
408 714 m 1,0,-1
 218 714 l 1,1,-1
 108 881 l 1,2,-1
 253 881 l 1,3,-1
 313 804 l 1,4,-1
 373 881 l 1,5,-1
 518 881 l 1,6,-1
 408 714 l 1,0,-1
265 153 m 1,7,-1
 606 153 l 1,8,-1
 606 0 l 1,9,-1
 61 0 l 1,10,-1
 61 660 l 1,11,-1
 593 660 l 1,12,-1
 593 507 l 1,13,-1
 265 507 l 1,14,-1
 265 400 l 1,15,-1
 527 400 l 1,16,-1
 527 258 l 1,17,-1
 265 258 l 1,18,-1
 265 153 l 1,7,-1
EndSplineSet
Substitution2: "Single Substitution lookup 57 subtable" Ecaron.swsh.001
Substitution2: "Single Substitution lookup 56 subtable" Ecaron.swsh
AlternateSubs2: "'swsh' Swash lookup 33 subtable" Ecaron.swsh Ecaron.swsh.001
Substitution2: "'c2sc' Capitals to Small Capitals lookup 11 subtable" ecaron.sc
AlternateSubs2: "'aalt' Access All Alternates lookup 1 subtable" ecaron.sc Ecaron.swsh Ecaron.swsh.001
EndChar

StartChar: ecaron
Encoding: 283 283 215
Width: 583
GlyphClass: 2
Flags: W
AnchorPoint: "Anchor-0" 296 0 basechar 0
LayerCount: 2
Fore
SplineSet
387 559 m 1,0,-1
 195 559 l 1,1,-1
 88 734 l 1,2,-1
 229 734 l 1,3,-1
 291 655 l 1,4,-1
 353 734 l 1,5,-1
 494 734 l 1,6,-1
 387 559 l 1,0,-1
556 262 m 0,7,8
 556 226 556 226 551 204 c 1,9,-1
 222 204 l 1,10,11
 228 162 228 162 249 145 c 128,-1,12
 270 128 270 128 308 128 c 0,13,14
 369 128 369 128 383 176 c 1,15,-1
 546 129 l 1,16,17
 527 61 527 61 463.5 25.5 c 128,-1,18
 400 -10 400 -10 308 -10 c 0,19,20
 172 -10 172 -10 100 57.5 c 128,-1,21
 28 125 28 125 28 250 c 0,22,23
 28 374 28 374 98.5 442 c 128,-1,24
 169 510 169 510 297 510 c 0,25,26
 422 510 422 510 489 443.5 c 128,-1,27
 556 377 556 377 556 262 c 0,7,8
298 373 m 0,28,29
 265 373 265 373 246.5 354 c 128,-1,30
 228 335 228 335 222 292 c 1,31,-1
 367 292 l 1,32,33
 356 373 356 373 298 373 c 0,28,29
EndSplineSet
Substitution2: "'smcp' Lowercase to Small Capitals lookup 12 subtable" ecaron.sc
Substitution2: "'aalt' Access All Alternates lookup 0 subtable" ecaron.sc
EndChar

StartChar: Gbreve
Encoding: 286 286 216
Width: 722
GlyphClass: 2
Flags: W
AnchorPoint: "Anchor-0" 384 0 basechar 0
LayerCount: 2
Fore
SplineSet
366 707 m 128,-1,1
 283 707 283 707 236.5 751.5 c 128,-1,2
 190 796 190 796 190 875 c 1,3,-1
 315 875 l 1,4,5
 315 814 315 814 366 814 c 128,-1,6
 417 814 417 814 417 875 c 1,7,-1
 542 875 l 1,8,9
 542 796 542 796 495.5 751.5 c 128,-1,0
 449 707 449 707 366 707 c 128,-1,1
363 234 m 1,10,-1
 363 365 l 1,11,-1
 671 365 l 1,12,-1
 671 0 l 1,13,-1
 533 0 l 1,14,-1
 526 76 l 1,15,16
 473 -10 473 -10 343 -10 c 0,17,18
 207 -10 207 -10 121.5 78.5 c 128,-1,19
 36 167 36 167 36 328 c 128,-1,20
 36 489 36 489 125.5 579.5 c 128,-1,21
 215 670 215 670 372 670 c 0,22,23
 490 670 490 670 561 629 c 128,-1,24
 632 588 632 588 672 495 c 1,25,-1
 482 424 l 1,26,27
 463 514 463 514 379 514 c 0,28,29
 246 514 246 514 246 330 c 0,30,31
 246 232 246 232 280 187 c 128,-1,32
 314 142 314 142 385 142 c 0,33,34
 437 142 437 142 468 164 c 128,-1,35
 499 186 499 186 499 229 c 2,36,-1
 499 234 l 1,37,-1
 363 234 l 1,10,-1
EndSplineSet
Substitution2: "'ss04' Style Set 4 lookup 50 subtable" Gbreve.ss04
Substitution2: "'salt' Stylistic Alternatives lookup 42 subtable" Gbreve.ss04
Substitution2: "'c2sc' Capitals to Small Capitals lookup 11 subtable" gbreve.sc
AlternateSubs2: "'aalt' Access All Alternates lookup 1 subtable" gbreve.sc Gbreve.ss04
EndChar

StartChar: gbreve
Encoding: 287 287 217
Width: 628
GlyphClass: 2
Flags: W
LayerCount: 2
Fore
SplineSet
318 547 m 128,-1,1
 235 547 235 547 188.5 591.5 c 128,-1,2
 142 636 142 636 142 715 c 1,3,-1
 267 715 l 1,4,5
 267 654 267 654 318 654 c 128,-1,6
 369 654 369 654 369 715 c 1,7,-1
 494 715 l 1,8,9
 494 636 494 636 447.5 591.5 c 128,-1,0
 401 547 401 547 318 547 c 128,-1,1
397 500 m 1,10,-1
 578 500 l 1,11,-1
 578 40 l 2,12,13
 578 -215 578 -215 289 -215 c 0,14,15
 184 -215 184 -215 121.5 -181 c 128,-1,16
 59 -147 59 -147 46 -61 c 1,17,-1
 240 -14 l 1,18,19
 241 -95 241 -95 307 -95 c 0,20,21
 376 -95 376 -95 376 -8 c 2,22,-1
 376 94 l 1,23,24
 325 19 325 19 230 19 c 0,25,26
 136 19 136 19 84 82.5 c 128,-1,27
 32 146 32 146 32 262 c 0,28,29
 32 380 32 380 84.5 445 c 128,-1,30
 137 510 137 510 231 510 c 0,31,32
 295 510 295 510 335.5 475.5 c 128,-1,33
 376 441 376 441 392 381 c 1,34,-1
 397 500 l 1,10,-1
307 163 m 0,35,36
 376 163 376 163 376 260 c 2,37,-1
 376 268 l 2,38,39
 376 365 376 365 307 365 c 0,40,41
 236 365 236 365 236 264 c 128,-1,42
 236 163 236 163 307 163 c 0,35,36
EndSplineSet
Substitution2: "'ss01' Style Set 1 lookup 47 subtable" gbreve.ss01
Substitution2: "'salt' Stylistic Alternatives lookup 42 subtable" gbreve.ss01
Substitution2: "'smcp' Lowercase to Small Capitals lookup 12 subtable" gbreve.sc
AlternateSubs2: "'aalt' Access All Alternates lookup 1 subtable" gbreve.sc gbreve.ss01
EndChar

StartChar: uni0122
Encoding: 290 290 218
Width: 722
GlyphClass: 2
Flags: W
AnchorPoint: "Anchor-0" 384 0 basechar 0
LayerCount: 2
Fore
SplineSet
363 234 m 1,0,-1
 363 365 l 1,1,-1
 671 365 l 1,2,-1
 671 0 l 1,3,-1
 533 0 l 1,4,-1
 526 76 l 1,5,6
 473 -10 473 -10 343 -10 c 0,7,8
 207 -10 207 -10 121.5 78.5 c 128,-1,9
 36 167 36 167 36 328 c 128,-1,10
 36 489 36 489 125.5 579.5 c 128,-1,11
 215 670 215 670 372 670 c 0,12,13
 490 670 490 670 561 629 c 128,-1,14
 632 588 632 588 672 495 c 1,15,-1
 482 424 l 1,16,17
 463 514 463 514 379 514 c 0,18,19
 246 514 246 514 246 330 c 0,20,21
 246 232 246 232 280 187 c 128,-1,22
 314 142 314 142 385 142 c 0,23,24
 437 142 437 142 468 164 c 128,-1,25
 499 186 499 186 499 229 c 2,26,-1
 499 234 l 1,27,-1
 363 234 l 1,0,-1
278 -242 m 1,28,-1
 306 -55 l 1,29,-1
 479 -55 l 1,30,-1
 406 -242 l 1,31,-1
 278 -242 l 1,28,-1
EndSplineSet
Substitution2: "'ss04' Style Set 4 lookup 50 subtable" Gcommaaccent.ss04
Substitution2: "'salt' Stylistic Alternatives lookup 42 subtable" Gcommaaccent.ss04
Substitution2: "'c2sc' Capitals to Small Capitals lookup 11 subtable" Gcommaaccent.sc
AlternateSubs2: "'aalt' Access All Alternates lookup 1 subtable" Gcommaaccent.sc Gcommaaccent.ss04
EndChar

StartChar: uni0123
Encoding: 291 291 219
Width: 628
GlyphClass: 2
Flags: W
LayerCount: 2
Fore
SplineSet
439 770 m 1,0,-1
 405 554 l 1,1,-1
 244 554 l 1,2,-1
 315 770 l 1,3,-1
 439 770 l 1,0,-1
397 500 m 1,4,-1
 578 500 l 1,5,-1
 578 40 l 2,6,7
 578 -215 578 -215 289 -215 c 0,8,9
 184 -215 184 -215 121.5 -181 c 128,-1,10
 59 -147 59 -147 46 -61 c 1,11,-1
 240 -14 l 1,12,13
 241 -95 241 -95 307 -95 c 0,14,15
 376 -95 376 -95 376 -8 c 2,16,-1
 376 94 l 1,17,18
 325 19 325 19 230 19 c 0,19,20
 136 19 136 19 84 82.5 c 128,-1,21
 32 146 32 146 32 262 c 0,22,23
 32 380 32 380 84.5 445 c 128,-1,24
 137 510 137 510 231 510 c 0,25,26
 295 510 295 510 335.5 475.5 c 128,-1,27
 376 441 376 441 392 381 c 1,28,-1
 397 500 l 1,4,-1
307 163 m 0,29,30
 376 163 376 163 376 260 c 2,31,-1
 376 268 l 2,32,33
 376 365 376 365 307 365 c 0,34,35
 236 365 236 365 236 264 c 128,-1,36
 236 163 236 163 307 163 c 0,29,30
EndSplineSet
Substitution2: "'ss01' Style Set 1 lookup 47 subtable" gcommaaccent.ss01
Substitution2: "'salt' Stylistic Alternatives lookup 42 subtable" gcommaaccent.ss01
Substitution2: "'aalt' Access All Alternates lookup 0 subtable" gcommaaccent.ss01
EndChar

StartChar: Imacron
Encoding: 298 298 220
Width: 326
GlyphClass: 2
Flags: W
LayerCount: 2
Fore
SplineSet
316 838 m 1,0,-1
 316 719 l 1,1,-1
 8 719 l 1,2,-1
 8 838 l 1,3,-1
 316 838 l 1,0,-1
265 660 m 1,4,-1
 265 0 l 1,5,-1
 61 0 l 1,6,-1
 61 660 l 1,7,-1
 265 660 l 1,4,-1
EndSplineSet
Substitution2: "'c2sc' Capitals to Small Capitals lookup 11 subtable" imacron.sc
Substitution2: "'aalt' Access All Alternates lookup 0 subtable" imacron.sc
EndChar

StartChar: imacron
Encoding: 299 299 221
Width: 300
GlyphClass: 2
Flags: W
LayerCount: 2
Fore
SplineSet
297 678 m 1,0,-1
 297 559 l 1,1,-1
 4 559 l 1,2,-1
 4 678 l 1,3,-1
 297 678 l 1,0,-1
251 500 m 1,4,-1
 251 0 l 1,5,-1
 49 0 l 1,6,-1
 49 500 l 1,7,-1
 251 500 l 1,4,-1
EndSplineSet
Substitution2: "'smcp' Lowercase to Small Capitals lookup 12 subtable" imacron.sc
Substitution2: "'aalt' Access All Alternates lookup 0 subtable" imacron.sc
EndChar

StartChar: Iogonek
Encoding: 302 302 222
Width: 326
GlyphClass: 2
Flags: W
LayerCount: 2
Fore
SplineSet
248 -96 m 1,0,-1
 274 -190 l 1,1,2
 235 -215 235 -215 162 -215 c 0,3,4
 98 -215 98 -215 57.5 -186 c 128,-1,5
 17 -157 17 -157 17 -100 c 0,6,7
 17 -35 17 -35 78 0 c 1,8,-1
 61 0 l 1,9,-1
 61 660 l 1,10,-1
 265 660 l 1,11,-1
 265 0 l 1,12,-1
 266 0 l 1,13,14
 204 -9 204 -9 179 -24.5 c 128,-1,15
 154 -40 154 -40 154 -65 c 0,16,17
 154 -106 154 -106 205 -106 c 0,18,19
 232 -106 232 -106 248 -96 c 1,0,-1
EndSplineSet
Substitution2: "'c2sc' Capitals to Small Capitals lookup 11 subtable" iogonek.sc
Substitution2: "'aalt' Access All Alternates lookup 0 subtable" iogonek.sc
EndChar

StartChar: iogonek
Encoding: 303 303 223
Width: 300
GlyphClass: 2
Flags: W
LayerCount: 2
Fore
SplineSet
150 544 m 128,-1,1
 89 544 89 544 63 565 c 128,-1,2
 37 586 37 586 37 633 c 0,3,4
 37 681 37 681 63 702 c 128,-1,5
 89 723 89 723 150 723 c 128,-1,6
 211 723 211 723 237 702 c 128,-1,7
 263 681 263 681 263 633 c 0,8,9
 263 586 263 586 237 565 c 128,-1,0
 211 544 211 544 150 544 c 128,-1,1
191 -106 m 0,10,11
 221 -106 221 -106 235 -97 c 1,12,-1
 260 -190 l 1,13,14
 221 -215 221 -215 148 -215 c 0,15,16
 84 -215 84 -215 43.5 -186 c 128,-1,17
 3 -157 3 -157 3 -100 c 0,18,19
 3 -35 3 -35 67 0 c 1,20,-1
 49 0 l 1,21,-1
 49 500 l 1,22,-1
 251 500 l 1,23,-1
 251 0 l 1,24,25
 199 -6 199 -6 170 -24 c 128,-1,26
 141 -42 141 -42 141 -66 c 0,27,28
 141 -106 141 -106 191 -106 c 0,10,11
EndSplineSet
Substitution2: "'smcp' Lowercase to Small Capitals lookup 12 subtable" iogonek.sc
Substitution2: "'aalt' Access All Alternates lookup 0 subtable" iogonek.sc
EndChar

